<svg width="101" height="55" viewBox="0 0 101 55" fill="none" xmlns="http://www.w3.org/2000/svg">
<path d="M23.4005 11.5726C22.6607 12.8724 21.1397 13.4757 19.6921 13.1023C18.6472 12.8328 17.4873 12.7638 16.3399 12.9965C12.9399 13.6862 10.8694 17.1648 11.6057 20.7984C12.3419 24.432 15.611 26.8677 19.3201 26.1153C20.3191 25.9127 21.3036 25.4571 22.1279 24.8252C23.3193 23.912 24.9563 23.8563 26.1627 24.7496C27.9139 26.0461 27.9734 28.6735 26.2497 30.0065C24.6936 31.2101 22.6843 32.0732 20.1876 32.5795C12.8855 34.0608 6.21645 29.3366 4.76722 22.1854C3.31799 15.0341 7.89972 8.06795 14.9701 6.63374C17.4609 6.12846 19.6019 6.16647 21.4277 6.60957C23.5384 7.12185 24.5737 9.51126 23.4988 11.3996L23.4005 11.5726Z" fill="#FFA100"/>
<path d="M27.9933 8.21612C27.6217 6.0113 29.3102 3.95938 31.6176 4.03048C33.1611 4.07812 34.5235 5.14489 34.941 6.63252C35.5651 8.85643 33.9798 10.99 31.7513 11.1588C29.945 11.2958 28.2946 10.0032 27.9933 8.21612ZM34.4318 31.5768C32.692 31.7891 31.1097 30.5502 30.8974 28.8096L29.3794 16.3594C29.1672 14.6187 30.4055 13.0356 32.1452 12.8231C33.885 12.6109 35.4672 13.8498 35.6796 15.5903L37.1976 28.0406C37.4099 29.7813 36.1716 31.3646 34.4318 31.5768Z" fill="#00DAE4"/>
<path d="M43.5181 27.8351H43.0056C41.3944 27.8351 40.0884 26.5284 40.0884 24.9164V11.861C40.0884 10.249 41.3944 8.94233 43.0056 8.94233H43.5181C45.1293 8.94233 46.4353 10.249 46.4353 11.861C47.3421 9.81014 48.8795 8.35071 50.9293 8.35071C50.9428 8.35071 50.9561 8.35071 50.9694 8.35088C52.6601 8.35982 53.7783 10.118 53.1049 11.6696L52.4328 13.2182C51.9784 14.2653 50.849 14.814 49.7308 14.587C49.463 14.5328 49.1894 14.5037 48.9187 14.5037C47.4207 14.5037 46.4351 15.7263 46.4351 17.6196V24.9164C46.4353 26.5284 45.1293 27.8351 43.5181 27.8351Z" fill="#FF5E00"/>
<path d="M62.3764 17.5678C59.9324 17.5678 58.3554 19.3427 58.3554 21.6698C58.3554 23.9574 59.9716 25.7323 62.3764 25.7323C63.2177 25.7323 63.9475 25.5839 64.6065 25.3051C65.8741 24.769 67.3441 25.2195 68.1164 26.3591L68.1326 26.3829C69.1324 27.8586 68.581 29.8804 66.969 30.6404C65.5914 31.2899 63.9412 31.688 62.2187 31.688C56.5025 31.688 52.0085 27.1917 52.0085 21.6698C52.0085 16.1084 56.5419 11.6121 62.061 11.6121C63.9302 11.6121 65.5536 11.9636 66.931 12.5834C68.6439 13.3542 69.1415 15.5581 67.9698 17.0266L67.8815 17.1373C67.0817 18.1397 65.7193 18.4479 64.5348 17.9573C63.9041 17.696 63.2044 17.5678 62.3764 17.5678Z" fill="#00DAE4"/>
<path d="M73.5656 0C75.3182 0 76.739 1.4216 76.739 3.17509V23.9611C76.739 25.7146 75.3182 27.1362 73.5656 27.1362C71.813 27.1362 70.3921 25.7146 70.3921 23.9611V3.17509C70.3921 1.4216 71.8128 0 73.5656 0Z" fill="#FF5E00"/>
<path d="M88.6842 51.4057H16.6266C12.4445 51.4057 9.05414 48.0136 9.05414 43.8294C9.05414 39.6451 12.4445 36.2531 16.6266 36.2531H88.6842C92.8663 36.2531 96.2567 39.6451 96.2567 43.8294C96.2565 48.0136 92.8663 51.4057 88.6842 51.4057Z" fill="#3620A5"/>
<path d="M79.0076 24.6415C77.7464 19.2252 80.835 13.8886 86.21 12.6356C91.5851 11.3827 96.6618 14.4112 97.9231 19.8275C97.9248 19.8352 97.9266 19.8429 97.9285 19.8506C98.1718 20.9004 97.5131 21.9479 96.464 22.1926L85.7771 24.6836C86.6699 26.2574 88.3498 27.0402 90.3846 26.566C91.17 26.3829 91.8193 26.0482 92.3593 25.6211C93.3835 24.8112 94.8347 24.8321 95.8356 25.6705C97.1572 26.7772 97.1595 28.8219 95.8235 29.9115C94.6845 30.8404 93.1948 31.6212 91.4153 32.0359C85.5798 33.396 80.2599 30.0193 79.0076 24.6415ZM85.0158 20.8922L91.1588 19.4602C90.275 17.9248 88.9532 17.4635 87.5327 17.7945C86.0355 18.1435 85.1751 19.3161 85.0158 20.8922Z" fill="#FFA100"/>
<path d="M19.392 40.8005C19.392 40.46 19.6678 40.1838 20.0083 40.1838H22.0567C23.9208 40.1838 25.156 41.1907 25.156 42.724C25.156 44.2802 23.9208 45.2986 22.0452 45.2986H21.279V46.5745C21.279 47.0959 20.8566 47.5185 20.3355 47.5185C19.8144 47.5185 19.392 47.0959 19.392 46.5745V40.8005ZM21.279 41.8431V43.6395H22.2053C22.7772 43.6395 23.1546 43.2733 23.1546 42.724C23.1546 42.1978 22.7772 41.8429 22.2053 41.8429H21.279V41.8431Z" fill="#E6E7E8"/>
<path d="M30.96 40.184C31.4811 40.184 31.9035 40.6066 31.9035 41.128V44.3376C31.9035 45.2187 32.4067 45.8022 33.1729 45.8022C33.9164 45.8022 34.4081 45.2302 34.4081 44.3491V41.128C34.4081 40.6066 34.8305 40.184 35.3516 40.184C35.8727 40.184 36.2951 40.6066 36.2951 41.128V44.3834C36.2951 46.3744 35.037 47.6902 33.1386 47.6902C31.263 47.6902 30.0164 46.3744 30.0164 44.3834V41.128C30.0164 40.6066 30.4388 40.184 30.96 40.184Z" fill="#E6E7E8"/>
<path d="M44.6088 41.9574H42.3272C41.8378 41.9574 41.441 41.5604 41.441 41.0707C41.441 40.581 41.8378 40.184 42.3272 40.184H45.7767C46.4897 40.184 47.0677 40.7623 47.0677 41.4756C47.0677 41.7865 46.9557 42.0868 46.7521 42.3217L43.7854 45.745H46.2958C46.7852 45.745 47.182 46.142 47.182 46.6317C47.182 47.1214 46.7852 47.5184 46.2958 47.5184H42.6175C41.9045 47.5184 41.3265 46.9401 41.3265 46.2268C41.3265 45.9159 41.4385 45.6155 41.6421 45.3807L44.6088 41.9574Z" fill="#E6E7E8"/>
<path d="M55.2674 41.9574H52.9858C52.4964 41.9574 52.0995 41.5604 52.0995 41.0707C52.0995 40.581 52.4964 40.184 52.9858 40.184H56.4353C57.1483 40.184 57.7263 40.7623 57.7263 41.4756C57.7263 41.7865 57.6143 42.0868 57.4107 42.3217L54.444 45.745H56.9543C57.4438 45.745 57.8406 46.142 57.8406 46.6317C57.8406 47.1214 57.4438 47.5184 56.9543 47.5184H53.276C52.5631 47.5184 51.985 46.9401 51.985 46.2268C51.985 45.9159 52.0971 45.6155 52.3007 45.3807L55.2674 41.9574Z" fill="#E6E7E8"/>
<path d="M63.8155 40.184H63.9298C64.4193 40.184 64.8161 40.581 64.8161 41.0707V45.3588C64.8161 45.5721 64.9889 45.745 65.2021 45.745H67.2577C67.7471 45.745 68.144 46.142 68.144 46.6317C68.144 47.1214 67.7471 47.5184 67.2577 47.5184H63.5155C63.1915 47.5184 62.9289 47.2557 62.9289 46.9315V41.0705C62.9291 40.5808 63.3259 40.184 63.8155 40.184Z" fill="#E6E7E8"/>
<path d="M73.6046 40.184H76.9328C77.4222 40.184 77.8191 40.581 77.8191 41.0707C77.8191 41.5604 77.4222 41.9574 76.9328 41.9574H74.8341V42.9186H76.4752C76.9646 42.9186 77.3615 43.3156 77.3615 43.8053C77.3615 44.295 76.9646 44.692 76.4752 44.692H74.8341V45.7446H76.9328C77.4222 45.7446 77.8191 46.1417 77.8191 46.6314C77.8191 47.121 77.4222 47.5181 76.9328 47.5181H73.6046C73.2415 47.5181 72.9473 47.2237 72.9473 46.8604V40.8411C72.9473 40.4784 73.2417 40.184 73.6046 40.184Z" fill="#E6E7E8"/>
<path d="M87.6454 42.0007C87.3313 42.3149 86.8433 42.3521 86.4729 42.1074C86.1786 41.913 85.8182 41.7858 85.4128 41.7858C84.944 41.7858 84.7152 41.9689 84.7152 42.2321C84.7152 43.1819 88.295 42.747 88.295 45.3101C88.295 46.6718 87.0941 47.6901 85.3673 47.6901C84.379 47.6901 83.6749 47.4584 83.1706 47.1186C82.6836 46.7906 82.6341 46.0911 83.0617 45.6888L83.0941 45.6583C83.4151 45.3564 83.8981 45.3347 84.2624 45.5825C84.5939 45.8081 84.9774 45.9165 85.4016 45.9165C85.9733 45.9165 86.2707 45.7335 86.2707 45.3902C86.2707 44.3947 82.6911 44.8637 82.6911 42.2778C82.6911 40.962 83.869 40.0122 85.4931 40.0122C86.2873 40.0122 86.9699 40.2273 87.5038 40.5816C87.9883 40.9035 88.0567 41.5892 87.6454 42.0007Z" fill="#E6E7E8"/>
<path fill-rule="evenodd" clip-rule="evenodd" d="M17.1049 4.40768C8.69668 4.40768 1.8796 11.2274 1.8796 19.6412C1.8796 20.1603 1.45884 20.581 0.939801 20.581C0.420763 20.581 0 20.1603 0 19.6412C0 10.1902 7.65771 2.52808 17.1049 2.52808C17.6239 2.52808 18.0447 2.94884 18.0447 3.46788C18.0447 3.98692 17.6239 4.40768 17.1049 4.40768Z" fill="#7A6CC4"/>
<path fill-rule="evenodd" clip-rule="evenodd" d="M99.1884 16.0203C97.0908 10.8219 91.179 8.30959 85.984 10.4079C85.5028 10.6023 84.9551 10.3698 84.7607 9.88851C84.5663 9.40725 84.7988 8.85952 85.2801 8.66513C91.4385 6.17764 98.4456 9.15629 100.931 15.317C101.126 15.7983 100.893 16.346 100.412 16.5402C99.9303 16.7344 99.3826 16.5017 99.1884 16.0203Z" fill="#7A6CC4"/>
<path fill-rule="evenodd" clip-rule="evenodd" d="M51.5961 28.4737C52.0284 28.1864 52.6117 28.304 52.8989 28.7363C54.5832 31.2713 57.208 32.8037 60.0059 33.1784C60.5204 33.2473 60.8815 33.7202 60.8127 34.2346C60.7438 34.7491 60.2709 35.1103 59.7564 35.0414C56.4444 34.5978 53.3297 32.7812 51.3334 29.7765C51.0462 29.3442 51.1638 28.7609 51.5961 28.4737Z" fill="#7A6CC4"/>
</svg>
