<svg width="341" height="216" viewBox="0 0 341 216" fill="none" xmlns="http://www.w3.org/2000/svg">
<rect width="341" height="215" rx="16" fill="#FFFEFA"/>
<path d="M133.365 112H139.695V110.725H134.715V102.385H133.365V112ZM143.953 112.18C146.023 112.18 147.628 110.485 147.628 108.4C147.628 106.315 146.023 104.635 143.953 104.635C141.898 104.635 140.293 106.315 140.293 108.4C140.293 110.485 141.898 112.18 143.953 112.18ZM143.968 110.935C142.618 110.935 141.628 109.795 141.628 108.4C141.628 106.99 142.618 105.88 143.968 105.88C145.318 105.88 146.293 106.99 146.293 108.4C146.293 109.795 145.318 110.935 143.968 110.935ZM150.94 107.86C150.94 106.66 151.48 105.91 152.35 105.91C152.695 105.91 153.04 106.03 153.28 106.195L153.835 104.95C153.58 104.74 153.19 104.635 152.74 104.635C151.945 104.635 151.33 105.055 150.94 105.715V104.815H149.605V112H150.94V107.86ZM157.999 112.18C159.154 112.18 160.174 111.745 160.759 111.115L160.054 110.2C159.574 110.68 158.854 110.995 158.044 110.995C156.679 110.995 155.734 110.035 155.584 108.745H161.284C161.314 108.64 161.329 108.445 161.329 108.265C161.329 106.24 159.799 104.635 157.789 104.635C155.749 104.635 154.234 106.315 154.234 108.4C154.234 110.485 155.809 112.18 157.999 112.18ZM157.804 105.775C158.929 105.775 159.754 106.525 159.964 107.86H155.614C155.809 106.66 156.634 105.775 157.804 105.775ZM164.501 107.815C164.501 106.63 165.146 105.88 166.226 105.88C167.291 105.88 167.951 106.63 167.951 107.815V112H169.271V107.815C169.271 106.63 169.931 105.88 171.011 105.88C172.076 105.88 172.721 106.63 172.721 107.815V112H174.056V107.605C174.056 105.76 172.976 104.635 171.311 104.635C170.156 104.635 169.361 105.25 168.971 106.09C168.536 105.175 167.696 104.635 166.571 104.635C165.656 104.635 164.936 105.055 164.501 105.715V104.815H163.166V112H164.501V107.815ZM181.109 104.815H179.774V112H181.109V104.815ZM180.434 103.57C180.884 103.57 181.259 103.195 181.259 102.745C181.259 102.295 180.884 101.92 180.434 101.92C179.984 101.92 179.609 102.295 179.609 102.745C179.609 103.195 179.984 103.57 180.434 103.57ZM183.595 104.815V114.94H184.93V110.95C185.485 111.715 186.355 112.18 187.435 112.18C189.445 112.18 190.93 110.545 190.93 108.415C190.93 106.24 189.385 104.635 187.435 104.635C186.355 104.635 185.485 105.13 184.93 105.91V104.815H183.595ZM187.27 105.88C188.62 105.88 189.595 107.02 189.595 108.415C189.595 109.825 188.62 110.935 187.27 110.935C185.905 110.935 184.93 109.825 184.93 108.415C184.93 107.02 185.905 105.88 187.27 105.88ZM193.662 106.63C193.662 106.105 194.172 105.715 194.982 105.715C195.762 105.715 196.347 105.94 196.827 106.54L197.622 105.745C197.127 105.04 196.182 104.635 194.952 104.635C193.272 104.635 192.357 105.58 192.357 106.63C192.357 109.18 196.422 108.43 196.422 110.065C196.422 110.68 195.927 111.1 195.027 111.1C194.082 111.1 193.332 110.74 192.837 110.14L192.057 111.01C192.627 111.715 193.617 112.18 194.937 112.18C196.737 112.18 197.742 111.25 197.742 110.035C197.742 107.38 193.662 108.175 193.662 106.63ZM200.817 104.815H199.482V108.895C199.482 110.845 200.742 112.135 202.662 112.135C204.597 112.135 205.872 110.845 205.872 108.895V104.815H204.537V108.79C204.537 110.05 203.802 110.89 202.662 110.89C201.552 110.89 200.817 110.05 200.817 108.79V104.815ZM209.593 107.815C209.593 106.63 210.238 105.88 211.318 105.88C212.383 105.88 213.043 106.63 213.043 107.815V112H214.363V107.815C214.363 106.63 215.023 105.88 216.103 105.88C217.168 105.88 217.813 106.63 217.813 107.815V112H219.148V107.605C219.148 105.76 218.068 104.635 216.403 104.635C215.248 104.635 214.453 105.25 214.063 106.09C213.628 105.175 212.788 104.635 211.663 104.635C210.748 104.635 210.028 105.055 209.593 105.715V104.815H208.258V112H209.593V107.815ZM228.016 110.935C226.666 110.935 225.676 109.795 225.676 108.4C225.676 106.99 226.666 105.88 228.016 105.88C229.366 105.88 230.341 106.99 230.341 108.4C230.341 109.795 229.366 110.935 228.016 110.935ZM230.341 101.68V105.895C229.786 105.115 228.916 104.635 227.821 104.635C225.811 104.635 224.341 106.27 224.341 108.4C224.341 110.575 225.871 112.18 227.821 112.18C228.916 112.18 229.786 111.67 230.341 110.875V112H231.676V101.68H230.341ZM237.315 112.18C239.385 112.18 240.99 110.485 240.99 108.4C240.99 106.315 239.385 104.635 237.315 104.635C235.26 104.635 233.655 106.315 233.655 108.4C233.655 110.485 235.26 112.18 237.315 112.18ZM237.33 110.935C235.98 110.935 234.99 109.795 234.99 108.4C234.99 106.99 235.98 105.88 237.33 105.88C238.68 105.88 239.655 106.99 239.655 108.4C239.655 109.795 238.68 110.935 237.33 110.935ZM242.968 112H244.303V101.68H242.968V112ZM249.924 112.18C251.994 112.18 253.599 110.485 253.599 108.4C253.599 106.315 251.994 104.635 249.924 104.635C247.869 104.635 246.264 106.315 246.264 108.4C246.264 110.485 247.869 112.18 249.924 112.18ZM249.939 110.935C248.589 110.935 247.599 109.795 247.599 108.4C247.599 106.99 248.589 105.88 249.939 105.88C251.289 105.88 252.264 106.99 252.264 108.4C252.264 109.795 251.289 110.935 249.939 110.935ZM256.911 107.86C256.911 106.66 257.451 105.91 258.321 105.91C258.666 105.91 259.011 106.03 259.251 106.195L259.806 104.95C259.551 104.74 259.161 104.635 258.711 104.635C257.916 104.635 257.301 105.055 256.911 105.715V104.815H255.576V112H256.911V107.86ZM265.509 106.63C265.509 106.105 266.019 105.715 266.829 105.715C267.609 105.715 268.194 105.94 268.674 106.54L269.469 105.745C268.974 105.04 268.029 104.635 266.799 104.635C265.119 104.635 264.204 105.58 264.204 106.63C264.204 109.18 268.269 108.43 268.269 110.065C268.269 110.68 267.774 111.1 266.874 111.1C265.929 111.1 265.179 110.74 264.684 110.14L263.904 111.01C264.474 111.715 265.464 112.18 266.784 112.18C268.584 112.18 269.589 111.25 269.589 110.035C269.589 107.38 265.509 108.175 265.509 106.63ZM272.785 104.815H271.45V112H272.785V104.815ZM272.11 103.57C272.56 103.57 272.935 103.195 272.935 102.745C272.935 102.295 272.56 101.92 272.11 101.92C271.66 101.92 271.285 102.295 271.285 102.745C271.285 103.195 271.66 103.57 272.11 103.57ZM274.461 106H275.646V109.84C275.646 111.385 276.456 112.18 277.806 112.18C278.601 112.18 279.201 111.895 279.531 111.565L278.916 110.56C278.706 110.8 278.346 110.935 277.986 110.935C277.341 110.935 276.996 110.56 276.996 109.795V106H279.021V104.815H276.981V103.03H275.661V104.815H274.461V106ZM289.869 112H291.204V104.815H289.869V105.895C289.314 105.115 288.444 104.635 287.349 104.635C285.339 104.635 283.869 106.27 283.869 108.4C283.869 110.575 285.399 112.18 287.349 112.18C288.444 112.18 289.314 111.67 289.869 110.875V112ZM287.544 110.935C286.194 110.935 285.204 109.795 285.204 108.4C285.204 106.99 286.194 105.88 287.544 105.88C288.894 105.88 289.869 106.99 289.869 108.4C289.869 109.795 288.894 110.935 287.544 110.935ZM295.044 107.815C295.044 106.63 295.689 105.88 296.769 105.88C297.834 105.88 298.494 106.63 298.494 107.815V112H299.814V107.815C299.814 106.63 300.474 105.88 301.554 105.88C302.619 105.88 303.264 106.63 303.264 107.815V112H304.599V107.605C304.599 105.76 303.519 104.635 301.854 104.635C300.699 104.635 299.904 105.25 299.514 106.09C299.079 105.175 298.239 104.635 297.114 104.635C296.199 104.635 295.479 105.055 295.044 105.715V104.815H293.709V112H295.044V107.815ZM310.218 112.18C311.373 112.18 312.393 111.745 312.978 111.115L312.273 110.2C311.793 110.68 311.073 110.995 310.263 110.995C308.898 110.995 307.953 110.035 307.803 108.745H313.503C313.533 108.64 313.548 108.445 313.548 108.265C313.548 106.24 312.018 104.635 310.008 104.635C307.968 104.635 306.453 106.315 306.453 108.4C306.453 110.485 308.028 112.18 310.218 112.18ZM310.023 105.775C311.148 105.775 311.973 106.525 312.183 107.86H307.833C308.028 106.66 308.853 105.775 310.023 105.775ZM314.575 106H315.76V109.84C315.76 111.385 316.57 112.18 317.92 112.18C318.715 112.18 319.315 111.895 319.645 111.565L319.03 110.56C318.82 110.8 318.46 110.935 318.1 110.935C317.455 110.935 317.11 110.56 317.11 109.795V106H319.135V104.815H317.095V103.03H315.775V104.815H314.575V106ZM322.129 110.38H320.629L319.834 113.785H320.944L322.129 110.38ZM138.405 122.585L139.17 121.64C138.57 121.025 137.625 120.635 136.47 120.635C134.37 120.635 132.765 122.315 132.765 124.4C132.765 126.485 134.355 128.18 136.455 128.18C137.55 128.18 138.555 127.79 139.125 127.175L138.435 126.2C137.955 126.68 137.28 126.935 136.5 126.935C135.09 126.935 134.1 125.795 134.1 124.4C134.1 122.99 135.09 121.88 136.515 121.88C137.295 121.88 137.925 122.135 138.405 122.585ZM143.645 128.18C145.715 128.18 147.32 126.485 147.32 124.4C147.32 122.315 145.715 120.635 143.645 120.635C141.59 120.635 139.985 122.315 139.985 124.4C139.985 126.485 141.59 128.18 143.645 128.18ZM143.66 126.935C142.31 126.935 141.32 125.795 141.32 124.4C141.32 122.99 142.31 121.88 143.66 121.88C145.01 121.88 145.985 122.99 145.985 124.4C145.985 125.795 145.01 126.935 143.66 126.935ZM150.632 123.815C150.632 122.63 151.307 121.88 152.432 121.88C153.557 121.88 154.247 122.63 154.247 123.815V128H155.582V123.605C155.582 121.79 154.487 120.635 152.792 120.635C151.847 120.635 151.082 121.025 150.632 121.7V120.815H149.297V128H150.632V123.815ZM158.793 122.63C158.793 122.105 159.303 121.715 160.113 121.715C160.893 121.715 161.478 121.94 161.958 122.54L162.753 121.745C162.258 121.04 161.313 120.635 160.083 120.635C158.403 120.635 157.488 121.58 157.488 122.63C157.488 125.18 161.553 124.43 161.553 126.065C161.553 126.68 161.058 127.1 160.158 127.1C159.213 127.1 158.463 126.74 157.968 126.14L157.188 127.01C157.758 127.715 158.748 128.18 160.068 128.18C161.868 128.18 162.873 127.25 162.873 126.035C162.873 123.38 158.793 124.175 158.793 122.63ZM167.973 128.18C169.128 128.18 170.148 127.745 170.733 127.115L170.028 126.2C169.548 126.68 168.828 126.995 168.018 126.995C166.653 126.995 165.708 126.035 165.558 124.745H171.258C171.288 124.64 171.303 124.445 171.303 124.265C171.303 122.24 169.773 120.635 167.763 120.635C165.723 120.635 164.208 122.315 164.208 124.4C164.208 126.485 165.783 128.18 167.973 128.18ZM167.778 121.775C168.903 121.775 169.728 122.525 169.938 123.86H165.588C165.783 122.66 166.608 121.775 167.778 121.775ZM178.255 122.585L179.02 121.64C178.42 121.025 177.475 120.635 176.32 120.635C174.22 120.635 172.615 122.315 172.615 124.4C172.615 126.485 174.205 128.18 176.305 128.18C177.4 128.18 178.405 127.79 178.975 127.175L178.285 126.2C177.805 126.68 177.13 126.935 176.35 126.935C174.94 126.935 173.95 125.795 173.95 124.4C173.95 122.99 174.94 121.88 176.365 121.88C177.145 121.88 177.775 122.135 178.255 122.585ZM179.755 122H180.94V125.84C180.94 127.385 181.75 128.18 183.1 128.18C183.895 128.18 184.495 127.895 184.825 127.565L184.21 126.56C184 126.8 183.64 126.935 183.28 126.935C182.635 126.935 182.29 126.56 182.29 125.795V122H184.315V120.815H182.275V119.03H180.955V120.815H179.755V122ZM189.193 128.18C190.348 128.18 191.368 127.745 191.953 127.115L191.248 126.2C190.768 126.68 190.048 126.995 189.238 126.995C187.873 126.995 186.928 126.035 186.778 124.745H192.478C192.508 124.64 192.523 124.445 192.523 124.265C192.523 122.24 190.993 120.635 188.983 120.635C186.943 120.635 185.428 122.315 185.428 124.4C185.428 126.485 187.003 128.18 189.193 128.18ZM188.998 121.775C190.123 121.775 190.948 122.525 191.158 123.86H186.808C187.003 122.66 187.828 121.775 188.998 121.775ZM193.55 122H194.735V125.84C194.735 127.385 195.545 128.18 196.895 128.18C197.69 128.18 198.29 127.895 198.62 127.565L198.005 126.56C197.795 126.8 197.435 126.935 197.075 126.935C196.43 126.935 196.085 126.56 196.085 125.795V122H198.11V120.815H196.07V119.03H194.75V120.815H193.55V122ZM201.359 120.815H200.024V124.895C200.024 126.845 201.284 128.135 203.204 128.135C205.139 128.135 206.414 126.845 206.414 124.895V120.815H205.079V124.79C205.079 126.05 204.344 126.89 203.204 126.89C202.094 126.89 201.359 126.05 201.359 124.79V120.815ZM210.135 123.86C210.135 122.66 210.675 121.91 211.545 121.91C211.89 121.91 212.235 122.03 212.475 122.195L213.03 120.95C212.775 120.74 212.385 120.635 211.935 120.635C211.14 120.635 210.525 121.055 210.135 121.715V120.815H208.8V128H210.135V123.86ZM223.368 128H224.703V120.815H223.368V121.895C222.813 121.115 221.943 120.635 220.848 120.635C218.838 120.635 217.368 122.27 217.368 124.4C217.368 126.575 218.898 128.18 220.848 128.18C221.943 128.18 222.813 127.67 223.368 126.875V128ZM221.043 126.935C219.693 126.935 218.703 125.795 218.703 124.4C218.703 122.99 219.693 121.88 221.043 121.88C222.393 121.88 223.368 122.99 223.368 124.4C223.368 125.795 222.393 126.935 221.043 126.935ZM230.358 126.935C229.008 126.935 228.018 125.795 228.018 124.4C228.018 122.99 229.008 121.88 230.358 121.88C231.708 121.88 232.683 122.99 232.683 124.4C232.683 125.795 231.708 126.935 230.358 126.935ZM232.683 117.68V121.895C232.128 121.115 231.258 120.635 230.163 120.635C228.153 120.635 226.683 122.27 226.683 124.4C226.683 126.575 228.213 128.18 230.163 128.18C231.258 128.18 232.128 127.67 232.683 126.875V128H234.018V117.68H232.683ZM237.857 120.815H236.522V128H237.857V120.815ZM237.182 119.57C237.632 119.57 238.007 119.195 238.007 118.745C238.007 118.295 237.632 117.92 237.182 117.92C236.732 117.92 236.357 118.295 236.357 118.745C236.357 119.195 236.732 119.57 237.182 119.57ZM240.344 120.815V130.94H241.679V126.95C242.234 127.715 243.104 128.18 244.184 128.18C246.194 128.18 247.679 126.545 247.679 124.415C247.679 122.24 246.134 120.635 244.184 120.635C243.104 120.635 242.234 121.13 241.679 121.91V120.815H240.344ZM244.019 121.88C245.369 121.88 246.344 123.02 246.344 124.415C246.344 125.825 245.369 126.935 244.019 126.935C242.654 126.935 241.679 125.825 241.679 124.415C241.679 123.02 242.654 121.88 244.019 121.88ZM250.993 120.815H249.658V128H250.993V120.815ZM250.318 119.57C250.768 119.57 251.143 119.195 251.143 118.745C251.143 118.295 250.768 117.92 250.318 117.92C249.868 117.92 249.493 118.295 249.493 118.745C249.493 119.195 249.868 119.57 250.318 119.57ZM254.32 122.63C254.32 122.105 254.83 121.715 255.64 121.715C256.42 121.715 257.005 121.94 257.485 122.54L258.28 121.745C257.785 121.04 256.84 120.635 255.61 120.635C253.93 120.635 253.015 121.58 253.015 122.63C253.015 125.18 257.08 124.43 257.08 126.065C257.08 126.68 256.585 127.1 255.685 127.1C254.74 127.1 253.99 126.74 253.495 126.14L252.715 127.01C253.285 127.715 254.275 128.18 255.595 128.18C257.395 128.18 258.4 127.25 258.4 126.035C258.4 123.38 254.32 124.175 254.32 122.63ZM265.375 122.585L266.14 121.64C265.54 121.025 264.595 120.635 263.44 120.635C261.34 120.635 259.735 122.315 259.735 124.4C259.735 126.485 261.325 128.18 263.425 128.18C264.52 128.18 265.525 127.79 266.095 127.175L265.405 126.2C264.925 126.68 264.25 126.935 263.47 126.935C262.06 126.935 261.07 125.795 261.07 124.4C261.07 122.99 262.06 121.88 263.485 121.88C264.265 121.88 264.895 122.135 265.375 122.585ZM269.02 120.815H267.685V128H269.02V120.815ZM268.345 119.57C268.795 119.57 269.17 119.195 269.17 118.745C269.17 118.295 268.795 117.92 268.345 117.92C267.895 117.92 267.52 118.295 267.52 118.745C267.52 119.195 267.895 119.57 268.345 119.57ZM272.842 123.815C272.842 122.63 273.517 121.88 274.642 121.88C275.767 121.88 276.457 122.63 276.457 123.815V128H277.792V123.605C277.792 121.79 276.697 120.635 275.002 120.635C274.057 120.635 273.292 121.025 272.842 121.7V120.815H271.507V128H272.842V123.815ZM280.882 129.155L280.207 130.205C280.897 130.79 281.947 131.12 283.267 131.12C285.217 131.12 286.897 130.145 286.897 127.49V120.815H285.577V121.88C285.022 121.13 284.152 120.665 283.057 120.665C281.137 120.665 279.637 122.225 279.637 124.31C279.637 126.425 281.137 127.985 283.057 127.985C284.152 127.985 285.022 127.49 285.577 126.71V127.565C285.577 129.095 284.707 129.905 283.192 129.905C282.157 129.905 281.362 129.515 280.882 129.155ZM283.282 126.74C281.947 126.74 280.972 125.645 280.972 124.295C280.972 122.96 281.947 121.88 283.282 121.88C284.617 121.88 285.577 122.96 285.577 124.295C285.577 125.645 284.617 126.74 283.282 126.74ZM295.982 128.18C297.137 128.18 298.157 127.745 298.742 127.115L298.037 126.2C297.557 126.68 296.837 126.995 296.027 126.995C294.662 126.995 293.717 126.035 293.567 124.745H299.267C299.297 124.64 299.312 124.445 299.312 124.265C299.312 122.24 297.782 120.635 295.772 120.635C293.732 120.635 292.217 122.315 292.217 124.4C292.217 126.485 293.792 128.18 295.982 128.18ZM295.787 121.775C296.912 121.775 297.737 122.525 297.947 123.86H293.597C293.792 122.66 294.617 121.775 295.787 121.775ZM301.148 128H302.483V117.68H301.148V128ZM306.305 120.815H304.97V128H306.305V120.815ZM305.63 119.57C306.08 119.57 306.455 119.195 306.455 118.745C306.455 118.295 306.08 117.92 305.63 117.92C305.18 117.92 304.805 118.295 304.805 118.745C304.805 119.195 305.18 119.57 305.63 119.57ZM307.981 122H309.166V125.84C309.166 127.385 309.976 128.18 311.326 128.18C312.121 128.18 312.721 127.895 313.051 127.565L312.436 126.56C312.226 126.8 311.866 126.935 311.506 126.935C310.861 126.935 310.516 126.56 310.516 125.795V122H312.541V120.815H310.501V119.03H309.181V120.815H307.981V122ZM315.536 126.38H314.036L313.241 129.785H314.351L315.536 126.38ZM134.13 138.63C134.13 138.105 134.64 137.715 135.45 137.715C136.23 137.715 136.815 137.94 137.295 138.54L138.09 137.745C137.595 137.04 136.65 136.635 135.42 136.635C133.74 136.635 132.825 137.58 132.825 138.63C132.825 141.18 136.89 140.43 136.89 142.065C136.89 142.68 136.395 143.1 135.495 143.1C134.55 143.1 133.8 142.74 133.305 142.14L132.525 143.01C133.095 143.715 134.085 144.18 135.405 144.18C137.205 144.18 138.21 143.25 138.21 142.035C138.21 139.38 134.13 140.175 134.13 138.63ZM143.31 144.18C144.465 144.18 145.485 143.745 146.07 143.115L145.365 142.2C144.885 142.68 144.165 142.995 143.355 142.995C141.99 142.995 141.045 142.035 140.895 140.745H146.595C146.625 140.64 146.64 140.445 146.64 140.265C146.64 138.24 145.11 136.635 143.1 136.635C141.06 136.635 139.545 138.315 139.545 140.4C139.545 142.485 141.12 144.18 143.31 144.18ZM143.115 137.775C144.24 137.775 145.065 138.525 145.275 139.86H140.925C141.12 138.66 141.945 137.775 143.115 137.775ZM151.627 142.935C150.277 142.935 149.287 141.795 149.287 140.4C149.287 138.99 150.277 137.88 151.627 137.88C152.977 137.88 153.952 138.99 153.952 140.4C153.952 141.795 152.977 142.935 151.627 142.935ZM153.952 133.68V137.895C153.397 137.115 152.527 136.635 151.432 136.635C149.422 136.635 147.952 138.27 147.952 140.4C147.952 142.575 149.482 144.18 151.432 144.18C152.527 144.18 153.397 143.67 153.952 142.875V144H155.287V133.68H153.952ZM164.28 142.935C162.93 142.935 161.94 141.795 161.94 140.4C161.94 138.99 162.93 137.88 164.28 137.88C165.63 137.88 166.605 138.99 166.605 140.4C166.605 141.795 165.63 142.935 164.28 142.935ZM166.605 133.68V137.895C166.05 137.115 165.18 136.635 164.085 136.635C162.075 136.635 160.605 138.27 160.605 140.4C160.605 142.575 162.135 144.18 164.085 144.18C165.18 144.18 166.05 143.67 166.605 142.875V144H167.94V133.68H166.605ZM173.579 144.18C175.649 144.18 177.254 142.485 177.254 140.4C177.254 138.315 175.649 136.635 173.579 136.635C171.524 136.635 169.919 138.315 169.919 140.4C169.919 142.485 171.524 144.18 173.579 144.18ZM173.594 142.935C172.244 142.935 171.254 141.795 171.254 140.4C171.254 138.99 172.244 137.88 173.594 137.88C174.944 137.88 175.919 138.99 175.919 140.4C175.919 141.795 174.944 142.935 173.594 142.935ZM185.81 144.18C186.965 144.18 187.985 143.745 188.57 143.115L187.865 142.2C187.385 142.68 186.665 142.995 185.855 142.995C184.49 142.995 183.545 142.035 183.395 140.745H189.095C189.125 140.64 189.14 140.445 189.14 140.265C189.14 138.24 187.61 136.635 185.6 136.635C183.56 136.635 182.045 138.315 182.045 140.4C182.045 142.485 183.62 144.18 185.81 144.18ZM185.615 137.775C186.74 137.775 187.565 138.525 187.775 139.86H183.425C183.62 138.66 184.445 137.775 185.615 137.775ZM192.311 136.815H190.976V144H192.311V136.815ZM191.636 135.57C192.086 135.57 192.461 135.195 192.461 134.745C192.461 134.295 192.086 133.92 191.636 133.92C191.186 133.92 190.811 134.295 190.811 134.745C190.811 135.195 191.186 135.57 191.636 135.57ZM196.013 136.815H194.678V140.895C194.678 142.845 195.938 144.135 197.858 144.135C199.793 144.135 201.068 142.845 201.068 140.895V136.815H199.733V140.79C199.733 142.05 198.998 142.89 197.858 142.89C196.748 142.89 196.013 142.05 196.013 140.79V136.815ZM204.293 138.63C204.293 138.105 204.803 137.715 205.613 137.715C206.393 137.715 206.978 137.94 207.458 138.54L208.253 137.745C207.758 137.04 206.813 136.635 205.583 136.635C203.903 136.635 202.988 137.58 202.988 138.63C202.988 141.18 207.053 140.43 207.053 142.065C207.053 142.68 206.558 143.1 205.658 143.1C204.713 143.1 203.963 142.74 203.468 142.14L202.688 143.01C203.258 143.715 204.248 144.18 205.568 144.18C207.368 144.18 208.373 143.25 208.373 142.035C208.373 139.38 204.293 140.175 204.293 138.63ZM211.569 139.815C211.569 138.63 212.214 137.88 213.294 137.88C214.359 137.88 215.019 138.63 215.019 139.815V144H216.339V139.815C216.339 138.63 216.999 137.88 218.079 137.88C219.144 137.88 219.789 138.63 219.789 139.815V144H221.124V139.605C221.124 137.76 220.044 136.635 218.379 136.635C217.224 136.635 216.429 137.25 216.039 138.09C215.604 137.175 214.764 136.635 213.639 136.635C212.724 136.635 212.004 137.055 211.569 137.715V136.815H210.234V144H211.569V139.815ZM226.638 144.18C228.708 144.18 230.313 142.485 230.313 140.4C230.313 138.315 228.708 136.635 226.638 136.635C224.583 136.635 222.978 138.315 222.978 140.4C222.978 142.485 224.583 144.18 226.638 144.18ZM226.653 142.935C225.303 142.935 224.313 141.795 224.313 140.4C224.313 138.99 225.303 137.88 226.653 137.88C228.003 137.88 228.978 138.99 228.978 140.4C228.978 141.795 228.003 142.935 226.653 142.935ZM235.441 142.935C234.091 142.935 233.101 141.795 233.101 140.4C233.101 138.99 234.091 137.88 235.441 137.88C236.791 137.88 237.766 138.99 237.766 140.4C237.766 141.795 236.791 142.935 235.441 142.935ZM237.766 133.68V137.895C237.211 137.115 236.341 136.635 235.246 136.635C233.236 136.635 231.766 138.27 231.766 140.4C231.766 142.575 233.296 144.18 235.246 144.18C236.341 144.18 237.211 143.67 237.766 142.875V144H239.101V133.68H237.766ZM244.133 138H245.318V141.84C245.318 143.385 246.128 144.18 247.478 144.18C248.273 144.18 248.873 143.895 249.203 143.565L248.588 142.56C248.378 142.8 248.018 142.935 247.658 142.935C247.013 142.935 246.668 142.56 246.668 141.795V138H248.693V136.815H246.653V135.03H245.333V136.815H244.133V138ZM253.572 144.18C254.727 144.18 255.747 143.745 256.332 143.115L255.627 142.2C255.147 142.68 254.427 142.995 253.617 142.995C252.252 142.995 251.307 142.035 251.157 140.745H256.857C256.887 140.64 256.902 140.445 256.902 140.265C256.902 138.24 255.372 136.635 253.362 136.635C251.322 136.635 249.807 138.315 249.807 140.4C249.807 142.485 251.382 144.18 253.572 144.18ZM253.377 137.775C254.502 137.775 255.327 138.525 255.537 139.86H251.187C251.382 138.66 252.207 137.775 253.377 137.775ZM260.074 139.815C260.074 138.63 260.719 137.88 261.799 137.88C262.864 137.88 263.524 138.63 263.524 139.815V144H264.844V139.815C264.844 138.63 265.504 137.88 266.584 137.88C267.649 137.88 268.294 138.63 268.294 139.815V144H269.629V139.605C269.629 137.76 268.549 136.635 266.884 136.635C265.729 136.635 264.934 137.25 264.544 138.09C264.109 137.175 263.269 136.635 262.144 136.635C261.229 136.635 260.509 137.055 260.074 137.715V136.815H258.739V144H260.074V139.815ZM272.008 136.815V146.94H273.343V142.95C273.898 143.715 274.768 144.18 275.848 144.18C277.858 144.18 279.343 142.545 279.343 140.415C279.343 138.24 277.798 136.635 275.848 136.635C274.768 136.635 273.898 137.13 273.343 137.91V136.815H272.008ZM275.683 137.88C277.033 137.88 278.008 139.02 278.008 140.415C278.008 141.825 277.033 142.935 275.683 142.935C274.318 142.935 273.343 141.825 273.343 140.415C273.343 139.02 274.318 137.88 275.683 137.88ZM284.458 144.18C286.528 144.18 288.133 142.485 288.133 140.4C288.133 138.315 286.528 136.635 284.458 136.635C282.403 136.635 280.798 138.315 280.798 140.4C280.798 142.485 282.403 144.18 284.458 144.18ZM284.473 142.935C283.123 142.935 282.133 141.795 282.133 140.4C282.133 138.99 283.123 137.88 284.473 137.88C285.823 137.88 286.798 138.99 286.798 140.4C286.798 141.795 285.823 142.935 284.473 142.935ZM291.445 139.86C291.445 138.66 291.985 137.91 292.855 137.91C293.2 137.91 293.545 138.03 293.785 138.195L294.34 136.95C294.085 136.74 293.695 136.635 293.245 136.635C292.45 136.635 291.835 137.055 291.445 137.715V136.815H290.11V144H291.445V139.86ZM295.371 144.135C295.896 144.135 296.316 143.73 296.316 143.22C296.316 142.71 295.896 142.275 295.371 142.275C294.876 142.275 294.456 142.71 294.456 143.22C294.456 143.73 294.876 144.135 295.371 144.135Z" fill="#3F4246"/>
<path d="M42.4005 105.573C41.6607 106.872 40.1397 107.476 38.6921 107.102C37.6472 106.833 36.4873 106.764 35.3399 106.997C31.9399 107.686 29.8694 111.165 30.6057 114.798C31.3419 118.432 34.611 120.868 38.3201 120.115C39.3191 119.913 40.3036 119.457 41.1279 118.825C42.3193 117.912 43.9563 117.856 45.1627 118.75C46.9139 120.046 46.9734 122.674 45.2497 124.007C43.6936 125.21 41.6843 126.073 39.1876 126.579C31.8855 128.061 25.2165 123.337 23.7672 116.185C22.318 109.034 26.8997 102.068 33.9701 100.634C36.4609 100.128 38.6019 100.166 40.4277 100.61C42.5384 101.122 43.5737 103.511 42.4988 105.4L42.4005 105.573Z" fill="#FFA100"/>
<path d="M46.9933 102.216C46.6217 100.011 48.3102 97.9594 50.6176 98.0305C52.1611 98.0781 53.5235 99.1449 53.941 100.633C54.5651 102.856 52.9798 104.99 50.7513 105.159C48.945 105.296 47.2946 104.003 46.9933 102.216ZM53.4318 125.577C51.692 125.789 50.1097 124.55 49.8974 122.81L48.3794 110.359C48.1672 108.619 49.4055 107.036 51.1452 106.823C52.885 106.611 54.4672 107.85 54.6796 109.59L56.1976 122.041C56.4099 123.781 55.1716 125.365 53.4318 125.577Z" fill="#00DAE4"/>
<path d="M62.5181 121.835H62.0056C60.3944 121.835 59.0884 120.528 59.0884 118.916V105.861C59.0884 104.249 60.3944 102.942 62.0056 102.942H62.5181C64.1293 102.942 65.4353 104.249 65.4353 105.861C66.3421 103.81 67.8795 102.351 69.9293 102.351C69.9428 102.351 69.9561 102.351 69.9694 102.351C71.6601 102.36 72.7783 104.118 72.1049 105.67L71.4328 107.218C70.9784 108.265 69.849 108.814 68.7308 108.587C68.463 108.533 68.1894 108.504 67.9187 108.504C66.4207 108.504 65.4351 109.726 65.4351 111.62V118.916C65.4353 120.528 64.1293 121.835 62.5181 121.835Z" fill="#FF5E00"/>
<path d="M81.3764 111.568C78.9324 111.568 77.3554 113.343 77.3554 115.67C77.3554 117.957 78.9716 119.732 81.3764 119.732C82.2177 119.732 82.9475 119.584 83.6065 119.305C84.8741 118.769 86.3441 119.219 87.1164 120.359L87.1326 120.383C88.1324 121.859 87.581 123.88 85.969 124.64C84.5914 125.29 82.9412 125.688 81.2187 125.688C75.5025 125.688 71.0085 121.192 71.0085 115.67C71.0085 110.108 75.5419 105.612 81.061 105.612C82.9302 105.612 84.5536 105.964 85.931 106.583C87.6439 107.354 88.1415 109.558 86.9698 111.027L86.8815 111.137C86.0817 112.14 84.7193 112.448 83.5348 111.957C82.9041 111.696 82.2044 111.568 81.3764 111.568Z" fill="#00DAE4"/>
<path d="M92.5656 94C94.3182 94 95.739 95.4216 95.739 97.1751V117.961C95.739 119.715 94.3182 121.136 92.5656 121.136C90.813 121.136 89.3921 119.715 89.3921 117.961V97.1751C89.3921 95.4216 90.8128 94 92.5656 94Z" fill="#FF5E00"/>
<path d="M107.684 145.406H35.6266C31.4445 145.406 28.0541 142.014 28.0541 137.829C28.0541 133.645 31.4445 130.253 35.6266 130.253H107.684C111.866 130.253 115.257 133.645 115.257 137.829C115.256 142.014 111.866 145.406 107.684 145.406Z" fill="#3620A5"/>
<path d="M98.0076 118.642C96.7464 113.225 99.835 107.889 105.21 106.636C110.585 105.383 115.662 108.411 116.923 113.828C116.925 113.835 116.927 113.843 116.928 113.851C117.172 114.9 116.513 115.948 115.464 116.193L104.777 118.684C105.67 120.257 107.35 121.04 109.385 120.566C110.17 120.383 110.819 120.048 111.359 119.621C112.384 118.811 113.835 118.832 114.836 119.67C116.157 120.777 116.159 122.822 114.824 123.911C113.684 124.84 112.195 125.621 110.415 126.036C104.58 127.396 99.2599 124.019 98.0076 118.642ZM104.016 114.892L110.159 113.46C109.275 111.925 107.953 111.463 106.533 111.794C105.035 112.144 104.175 113.316 104.016 114.892Z" fill="#FFA100"/>
<path d="M38.392 134.801C38.392 134.46 38.6678 134.184 39.0083 134.184H41.0567C42.9208 134.184 44.156 135.191 44.156 136.724C44.156 138.28 42.9208 139.299 41.0452 139.299H40.279V140.574C40.279 141.096 39.8566 141.518 39.3355 141.518C38.8144 141.518 38.392 141.096 38.392 140.574V134.801ZM40.279 135.843V137.639H41.2053C41.7772 137.639 42.1546 137.273 42.1546 136.724C42.1546 136.198 41.7772 135.843 41.2053 135.843H40.279V135.843Z" fill="#E6E7E8"/>
<path d="M49.96 134.184C50.4811 134.184 50.9035 134.607 50.9035 135.128V138.338C50.9035 139.219 51.4067 139.802 52.1729 139.802C52.9164 139.802 53.4081 139.23 53.4081 138.349V135.128C53.4081 134.607 53.8305 134.184 54.3516 134.184C54.8727 134.184 55.2951 134.607 55.2951 135.128V138.383C55.2951 140.374 54.037 141.69 52.1386 141.69C50.263 141.69 49.0164 140.374 49.0164 138.383V135.128C49.0164 134.607 49.4388 134.184 49.96 134.184Z" fill="#E6E7E8"/>
<path d="M63.6088 135.957H61.3272C60.8378 135.957 60.441 135.56 60.441 135.071C60.441 134.581 60.8378 134.184 61.3272 134.184H64.7767C65.4897 134.184 66.0677 134.762 66.0677 135.476C66.0677 135.786 65.9557 136.087 65.7521 136.322L62.7854 139.745H65.2958C65.7852 139.745 66.182 140.142 66.182 140.632C66.182 141.121 65.7852 141.518 65.2958 141.518H61.6175C60.9045 141.518 60.3265 140.94 60.3265 140.227C60.3265 139.916 60.4385 139.616 60.6421 139.381L63.6088 135.957Z" fill="#E6E7E8"/>
<path d="M74.2674 135.957H71.9858C71.4964 135.957 71.0995 135.56 71.0995 135.071C71.0995 134.581 71.4964 134.184 71.9858 134.184H75.4353C76.1483 134.184 76.7263 134.762 76.7263 135.476C76.7263 135.786 76.6143 136.087 76.4107 136.322L73.444 139.745H75.9543C76.4438 139.745 76.8406 140.142 76.8406 140.632C76.8406 141.121 76.4438 141.518 75.9543 141.518H72.276C71.5631 141.518 70.985 140.94 70.985 140.227C70.985 139.916 71.0971 139.616 71.3007 139.381L74.2674 135.957Z" fill="#E6E7E8"/>
<path d="M82.8155 134.184H82.9298C83.4193 134.184 83.8161 134.581 83.8161 135.071V139.359C83.8161 139.572 83.9889 139.745 84.2021 139.745H86.2577C86.7471 139.745 87.144 140.142 87.144 140.632C87.144 141.121 86.7471 141.518 86.2577 141.518H82.5155C82.1915 141.518 81.9289 141.256 81.9289 140.932V135.071C81.9291 134.581 82.3259 134.184 82.8155 134.184Z" fill="#E6E7E8"/>
<path d="M92.6046 134.184H95.9328C96.4222 134.184 96.8191 134.581 96.8191 135.071C96.8191 135.56 96.4222 135.957 95.9328 135.957H93.8341V136.919H95.4752C95.9646 136.919 96.3615 137.316 96.3615 137.805C96.3615 138.295 95.9646 138.692 95.4752 138.692H93.8341V139.745H95.9328C96.4222 139.745 96.8191 140.142 96.8191 140.631C96.8191 141.121 96.4222 141.518 95.9328 141.518H92.6046C92.2415 141.518 91.9473 141.224 91.9473 140.86V134.841C91.9473 134.478 92.2417 134.184 92.6046 134.184Z" fill="#E6E7E8"/>
<path d="M106.645 136.001C106.331 136.315 105.843 136.352 105.473 136.107C105.179 135.913 104.818 135.786 104.413 135.786C103.944 135.786 103.715 135.969 103.715 136.232C103.715 137.182 107.295 136.747 107.295 139.31C107.295 140.672 106.094 141.69 104.367 141.69C103.379 141.69 102.675 141.458 102.171 141.119C101.684 140.791 101.634 140.091 102.062 139.689L102.094 139.658C102.415 139.356 102.898 139.335 103.262 139.582C103.594 139.808 103.977 139.916 104.402 139.916C104.973 139.916 105.271 139.733 105.271 139.39C105.271 138.395 101.691 138.864 101.691 136.278C101.691 134.962 102.869 134.012 104.493 134.012C105.287 134.012 105.97 134.227 106.504 134.582C106.988 134.903 107.057 135.589 106.645 136.001Z" fill="#E6E7E8"/>
<path fill-rule="evenodd" clip-rule="evenodd" d="M36.1049 98.4077C27.6967 98.4077 20.8796 105.227 20.8796 113.641C20.8796 114.16 20.4588 114.581 19.9398 114.581C19.4208 114.581 19 114.16 19 113.641C19 104.19 26.6577 96.5281 36.1049 96.5281C36.6239 96.5281 37.0447 96.9488 37.0447 97.4679C37.0447 97.9869 36.6239 98.4077 36.1049 98.4077Z" fill="#7A6CC4"/>
<path fill-rule="evenodd" clip-rule="evenodd" d="M118.188 110.02C116.091 104.822 110.179 102.31 104.984 104.408C104.503 104.602 103.955 104.37 103.761 103.889C103.566 103.407 103.799 102.86 104.28 102.665C110.438 100.178 117.446 103.156 119.931 109.317C120.126 109.798 119.893 110.346 119.412 110.54C118.93 110.734 118.383 110.502 118.188 110.02Z" fill="#7A6CC4"/>
<path fill-rule="evenodd" clip-rule="evenodd" d="M70.5961 122.474C71.0284 122.186 71.6117 122.304 71.8989 122.736C73.5832 125.271 76.208 126.804 79.0059 127.178C79.5204 127.247 79.8815 127.72 79.8127 128.235C79.7438 128.749 79.2709 129.11 78.7564 129.041C75.4444 128.598 72.3297 126.781 70.3334 123.777C70.0462 123.344 70.1638 122.761 70.5961 122.474Z" fill="#7A6CC4"/>
<path d="M199 190C199 181.163 206.163 174 215 174H341V200C341 208.837 333.837 216 325 216H199V190Z" fill="#FF960A"/>
<g clip-path="url(#clip0_3_579)">
<path d="M233.661 195.232C235.08 195.984 235.08 198.016 233.661 198.768L222.936 204.446C221.604 205.151 220 204.185 220 202.678L220 191.322C220 189.815 221.604 188.849 222.936 189.554L233.661 195.232Z" fill="#3620A5"/>
<path d="M245.08 201.5H248.05V198.008H249.256C252.208 198.008 254.152 196.406 254.152 193.958C254.152 191.546 252.208 189.962 249.274 189.962H245.08V201.5ZM249.508 192.572C250.408 192.572 251.002 193.13 251.002 193.958C251.002 194.822 250.408 195.398 249.508 195.398H248.05V192.572H249.508ZM255.682 201.5H258.58V189.116H255.682V201.5ZM266.526 201.5H269.424V192.878H266.526V193.598C266.022 192.968 265.284 192.608 264.33 192.608C261.972 192.608 260.244 194.552 260.244 197.198C260.244 199.97 262.134 201.77 264.33 201.77C265.284 201.77 266.004 201.356 266.526 200.69V201.5ZM264.834 199.052C263.862 199.052 263.142 198.242 263.142 197.198C263.142 196.136 263.862 195.326 264.834 195.326C265.806 195.326 266.526 196.136 266.526 197.198C266.526 198.242 265.806 199.052 264.834 199.052ZM273.849 192.878H270.645L274.623 201.644C274.335 202.31 273.975 202.58 273.453 202.58C272.985 202.58 272.481 202.4 272.049 201.986L270.771 204.254C271.365 204.812 272.355 205.298 273.471 205.298C275.037 205.298 276.369 204.506 277.161 202.238L280.455 192.878H277.539L275.883 197.864L273.849 192.878ZM292.871 201.5H296.057V189.962H293.087V196.64L288.857 189.962H285.671V201.5H288.641V194.93L292.871 201.5ZM302.398 201.77C304.918 201.77 306.988 199.718 306.988 197.198C306.988 194.66 304.918 192.608 302.398 192.608C299.878 192.608 297.808 194.66 297.808 197.198C297.808 199.718 299.878 201.77 302.398 201.77ZM302.398 199.052C301.426 199.052 300.706 198.242 300.706 197.198C300.706 196.136 301.426 195.326 302.398 195.326C303.37 195.326 304.09 196.136 304.09 197.198C304.09 198.242 303.37 199.052 302.398 199.052ZM318.617 192.878L317.429 198.404L316.097 192.878H312.983L311.705 198.35L310.571 192.878H307.475L310.013 201.5H313.271L314.387 196.496L315.557 201.5H319.175L321.713 192.878H318.617Z" fill="#3620A5"/>
</g>
<defs>
<clipPath id="clip0_3_579">
<rect width="116" height="30" fill="white" transform="translate(220 182)"/>
</clipPath>
</defs>
</svg>
