<svg width="375" height="306" viewBox="0 0 375 306" fill="none" xmlns="http://www.w3.org/2000/svg">
<path d="M432 298H311C314.345 290.54 323.243 277.404 331.068 275.619C341.398 273.263 349.956 275.619 353.498 280.331C354.973 269.435 359.4 257.64 373.566 259.128C382.538 260.07 390.289 273.459 390.093 280.331C395.405 276.208 408.39 269.494 417.834 275.619C427.278 281.744 431.213 293.092 432 298Z" fill="#6BD7E1"/>
<path d="M71 27H-13C-10.678 21.8351 -4.50089 12.7409 0.931707 11.5054C8.10244 9.87449 14.0439 11.5054 16.5024 14.7674C17.5268 7.2239 20.6 -0.941605 30.4341 0.088324C36.6624 0.740613 42.0439 10.0102 41.9073 14.7674C45.5951 11.9131 54.6098 7.26474 61.1659 11.5054C67.722 15.746 70.4537 23.6021 71 27Z" fill="#6BD7E1"/>
<path d="M69 306H-52C-48.6553 298.54 -39.7572 285.404 -31.9317 283.619C-21.6024 281.263 -13.0439 283.619 -9.50244 288.331C-8.02683 277.435 -3.6 265.64 10.5658 267.128C19.5376 268.07 27.2894 281.459 27.0927 288.331C32.4049 284.208 45.3902 277.494 54.8341 283.619C64.278 289.744 68.213 301.092 69 306Z" fill="#6BD7E1"/>
</svg>
