<svg width="29" height="29" viewBox="0 0 29 29" fill="none" xmlns="http://www.w3.org/2000/svg">
<g clip-path="url(#clip0_7_122786)">
<path d="M24.7812 0H3.58391C1.63552 0 0.0510254 1.5845 0.0510254 3.53288V24.7302C0.0510254 26.6786 1.63552 28.2631 3.58391 28.2631H14.1826V18.5476H10.6497V14.1315H14.1826V10.5987C14.1826 7.67166 16.5549 5.29933 19.4819 5.29933H23.0148V9.71543H21.2483C20.2733 9.71543 19.4819 9.62358 19.4819 10.5987V14.1315H23.898L22.1315 18.5476H19.4819V28.2631H24.7812C26.7296 28.2631 28.3141 26.6786 28.3141 24.7302V3.53288C28.3141 1.5845 26.7296 0 24.7812 0Z" fill="#FF960A"/>
</g>
<defs>
<clipPath id="clip0_7_122786">
<rect width="28.2631" height="28.2631" fill="white" transform="translate(0.0510254)"/>
</clipPath>
</defs>
</svg>
