<svg width="30" height="36" viewBox="0 0 30 36" fill="none" xmlns="http://www.w3.org/2000/svg">
<g clip-path="url(#clip0_3_569)">
<path d="M27.6061 5.29343L9.47613 0.435514C8.57847 0.194986 7.65663 0.72452 7.41716 1.61826L0.433599 27.6813C0.194121 28.575 0.727686 29.4945 1.62535 29.735L19.7554 34.593C20.653 34.8335 21.5749 34.3039 21.8143 33.4102L28.7979 7.34721C29.0374 6.45347 28.5038 5.53396 27.6061 5.29343Z" fill="#6A3FD1"/>
<path d="M27.0334 6.99779L9.09668 2.19165L3.01889 24.8743L20.9557 29.6804L27.0334 6.99779Z" fill="white"/>
<path d="M11.1798 30.341C11.6236 30.4599 12.0794 30.1981 12.1978 29.7562C12.3162 29.3143 12.0524 28.8597 11.6086 28.7407C11.1647 28.6218 10.7089 28.8836 10.5905 29.3255C10.4721 29.7674 10.7359 30.2221 11.1798 30.341Z" fill="white"/>
<path d="M13.4173 15.1451L16.0128 24.7154L6.38436 22.1354L13.4173 15.1451Z" fill="#F4AEE4"/>
<ellipse cx="20.1141" cy="12.3883" rx="3.09889" ry="3.07727" transform="rotate(15 20.1141 12.3883)" fill="#F4AEE4"/>
</g>
<defs>
<clipPath id="clip0_3_569">
<rect width="22.135" height="30.3331" fill="white" transform="translate(7.85077) rotate(15)"/>
</clipPath>
</defs>
</svg>
