<svg width="106" height="88" viewBox="0 0 106 88" fill="none" xmlns="http://www.w3.org/2000/svg">
<path d="M15.1039 0V52.8266L41.5885 26.4107L15.1039 0Z" fill="#FF4C00"/>
<path d="M15.1039 52.8267H68.0731L41.5885 26.4109L15.1039 52.8267Z" fill="#FFDF58"/>
<path d="M41.5887 26.4105L50.4169 35.2192V17.6069L41.5887 26.4105Z" fill="#2AD4DD"/>
<path d="M68.0651 0L50.4087 17.6071H68.0651V0Z" fill="#2AD4DD"/>
<path d="M50.4087 35.2195L68.0651 52.8266V35.2195H50.4087Z" fill="#2AD4DD"/>
<path d="M103.392 17.6071H85.7302V0H68.0738V17.6071H50.4174V35.2194H68.0738V52.8266H85.7302V35.2194H103.392V17.6071Z" fill="#4A25AA"/>
<path d="M36.3988 69.9279H38.725V66.5454H42.0606V69.9279H45.6164V72.8709H42.0861V83.0336C42.0861 84.2599 42.6037 84.8628 43.5925 84.8628C44.192 84.8628 44.7966 84.592 45.1245 84.2088L46.6309 86.692C45.8931 87.4022 44.6634 88 43.0494 88C40.3953 88 38.6994 86.3343 38.6994 83.146V72.8709H36.4039V69.9279H36.3988Z" fill="#FF4C00"/>
<path d="M3.42265 73.7396V85.8592H0V68.3645H3.91454L9.4994 77.0454L15.0843 68.3645H18.5889V85.8592H15.1663V73.6885L9.28421 82.5585L3.42265 73.7396Z" fill="#FF4C00"/>
<path d="M31.229 84.4388C30.2709 85.5577 28.9284 86.2424 27.2325 86.2424C23.7586 86.2424 20.9354 83.4015 20.9354 79.3395C20.9354 75.3848 23.5895 72.406 27.2325 72.406C28.9541 72.406 30.2965 73.0345 31.229 74.0972V72.7892H34.5953V85.8592H31.229V84.4388ZM31.229 79.3089C31.229 77.2089 29.779 75.5432 27.7807 75.5432C25.7569 75.5432 24.2761 77.2089 24.2761 79.3089C24.2761 81.4089 25.7517 83.1001 27.7807 83.1001C29.779 83.1001 31.229 81.4089 31.229 79.3089Z" fill="#FF4C00"/>
<path d="M50.771 82.7732H47.4303V67.082H50.771V74.0666C51.5908 73.0039 52.8512 72.401 54.4652 72.401C57.5035 72.401 59.4454 74.5316 59.4454 77.9396V85.8541H56.1047V78.4352C56.1047 76.6622 55.0647 75.5433 53.4507 75.5433C51.7803 75.5433 50.771 76.6622 50.771 78.4352V82.7732Z" fill="#FF4C00"/>
<path d="M66.588 71.5579V85.8592H63.1653V71.5579H57.9647V68.3645H71.8142V71.5579H66.588Z" fill="#FF4C00"/>
<path d="M79.9146 84.4388C78.9565 85.5577 77.614 86.2424 75.9181 86.2424C72.4442 86.2424 69.621 83.4015 69.621 79.3395C69.621 75.3848 72.2751 72.406 75.9181 72.406C77.6396 72.406 78.9821 73.0345 79.9146 74.0972V72.7892H83.2809V85.8592H79.9146V84.4388ZM79.9146 79.3089C79.9146 77.2089 78.4645 75.5432 76.4663 75.5432C74.4424 75.5432 72.9617 77.2089 72.9617 79.3089C72.9617 81.4089 74.4373 83.1001 76.4663 83.1001C78.4645 83.1001 79.9146 81.4089 79.9146 79.3089Z" fill="#FF4C00"/>
<path d="M86.3761 67.082H89.7168V85.8593H86.3761V67.082Z" fill="#FF4C00"/>
<path d="M93.2471 67.082H96.5878V77.5053H98.1762L101.542 72.7842H105.621L101.158 78.844L106 85.8593H101.814L98.2274 80.5352H96.5878V85.8593H93.2471V67.082Z" fill="#FF4C00"/>
</svg>
