<svg width="173" height="101" viewBox="0 0 173 101" fill="none" xmlns="http://www.w3.org/2000/svg">
<path d="M173 52.9742C172.722 53.9658 172.252 54.7643 171.413 55.2055C170.587 55.64 169.668 55.4898 169.153 54.8203C168.664 54.1832 168.632 53.1561 169.096 52.2685C169.559 51.3843 170.244 50.8449 171.153 50.7146C171.998 50.5932 172.586 51.0811 172.975 51.97C172.983 52.3047 172.992 52.6395 173 52.9742Z" fill="#12D4DE"/>
<path d="M137.588 21.2087C138.72 20.9046 139.784 20.6223 140.846 20.3328C147.2 18.5996 153.553 16.8644 159.908 15.1335C160.104 15.0802 160.307 15.0365 160.511 15.0369C161.546 15.0395 162.276 15.9895 162.109 17.1592C161.918 18.5003 161.26 19.4033 160.116 19.7166C152.819 21.7159 145.519 23.7016 138.215 25.6756C137.824 25.7813 137.682 25.9417 137.704 26.4465C137.782 28.2895 137.807 30.1309 137.853 31.9727C137.857 32.1599 137.862 32.3471 137.868 32.5934C138.482 32.4328 139.032 32.2941 139.58 32.145C147.055 30.1105 154.53 28.0747 162.004 26.039C162.017 26.0354 162.031 26.0316 162.044 26.0277C162.737 25.8153 163.418 25.8075 163.948 26.57C164.481 27.3379 164.402 28.1516 164.093 28.926C163.713 29.8807 163.061 30.4454 162.16 30.6897C154.576 32.7452 146.996 34.8151 139.414 36.88C138.205 37.2091 136.997 37.5393 135.786 37.8612C134.389 38.2326 133.485 37.3904 133.442 35.6805C133.268 28.6492 133.095 21.6177 132.922 14.5864C132.879 12.8316 133.717 11.5265 135.155 11.1344C141.496 9.40506 147.838 7.6806 154.18 5.95519C156.648 5.28362 159.119 4.6207 161.586 3.93989C162.219 3.76498 162.824 3.78364 163.319 4.41017C163.814 5.0384 163.844 5.77218 163.641 6.49841C163.327 7.62179 162.652 8.29827 161.661 8.56818C154.754 10.4487 147.848 12.3302 140.942 14.2115C139.879 14.5012 138.814 14.7843 137.755 15.0911C137.633 15.1266 137.457 15.2902 137.459 15.4051C137.487 17.307 137.539 19.2103 137.588 21.2087" fill="#FF5400"/>
<path d="M28.7496 62.5639C29.3521 62.4067 29.9009 62.269 30.4472 62.1202C37.8687 60.1 45.2899 58.0783 52.7114 56.0572C52.8823 56.0108 53.0529 55.9605 53.2262 55.9245C54.4881 55.6627 55.4473 56.8036 55.1574 58.2585C54.9067 59.5161 54.2325 60.3302 53.1376 60.6288C47.1994 62.248 41.2604 63.8637 35.3217 65.48C32.4704 66.256 29.6191 67.0324 26.7664 67.8029C26.5315 67.8663 26.2871 67.9202 26.0435 67.9181C25.1187 67.9104 24.4511 67.1917 24.3431 66.1099C24.3255 65.9343 24.3263 65.7575 24.3219 65.5814C24.1492 58.5827 23.9766 51.5842 23.8046 44.5855C23.7603 42.7864 24.5723 41.5111 26.0532 41.1072C34.8611 38.7043 43.6711 36.3092 52.4798 33.909C53.1087 33.7377 53.7196 33.7567 54.2106 34.3951C54.6993 35.0305 54.724 35.7622 54.5182 36.4858C54.21 37.5689 53.5676 38.2559 52.6067 38.5187C48.7086 39.5846 44.8085 40.6416 40.9094 41.7039C36.8399 42.8124 32.7719 43.9277 28.6988 45.0235C28.4044 45.1027 28.3133 45.2341 28.3247 45.5863C28.3843 47.4267 28.422 49.266 28.469 51.1782C29.3168 50.9516 30.1241 50.7396 30.9291 50.5202C37.5717 48.7094 44.2139 46.8978 50.8556 45.0842C51.4867 44.9119 52.0957 44.953 52.5888 45.5796C53.088 46.2142 53.1041 46.9431 52.8848 47.6635C52.5665 48.7096 51.9647 49.4234 51.0115 49.6837C43.6744 51.6877 36.3372 53.6917 28.9961 55.6806C28.6694 55.769 28.5741 55.9167 28.5874 56.308C28.6524 58.2146 28.6895 60.12 28.7363 62.0258C28.7403 62.182 28.744 62.3383 28.7496 62.5639" fill="#FF9700"/>
<path d="M10.0108 58.8867C10.5314 57.4546 11.0147 56.1282 11.4961 54.8005C12.6058 51.7395 13.7187 48.6802 14.8221 45.6156C15.2855 44.3284 16.0762 43.4968 17.2765 43.2105C18.4121 42.9396 19.3413 43.742 19.4691 45.1027C19.4826 45.2467 19.4879 45.3913 19.4916 45.5355C19.6689 52.7106 19.8469 59.8859 20.021 67.0608C20.063 68.7866 19.0992 70.256 17.7536 70.5438C16.5361 70.8043 15.5935 69.9141 15.5559 68.4484C15.4462 64.1879 15.3443 59.9279 15.2394 55.6675C15.2351 55.4977 15.2309 55.3279 15.2268 55.1581C15.1912 55.1403 15.1556 55.1224 15.12 55.1047C15.0465 55.2448 14.9555 55.3752 14.9023 55.5264C14.1014 57.7965 13.3038 60.0685 12.5089 62.3418C12.1266 63.4351 11.5195 64.2727 10.561 64.7234C9.35103 65.292 8.3275 64.8564 7.62573 63.4633C6.76992 61.7647 5.91842 60.0634 5.06373 58.3642C4.9944 58.2264 4.91477 58.0951 4.73768 57.9642C4.72362 58.1486 4.69364 58.3318 4.69794 58.5171C4.79858 62.7292 4.90559 66.9417 5.00546 71.1536C5.04537 72.8355 4.09719 74.2991 2.76765 74.6334C1.56461 74.9361 0.579694 74.0452 0.542766 72.5882C0.356323 65.2525 0.173796 57.917 0.00102535 50.5821C-0.045632 48.5953 1.50708 47.0035 3.21477 47.2416C3.87232 47.3332 4.3065 47.7874 4.64023 48.4392C6.02317 51.141 7.41304 53.8386 8.80085 56.5373C9.18707 57.2885 9.57421 58.039 10.0108 58.8866" fill="#7036E3"/>
<path d="M119.681 28.3836C120.942 28.0259 122.173 27.7699 123.339 27.3234C125.084 26.6554 126.155 25.2365 126.405 23.0387C126.705 20.4007 125.139 18.6655 122.899 19.1872C121.906 19.4185 120.933 19.7359 119.94 19.9704C119.585 20.054 119.466 20.2088 119.481 20.6485C119.56 23.0517 119.609 25.4536 119.668 27.8559C119.672 28.011 119.675 28.1659 119.681 28.3836ZM127.35 29.0337C128.587 31.014 129.81 32.9759 131.037 34.9347C132.288 36.9321 131.724 39.1568 129.79 39.8367C128.903 40.1486 128.105 39.7995 127.534 38.8403C126.177 36.5625 124.815 34.2882 123.474 31.9988C123.25 31.6168 123.071 31.4705 122.675 31.6066C121.85 31.8903 121.003 32.1044 120.156 32.3147C119.864 32.3871 119.775 32.5347 119.785 32.8855C119.854 35.1603 119.909 37.4344 119.958 39.7083C119.991 41.2411 119.149 42.6278 117.944 43.0566C116.616 43.5297 115.531 42.6104 115.49 40.9663C115.335 34.7843 115.184 28.6025 115.032 22.4206C115.007 21.4116 114.979 20.4025 114.958 19.3937C114.926 17.8721 115.831 16.4643 117.085 16.1165C119.078 15.5639 121.072 15.014 123.073 14.4904C124.166 14.2043 125.288 14.1625 126.425 14.4816C129.039 15.2157 130.692 17.5614 130.845 20.7457C131.007 24.1259 129.793 26.6799 127.7 28.7029C127.59 28.8099 127.477 28.9142 127.35 29.0337" fill="#FF9700"/>
<path d="M62.8733 47.2792C64.7835 46.758 66.6083 46.2602 68.4721 45.7517C67.4855 42.042 66.51 38.3745 65.5346 34.7069C65.4862 34.6911 65.4379 34.6752 65.3896 34.6594C65.3133 34.8226 65.2009 34.9734 65.1666 35.1512C64.6036 38.0752 64.0495 41.0022 63.496 43.9294C63.291 45.0132 63.0923 46.0992 62.8733 47.2792ZM69.5219 49.8092C68.5323 50.0748 67.588 50.3253 66.6454 50.5818C65.2145 50.9714 63.7864 51.3708 62.3535 51.7516C62.1057 51.8173 61.9742 51.9259 61.9184 52.2428C61.6528 53.7505 61.3669 55.2519 61.0689 56.7489C60.8231 57.9835 60.1668 58.807 59.1411 59.1983C58.5054 59.4409 57.864 59.3802 57.3071 58.793C56.7398 58.1948 56.5965 57.434 56.7485 56.6558C57.2055 54.3163 57.6923 51.9873 58.1732 49.6562C59.1789 44.7808 60.1803 39.9035 61.2007 35.0333C61.5488 33.3709 62.1391 31.8722 63.4163 30.9307C64.3917 30.2116 65.4968 29.8874 66.6795 29.8514C67.7025 29.8203 68.5163 30.359 68.9843 31.4509C69.3738 32.3594 69.6787 33.3186 69.9553 34.2758C71.5982 39.963 73.1955 45.6645 74.867 51.3427C75.423 53.2312 74.0132 55.5045 72.4082 55.5443C71.5519 55.5654 70.9322 55.065 70.6665 54.088C70.2861 52.6887 69.9163 51.2862 69.5219 49.8092" fill="#FF5400"/>
<path d="M95.347 32.2242C95.2844 29.6781 95.219 27.1318 95.1598 24.5861C95.1236 23.033 96.0372 21.6318 97.3054 21.2774C98.5298 20.9355 99.5483 21.8478 99.5867 23.343C99.7115 28.1952 99.813 33.0463 99.9615 37.8994C99.9866 38.7182 100.107 39.5764 100.345 40.363C100.784 41.8115 101.845 42.5362 103.117 42.4169C105.453 42.1979 107.141 40.4404 107.537 37.7641C107.633 37.1161 107.667 36.4406 107.652 35.7729C107.547 30.9379 107.419 26.1015 107.303 21.2656C107.266 19.6838 108.272 18.2236 109.584 17.9366C110.732 17.6851 111.67 18.5606 111.728 19.9451C111.748 20.4257 111.754 20.906 111.766 21.3862C111.876 25.854 112.041 30.3258 112.082 34.788C112.13 40.0973 110.176 43.9668 106.134 46.195C104.745 46.9607 103.241 47.3431 101.654 47.3482C98.7745 47.3578 96.5718 45.3325 95.8524 41.9637C95.665 41.0867 95.5674 40.177 95.5325 39.2863C95.4403 36.9309 95.4051 34.5779 95.347 32.224" fill="#7036E3"/>
<path d="M87.6365 28.9186C85.8179 28.9069 84.1153 29.1766 82.5991 30.1737C81.7697 30.7194 81.2579 31.5122 81.1363 32.5745C81.0104 33.6745 81.3947 34.4916 82.3945 34.8293C83.3366 35.1479 84.3238 35.3053 85.2923 35.5277C86.7084 35.853 88.1599 36.0503 89.5347 36.521C92.4069 37.5047 93.4936 39.6949 93.1997 42.8277C92.9546 45.4413 91.7954 47.5612 89.9864 49.2587C86.7691 52.2773 82.8704 53.226 78.6253 52.9336C77.0868 52.8277 76.3189 51.9096 76.1919 50.2798C76.1131 49.2706 76.0307 48.2458 76.1116 47.2474C76.2231 45.8673 77.2259 44.922 78.5303 44.7637C79.5006 44.6459 80.2873 45.2424 80.4707 46.2678C80.5644 46.7914 80.5873 47.3273 80.684 47.8504C80.7079 47.9802 80.8976 48.1813 81.0055 48.1804C82.9709 48.1661 84.8836 47.8986 86.5543 46.7479C87.5741 46.0456 88.2232 45.0677 88.2279 43.7053C88.2313 42.8033 87.8846 42.0337 87.0858 41.6999C86.1675 41.3159 85.1974 41.0586 84.2343 40.8309C82.8041 40.4928 81.3591 40.2355 79.9232 39.9283C79.6565 39.8712 79.3981 39.7511 79.1429 39.6408C77.1425 38.7759 76.1414 37.2544 76.0867 34.9929C76.0176 32.13 77.0272 29.7445 78.9714 27.8832C81.9599 25.0225 85.5615 23.8643 89.6236 24.2507C91.3125 24.4113 92.1037 25.3409 92.2251 27.1346C92.2847 28.0152 92.399 28.9133 92.3053 29.7758C92.1588 31.1248 90.9732 32.1296 89.6933 32.1677C88.8111 32.1939 88.1576 31.6577 87.9474 30.6956C87.8235 30.1292 87.7457 29.553 87.6365 28.9186Z" fill="#12D4DE"/>
<path d="M171.903 24.2426C172.086 31.6802 172.274 39.1179 172.449 46.5551C172.482 47.9401 171.831 48.8179 170.664 49.0574C169.768 49.2416 169.14 48.6793 169.109 47.6149C168.959 42.6248 168.817 37.6348 168.683 32.6454C168.482 25.1615 168.302 17.6786 168.085 10.1941C168.016 7.77578 167.892 5.35315 167.731 2.93262C167.608 1.09544 169.158 -0.080341 170.22 0.00428434C171.062 0.0713795 171.629 0.699237 171.635 1.67729C171.646 3.62135 171.608 5.562 171.64 7.50737C171.722 12.4778 171.831 17.45 171.93 22.4216C171.943 23.0299 171.96 23.6385 171.975 24.2469C171.951 24.2454 171.927 24.2441 171.903 24.2428" fill="#12D4DE"/>
<path d="M135.462 51.9402C135.466 52.1004 135.47 52.2607 135.474 52.4207C135.558 55.8285 135.614 59.2352 135.74 62.6448C135.79 63.9732 134.878 65.2366 133.802 65.5019C132.71 65.7712 131.925 65.0321 131.892 63.7129C131.75 57.9775 131.637 52.2433 131.452 46.5059C131.39 44.581 133.13 43.2899 134.528 43.6073C135.011 43.717 135.369 44.0529 135.671 44.513C137.824 47.784 139.983 51.0495 142.141 54.3166C142.219 54.4347 142.302 54.5486 142.474 54.6347C142.476 54.4775 142.485 54.3205 142.481 54.1629C142.394 50.5879 142.301 47.0123 142.22 43.4377C142.187 41.9771 143.356 40.643 144.587 40.7069C145.448 40.7516 146.006 41.3966 146.031 42.4008C146.177 48.2277 146.323 54.0546 146.461 59.881C146.504 61.7203 144.591 63.231 143.087 62.5287C142.783 62.3864 142.477 62.099 142.269 61.7931C140.135 58.6627 138.022 55.5146 135.902 52.3717C135.796 52.214 135.685 52.0602 135.576 51.9045C135.538 51.9165 135.5 51.9284 135.462 51.9403" fill="#4A1BAD"/>
<path d="M54.5234 75.7442C55.8848 75.2849 57.2889 75.1984 58.4759 74.4309C59.6928 73.6437 60.3932 72.4203 60.3378 70.6939C60.2928 69.2901 59.4747 68.3512 58.2692 68.2655C58.0484 68.2498 57.8196 68.244 57.6094 68.2947C56.6411 68.5278 55.6811 68.7953 54.7114 69.0221C54.4249 69.089 54.3554 69.2452 54.3655 69.5721C54.4241 71.4567 54.4642 73.3407 54.5107 75.2248C54.5143 75.3708 54.5178 75.5171 54.5234 75.7442ZM61.1642 76.1802C61.7029 76.9749 62.2542 77.7891 62.8066 78.6024C63.3617 79.4197 63.925 80.2302 64.4714 81.0549C65.0651 81.9507 65.0885 82.6975 64.5758 83.5685C64.2284 84.1589 63.7436 84.5419 63.1509 84.7418C62.4127 84.9905 61.7501 84.7053 61.259 83.9479C60.099 82.1596 58.9353 80.3746 57.7881 78.5759C57.5867 78.26 57.4169 78.1829 57.1036 78.2875C56.3919 78.5255 55.665 78.718 54.9353 78.8922C54.6647 78.9566 54.5977 79.0931 54.6076 79.4052C54.6649 81.2309 54.7127 83.0562 54.7451 84.8806C54.7708 86.321 53.5934 87.6477 52.3585 87.6029C51.5231 87.5725 50.9396 86.9266 50.9149 85.9602C50.767 80.1654 50.624 74.3706 50.4865 68.5763C50.4601 67.4667 51.1532 66.3122 52.1367 66.0347C54.2292 65.4444 56.3312 64.8785 58.4554 64.4201C59.5571 64.1825 60.6977 64.4266 61.7638 65.0695C63.4235 66.0705 64.3273 68.1094 64.1562 70.4123C63.9825 72.7512 62.953 74.4623 61.4615 75.8385C61.3827 75.9112 61.3009 75.9795 61.2234 76.0537C61.2054 76.0709 61.199 76.1037 61.1642 76.1802" fill="#4A1BAD"/>
<path d="M109.896 62.6207C108.9 62.8908 107.99 63.1375 107.079 63.3848C106.129 63.6431 105.183 63.9184 104.226 64.151C103.904 64.2294 103.797 64.381 103.81 64.7779C103.882 66.9847 103.932 69.1906 103.98 71.3963C104.012 72.8176 103.036 74.0737 101.826 74.1932C100.812 74.2933 100.172 73.6298 100.142 72.435C100.014 67.3078 99.8883 62.181 99.762 57.0539C99.7452 56.3693 99.7234 55.6844 99.7127 55.0002C99.6893 53.4961 100.862 52.1921 102.161 52.2705C102.976 52.3197 103.519 52.95 103.548 53.9237C103.607 55.9324 103.65 57.9402 103.7 59.9485C103.704 60.1287 103.709 60.3091 103.715 60.5488C103.889 60.5121 104.023 60.491 104.154 60.4557C105.902 59.9805 107.647 59.4918 109.401 59.037C109.731 58.9512 109.812 58.7844 109.799 58.4033C109.733 56.3944 109.689 54.3863 109.645 52.3785C109.611 50.8576 110.679 49.5784 111.981 49.5653C112.865 49.5563 113.452 50.1945 113.478 51.2231C113.626 57.0805 113.772 62.9379 113.91 68.7948C113.946 70.3148 112.664 71.6483 111.355 71.4855C110.599 71.3916 110.103 70.7769 110.077 69.8577C110.014 67.636 109.964 65.415 109.91 63.1939C109.906 63.0303 109.901 62.8667 109.896 62.6207" fill="#4A1BAD"/>
<path d="M161.482 49.615C160.848 49.7876 160.291 49.9516 159.727 50.0877C159.465 50.151 159.191 50.2087 158.921 50.185C158.127 50.1148 157.631 49.3754 157.767 48.4788C157.927 47.4236 158.485 46.7477 159.347 46.4836C160.722 46.0628 162.115 45.7012 163.507 45.3427C164.432 45.1045 165.052 45.7052 165.081 46.8303C165.133 48.838 165.159 50.8448 165.238 52.8537C165.293 54.2438 164.856 55.318 163.97 56.1144C162.06 57.8298 159.834 58.7411 157.377 59.0225C156.198 59.1577 155.027 59.0152 153.901 58.3802C152.444 57.5591 151.471 56.1879 151.046 54.457C149.634 48.6991 150.246 43.5446 153.821 39.4627C155.542 37.4979 157.795 36.6469 160.246 36.436C161.181 36.3555 162.154 36.3806 163.093 36.5664C164.561 36.8569 165.014 38.1126 164.231 39.4978C163.726 40.3903 162.971 40.7277 162.027 40.5411C161.086 40.355 160.151 40.2005 159.216 40.3729C156.745 40.8283 155.214 42.5015 154.569 45.2397C154.024 47.5509 153.975 49.9364 154.681 52.336C155.255 54.2823 156.472 55.204 158.182 55.0607C159.34 54.9637 160.389 54.5119 161.365 53.8657C161.461 53.8026 161.571 53.6543 161.569 53.5378C161.553 52.264 161.516 50.9887 161.482 49.615" fill="#4A1BAD"/>
<path d="M4.53782 87.5796C5.64998 87.2782 6.70872 86.9914 7.76729 86.7045C8.40442 86.5318 9.04098 86.3575 9.67867 86.1876C9.81584 86.1513 9.95525 86.1151 10.0969 86.106C11.1118 86.0416 11.7722 86.9989 11.463 88.108C11.196 89.0658 10.6158 89.6526 9.77011 89.8846C8.18366 90.3202 6.59779 90.7588 5.00629 91.1748C4.71528 91.251 4.62083 91.3948 4.63358 91.7484C4.68642 93.2246 4.71322 94.6997 4.74957 96.1752C4.75294 96.3099 4.75631 96.4449 4.76119 96.6475C4.93734 96.6104 5.07263 96.5891 5.20399 96.5533C7.21674 96.007 9.22894 95.4589 11.2413 94.9112C11.3288 94.8872 11.4161 94.8629 11.5038 94.8392C12.114 94.6739 12.7022 94.6878 13.1602 95.3619C13.5239 95.8968 13.4868 96.7088 13.0923 97.4045C12.761 97.989 12.3046 98.3835 11.7034 98.5475C8.79194 99.3419 5.88065 100.137 2.9675 100.925C2.76941 100.979 2.55879 101.006 2.35192 100.999C1.5512 100.972 0.994838 100.334 0.969163 99.4006C0.90171 96.9361 0.84531 94.4722 0.784592 92.0079C0.706446 88.8442 0.628674 85.6802 0.55073 82.5163C0.511369 80.9194 1.17342 79.8903 2.49751 79.5267C5.09549 78.8131 7.69608 78.1097 10.2957 77.4025C10.6332 77.3107 10.9673 77.2019 11.3101 77.1358C11.789 77.0434 12.2581 77.1079 12.6233 77.5904C12.9956 78.0823 13.0159 78.6433 12.8581 79.1905C12.5855 80.1353 11.9871 80.6686 11.1579 80.8933C9.04435 81.4655 6.93435 82.0507 4.8174 82.6094C4.51139 82.6901 4.40626 82.8273 4.42182 83.2067C4.47523 84.5003 4.49378 85.7928 4.52564 87.0858C4.5292 87.2319 4.53276 87.3779 4.53782 87.5796Z" fill="#4A1BAD"/>
<path d="M38.3002 78.3845C39.3417 78.1025 40.3247 77.8365 41.3078 77.57C42.0324 77.3738 42.7561 77.1748 43.4817 76.9825C43.6185 76.9463 43.7605 76.9182 43.9024 76.9162C44.9139 76.9018 45.525 77.8233 45.2177 78.9247C44.945 79.9018 44.3407 80.4738 43.4819 80.7068C41.9189 81.1307 40.359 81.5667 38.7919 81.974C38.4874 82.0532 38.3804 82.1925 38.395 82.5726C38.4516 84.0489 38.4759 85.5242 38.5125 86.9998C38.5157 87.1327 38.519 87.2658 38.5239 87.4609C38.7053 87.4192 38.8402 87.3932 38.9725 87.3572C41.048 86.7938 43.123 86.2282 45.1986 85.665C46.0268 85.4401 46.6 85.6225 46.9531 86.2176C47.2893 86.7842 47.2334 87.5806 46.8002 88.2941C46.4773 88.8262 46.0448 89.1921 45.486 89.3448C42.5496 90.1473 39.6141 90.9539 36.6738 91.7421C35.7346 91.994 35.021 91.5604 34.787 90.6363C34.7355 90.4322 34.7267 90.2126 34.7214 90.0015C34.5807 84.3878 34.4422 78.7744 34.305 73.1609C34.2728 71.8383 34.93 70.7178 36.0211 70.4107C39.0265 69.5653 42.042 68.7571 45.0573 67.9489C45.5452 67.8181 46.0304 67.9193 46.3993 68.422C46.7651 68.9198 46.7721 69.4817 46.6081 70.0251C46.3246 70.9651 45.7182 71.4845 44.8901 71.7077C42.8507 72.2571 40.8129 72.8126 38.7763 73.3722C38.1038 73.5569 38.1806 73.4033 38.1988 74.234C38.225 75.4356 38.2571 76.6374 38.2867 77.8392C38.2906 78.0001 38.2947 78.1613 38.3002 78.3844" fill="#4A1BAD"/>
<path d="M23.633 91.7486C23.671 91.603 23.7179 91.4604 23.7462 91.3113C24.7523 85.9895 25.7563 80.6672 26.7616 75.3454C26.8469 74.8934 26.9239 74.4378 27.0281 73.9932C27.2661 72.9789 28.1706 72.1616 29.0827 72.1157C30.1611 72.0612 30.8866 73.0462 30.6406 74.2565C30.21 76.3749 29.7651 78.4882 29.3251 80.6032C28.5716 84.225 27.8226 87.8484 27.0616 91.4676C26.5274 94.0089 25.0616 95.4731 22.9215 95.6346C21.4896 95.7426 20.5534 95.0277 20.0505 93.3796C19.5228 91.6504 19.0301 89.9094 18.5246 88.1726C17.6123 85.0379 16.7682 81.8791 15.7656 78.7768C15.1635 76.9132 16.6359 75.014 18.1344 75.1869C18.7897 75.2624 19.2291 75.6398 19.4281 76.386C20.6893 81.1125 21.944 85.8409 23.2018 90.5683C23.3062 90.9605 23.4173 91.3509 23.5254 91.742C23.5612 91.7443 23.5972 91.7465 23.633 91.7486" fill="#4A1BAD"/>
<path d="M120.495 51.1146C119.994 51.2501 119.509 51.383 119.022 51.5119C118.847 51.5583 118.672 51.6098 118.493 51.6343C117.404 51.7832 116.693 50.7959 117.033 49.5965C117.282 48.721 117.805 48.1362 118.572 47.9209C121.103 47.2099 123.643 46.5293 126.182 45.8468C126.703 45.7067 127.21 45.8063 127.594 46.3367C127.967 46.8503 127.958 47.4244 127.77 47.9793C127.485 48.8155 126.949 49.3355 126.198 49.5564C125.676 49.7098 125.144 49.8293 124.627 49.9995C124.519 50.035 124.385 50.2225 124.387 50.3475C124.486 54.8336 124.599 59.3208 124.711 63.8077C124.712 63.8501 124.733 63.8938 124.758 63.989C125.309 63.841 125.853 63.6838 126.403 63.5519C126.64 63.495 126.889 63.4464 127.133 63.4695C127.912 63.5434 128.427 64.2938 128.301 65.1825C128.153 66.2376 127.603 66.9484 126.74 67.1982C124.19 67.9365 121.623 68.6158 119.057 69.2989C118.556 69.4325 118.056 69.317 117.682 68.798C117.308 68.2803 117.319 67.7069 117.502 67.1543C117.785 66.3004 118.333 65.7689 119.095 65.538C119.603 65.3838 120.124 65.2724 120.628 65.1069C120.738 65.0709 120.881 64.8915 120.878 64.7701C120.778 60.2689 120.662 55.7667 120.548 51.2646C120.547 51.2369 120.529 51.2083 120.495 51.1146Z" fill="#4A1BAD"/>
<path d="M73.8555 69.5727C74.1619 68.7113 74.439 67.9392 74.7117 67.1648C75.5058 64.9082 76.2983 62.6509 77.0911 60.3937C77.4073 59.4935 77.8898 58.7935 78.7503 58.5566C78.8987 58.5157 79.0555 58.4955 79.2107 58.4925C80.3315 58.4704 80.9885 59.4155 80.686 60.6535C80.5715 61.1219 80.3766 61.559 80.2022 62.0006C78.772 65.6194 77.3361 69.2347 75.9108 72.8563C75.83 73.0617 75.7912 73.3122 75.7955 73.5458C75.8307 75.4011 75.8875 77.2576 75.9244 79.1129C75.9535 80.5703 74.7394 81.9102 73.4923 81.8196C72.6912 81.7615 72.1424 81.1294 72.1152 80.1973C72.0608 78.3411 72.0284 76.4858 71.966 74.6292C71.9576 74.3759 71.8731 74.0856 71.749 73.8653C70.0788 70.9026 68.3981 67.9473 66.7131 64.9953C66.3115 64.2917 66.2817 63.6029 66.5917 62.9231C66.9807 62.0698 67.61 61.5586 68.4317 61.369C69.1788 61.1963 69.8169 61.549 70.222 62.3514C71.3782 64.6413 72.5254 66.9369 73.6763 69.2302C73.7164 69.3101 73.7592 69.3887 73.8555 69.5727Z" fill="#4A1BAD"/>
<path d="M87.7016 60.0643C87.5031 60.1094 87.3665 60.1354 87.2325 60.1714C86.2066 60.4475 85.1829 60.7327 84.1546 61.0002C83.6279 61.1374 83.1251 61.0187 82.7468 60.4879C82.3626 59.9492 82.4099 59.3492 82.6149 58.8C82.9254 57.9687 83.4877 57.4623 84.2615 57.2531C87.1379 56.4756 90.0119 55.6898 92.887 54.9075C93.562 54.7238 94.2351 54.5325 94.9134 54.3619C95.4464 54.228 95.9662 54.2897 96.3606 54.8508C96.75 55.4051 96.7191 56.0089 96.5021 56.5789C96.1972 57.379 95.6585 57.8768 94.9142 58.0786C93.9137 58.3501 92.9174 58.6388 91.9111 58.8863C91.6011 58.9625 91.511 59.1102 91.5211 59.4844C91.6566 64.5207 91.7775 69.5563 91.9006 74.592C91.937 76.0795 91.0759 77.2685 89.8264 77.4636C88.8068 77.6227 88.1191 76.9479 88.0889 75.7454C87.9626 70.7096 87.8399 65.6738 87.7156 60.6382C87.7113 60.4623 87.707 60.2863 87.7016 60.0644" fill="#4A1BAD"/>
</svg>
