<svg width="23" height="24" viewBox="0 0 23 24" fill="none" xmlns="http://www.w3.org/2000/svg">
<path d="M15.3508 1.64111C15.3508 1.24416 15.029 0.922363 14.632 0.922363H8.84914C8.45219 0.922363 8.13039 1.24416 8.13039 1.64111V8.23688C8.13039 8.63383 7.8086 8.95563 7.41164 8.95563H1.4375C1.04054 8.95563 0.71875 9.27742 0.71875 9.67438V15.1704C0.71875 15.5673 1.04055 15.8891 1.4375 15.8891H7.41164C7.8086 15.8891 8.13039 16.2109 8.13039 16.6078V23.2036C8.13039 23.6006 8.45219 23.9224 8.84914 23.9224H14.632C15.029 23.9224 15.3508 23.6006 15.3508 23.2036V16.6078C15.3508 16.2109 15.6726 15.8891 16.0695 15.8891H22.0437C22.4406 15.8891 22.7624 15.5673 22.7624 15.1703V9.67438C22.7624 9.27742 22.4406 8.95563 22.0437 8.95563H16.0695C15.6726 8.95563 15.3508 8.63383 15.3508 8.23688V1.64111Z" fill="#3620A5"/>
</svg>
