<svg width="30" height="29" viewBox="0 0 30 29" fill="none" xmlns="http://www.w3.org/2000/svg">
<g clip-path="url(#clip0_7_122782)">
<path d="M28.4971 20.669C24.7186 20.0472 23.0158 16.1769 22.9469 16.0126C22.9416 16.002 22.9381 15.9914 22.931 15.9808C22.7385 15.5887 22.6925 15.2654 22.7985 15.0199C23.0052 14.5359 23.7966 14.2851 24.3194 14.119C24.4713 14.0713 24.6144 14.0254 24.7328 13.9795C25.2486 13.7763 25.616 13.5555 25.8598 13.3064C26.1495 13.0079 26.206 12.7218 26.2024 12.5363C26.1936 12.0841 25.8474 11.6813 25.2945 11.4852C25.109 11.4093 24.8953 11.3687 24.6798 11.3687C24.5332 11.3687 24.3141 11.3881 24.1074 11.4852C23.6658 11.6919 23.2702 11.805 22.9292 11.8209C22.7491 11.812 22.6219 11.7732 22.5388 11.7361C22.5494 11.5594 22.56 11.3775 22.5724 11.1902L22.5777 11.109C22.6996 9.19593 22.8497 6.81654 22.2174 5.40338C21.7846 4.43537 21.2034 3.60338 20.488 2.9286C19.8892 2.36334 19.1932 1.90406 18.4195 1.5649C17.0752 0.971379 15.8211 0.883057 15.1922 0.883057H15.1904C15.1657 0.883057 15.1428 0.883057 15.1216 0.883057C14.9467 0.884823 14.6623 0.888356 14.6358 0.888356C14.0087 0.888356 12.7528 0.976678 11.405 1.5702C10.633 1.90936 9.94058 2.36687 9.34352 2.93213C8.63165 3.60691 8.05226 4.43714 7.62124 5.40162C6.98886 6.813 7.13901 9.1924 7.25912 11.1037V11.1072C7.27149 11.3121 7.28562 11.5259 7.29798 11.7343C7.20613 11.7749 7.05598 11.8209 6.83518 11.8209C6.47836 11.8209 6.05441 11.7078 5.5757 11.4835C5.43439 11.4181 5.27364 11.3846 5.097 11.3846C4.8126 11.3846 4.51054 11.4676 4.25087 11.6213C3.92231 11.8138 3.71034 12.0841 3.65205 12.3861C3.61495 12.584 3.61672 12.9779 4.0548 13.3771C4.2968 13.5961 4.65009 13.7993 5.1076 13.9795C5.22772 14.0272 5.3708 14.0713 5.52094 14.119C6.04381 14.2851 6.83694 14.5359 7.04362 15.0199C7.14784 15.2654 7.10191 15.5887 6.90937 15.9808C6.90407 15.9914 6.89877 16.002 6.89524 16.0126C6.84578 16.1257 6.39533 17.1414 5.47148 18.2136C4.94685 18.823 4.36922 19.3335 3.7545 19.7292C3.00376 20.2132 2.19297 20.5277 1.34331 20.6672C1.00945 20.722 0.770983 21.0187 0.790413 21.3561C0.795713 21.4533 0.818677 21.5504 0.859305 21.6441V21.6458C0.995321 21.962 1.30798 22.2287 1.81672 22.4637C2.4385 22.7516 3.36765 22.9936 4.5812 23.1826C4.64302 23.2992 4.70661 23.5907 4.75078 23.7903C4.7967 24.0022 4.8444 24.2213 4.91329 24.4527C4.98748 24.7035 5.17825 25.0038 5.67109 25.0038C5.85833 25.0038 6.07207 24.9614 6.32114 24.9137C6.68503 24.8431 7.18317 24.7459 7.80319 24.7459C8.14764 24.7459 8.50446 24.776 8.86305 24.836C9.5555 24.9508 10.1526 25.3712 10.8432 25.8588C11.8536 26.5724 12.9983 27.3797 14.7471 27.3797C14.7948 27.3797 14.8425 27.3779 14.8902 27.3744C14.9467 27.3779 15.0191 27.3797 15.0933 27.3797C16.8421 27.3797 17.9867 26.5724 18.9971 25.8605L18.9989 25.8588C19.6896 25.373 20.2866 24.9526 20.9791 24.8378C21.3377 24.7777 21.6945 24.7477 22.0389 24.7477C22.6325 24.7477 23.1023 24.8236 23.521 24.9049C23.7948 24.9579 24.0068 24.9844 24.171 24.9844H24.1869H24.2028C24.5632 24.9844 24.8282 24.7866 24.9288 24.4421C24.996 24.2142 25.0437 24.0023 25.0914 23.785C25.132 23.5977 25.1991 23.2974 25.2592 23.1809C26.4727 22.9901 27.4019 22.7498 28.0236 22.4619C28.5306 22.227 28.8433 21.9602 28.9793 21.6458C29.0199 21.5522 29.0446 21.455 29.0499 21.3544C29.0694 21.0205 28.8309 20.722 28.4971 20.669Z" fill="#FF960A"/>
</g>
<defs>
<clipPath id="clip0_7_122782">
<rect width="28.2617" height="28.2617" fill="white" transform="translate(0.789307 0.000610352)"/>
</clipPath>
</defs>
</svg>
