<svg width="100" height="55" viewBox="0 0 100 55" fill="none" xmlns="http://www.w3.org/2000/svg">
<path d="M18.7348 48.7726C21.2331 48.7726 23.2583 48.1263 23.2583 47.329C23.2583 46.5318 21.2331 45.8855 18.7348 45.8855C16.2365 45.8855 14.2112 46.5318 14.2112 47.329C14.2112 48.1263 16.2365 48.7726 18.7348 48.7726Z" fill="#FFD500"/>
<path d="M75.7781 26.0135H82.0788C84.8579 26.0135 87.0195 26.7276 88.5634 28.1559C90.1074 29.5841 90.8794 31.5704 90.8794 34.1148C90.8794 36.6352 90.1008 38.6155 88.5454 40.0557C86.9899 41.4961 84.8333 42.2162 82.0788 42.2162H75.7781V26.0135ZM75.8192 31.4406V37.922H81.3183C83.879 37.922 84.2633 36.1563 84.2009 34.6349C84.1155 32.5186 83.2187 31.4901 80.6071 31.4139C77.9955 31.3375 75.8192 31.4406 75.8192 31.4406Z" fill="#531FBB"/>
<path fill-rule="evenodd" clip-rule="evenodd" d="M58.7331 53.0431C56.7008 53.993 54.3759 54.5541 51.9999 54.5541C43.0904 54.5541 35.8569 47.1083 35.8569 37.9377C35.8569 33.4957 37.5714 29.4418 40.3341 26.4595C40.3341 26.4595 40.3391 26.4508 46.1464 32.5542C44.9174 33.9808 44.1483 35.8828 44.1483 37.9377C44.1483 42.3981 47.6664 46.0195 51.9999 46.0195C53.2695 46.0195 54.4752 45.7112 55.5368 45.1594L58.7331 53.0431Z" fill="#531FBB"/>
<path d="M21.4567 35.873H27.7855V29.1467C27.7855 28.1858 28.0716 27.4028 28.6794 26.7978C29.2515 26.2284 30.0381 25.9437 31.0036 25.9437C31.969 25.9437 32.7556 26.2284 33.3635 26.7978C33.9356 27.4028 34.2216 28.1858 34.2216 29.1467V48.1868C34.2216 49.1478 33.9356 49.9307 33.3635 50.5357C32.7556 51.1407 31.969 51.4255 31.0036 51.4255C30.0381 51.4255 29.2515 51.1407 28.6794 50.5357C28.0716 49.9663 27.7855 49.1833 27.7855 48.1868V41.069H18.775L21.4567 35.873Z" fill="#531FBB"/>
<path d="M65.4231 54.9619C67.9214 54.9619 69.9466 54.3156 69.9466 53.5183C69.9466 52.7211 67.9214 52.0748 65.4231 52.0748C62.9248 52.0748 60.8995 52.7211 60.8995 53.5183C60.8995 54.3156 62.9248 54.9619 65.4231 54.9619Z" fill="#FFD500"/>
<g opacity="0.4">
<path d="M90.0204 53.4276C92.5187 53.4276 94.5439 52.7813 94.5439 51.9841C94.5439 51.1868 92.5187 50.5405 90.0204 50.5405C87.5221 50.5405 85.4968 51.1868 85.4968 51.9841C85.4968 52.7813 87.5221 53.4276 90.0204 53.4276Z" fill="#6A3FD1"/>
</g>
<path fill-rule="evenodd" clip-rule="evenodd" d="M65.4124 52.077C65.3151 52.0982 65.2211 52.1421 65.1387 52.2089C64.8566 52.4368 64.8154 52.8471 65.0463 53.1239C65.1766 53.2802 65.2442 53.3648 65.2442 53.3648L66.3723 53.1971C66.3723 53.1971 66.5026 52.8699 66.7467 52.3C66.8885 51.9679 66.7318 51.5853 66.3954 51.4469C66.0606 51.3069 65.673 51.4616 65.5312 51.7937L65.4124 52.077ZM64.8665 50.8917C64.6076 50.5954 64.3157 50.2632 63.9941 49.905C63.7516 49.6348 63.3344 49.6103 63.0623 49.8481C62.7901 50.0858 62.7637 50.4977 63.0045 50.768C63.3228 51.1213 63.6115 51.4485 63.8671 51.7416C64.1046 52.0135 64.5218 52.0444 64.7973 51.81C65.0727 51.5755 65.104 51.1652 64.8665 50.8917ZM66.8225 48.9151C66.6246 49.3401 66.4399 49.739 66.2733 50.1086C66.1249 50.4374 66.2733 50.8217 66.6065 50.9682C66.9396 51.1147 67.3289 50.9682 67.4773 50.6393C67.6422 50.2763 67.8236 49.8822 68.0199 49.4622C68.1733 49.1366 68.0298 48.7491 67.6983 48.5976C67.3684 48.4462 66.9759 48.5895 66.8225 48.9151ZM62.7505 48.5407C62.4619 48.2313 62.1618 47.9106 61.8468 47.5801C61.5977 47.3182 61.1788 47.3055 60.9133 47.5517C60.6478 47.7982 60.6362 48.2101 60.8853 48.4723C61.1953 48.7979 61.4938 49.1154 61.7775 49.4215C62.0232 49.6852 62.4405 49.7031 62.7093 49.4606C62.9781 49.218 62.9963 48.806 62.7505 48.5407ZM68.2112 46.0807C68.005 46.4825 67.8088 46.8752 67.6208 47.2562C67.4608 47.5794 67.5977 47.9692 67.9259 48.1271C68.2524 48.2834 68.6482 48.1499 68.8066 47.8259C68.9929 47.4505 69.1859 47.0633 69.3888 46.6672C69.552 46.3462 69.4217 45.9542 69.0968 45.7924C68.7719 45.6307 68.3745 45.7598 68.2112 46.0807ZM60.5603 46.2544C60.2585 45.9478 59.9468 45.6365 59.6269 45.3217C59.3696 45.0678 58.9507 45.0682 58.6934 45.3226C58.4361 45.5771 58.4378 45.9898 58.695 46.2437C59.0101 46.5542 59.3168 46.8614 59.617 47.1637C59.871 47.421 60.2882 47.4262 60.5488 47.1753C60.8094 46.9244 60.8143 46.5117 60.5603 46.2544ZM19.7817 45.1663C19.3069 45.6404 18.9876 45.9775 18.8526 46.1221C18.6055 46.3861 18.6221 46.7985 18.8898 47.0423C19.1573 47.2862 19.5749 47.2697 19.822 47.0057C19.9526 46.866 20.2612 46.5403 20.72 46.082C20.976 45.8264 20.9735 45.4137 20.7145 45.161C20.4556 44.9083 20.0377 44.9107 19.7817 45.1663ZM18.9317 44.8288C18.7275 44.4988 18.4937 44.1238 18.2359 43.7153C18.0434 43.4102 17.6362 43.3168 17.3272 43.5069C17.0181 43.6969 16.9234 44.0989 17.1161 44.404C17.3715 44.809 17.6032 45.1805 17.8056 45.5076C17.9953 45.8143 18.4016 45.9114 18.7124 45.7241C19.0231 45.5367 19.1214 45.1356 18.9317 44.8288ZM69.7005 43.2941C69.4828 43.682 69.2717 44.0677 69.0655 44.4488C68.8956 44.7663 69.0177 45.161 69.3393 45.3296C69.6609 45.4983 70.06 45.3775 70.2315 45.06C70.4327 44.6852 70.6405 44.306 70.8549 43.9247C71.0314 43.6102 70.9143 43.2135 70.596 43.0395C70.2777 42.8656 69.8769 42.9796 69.7005 43.2941ZM58.2959 44.0374C57.9799 43.738 57.6573 43.4374 57.3291 43.1367C57.0623 42.8923 56.6445 42.9076 56.3968 43.1711C56.1493 43.4346 56.1648 43.8469 56.4316 44.0914C56.7545 44.3874 57.0722 44.6833 57.3839 44.9781C57.647 45.2267 58.065 45.2178 58.3174 44.9583C58.5681 44.6987 58.5598 44.286 58.2959 44.0374ZM22.0938 42.9804C21.7443 43.2938 21.4179 43.594 21.1166 43.8762C20.8526 44.1235 20.8415 44.5361 21.0922 44.7969C21.3427 45.0576 21.7607 45.0685 22.0249 44.821C22.3196 44.5449 22.6392 44.251 22.9813 43.9442C23.2506 43.7025 23.2705 43.2902 23.0256 43.0242C22.7807 42.7583 22.3633 42.7386 22.0938 42.9804ZM17.2447 42.1667C17.0135 41.8107 16.7722 41.4429 16.5233 41.0681C16.3238 40.7674 15.9144 40.6834 15.61 40.8804C15.3053 41.0776 15.2202 41.4817 15.42 41.7822C15.6664 42.1533 15.905 42.5174 16.1339 42.8697C16.3304 43.1722 16.7387 43.2604 17.0453 43.0664C17.3517 42.8725 17.4411 42.4692 17.2447 42.1667ZM55.9486 41.9017C55.6172 41.6126 55.2816 41.3249 54.9424 41.0401C54.665 40.8073 54.2484 40.8405 54.0125 41.1144C53.7765 41.3882 53.8103 41.7995 54.0876 42.0323C54.4204 42.3117 54.7497 42.5939 55.0748 42.8777C55.3476 43.1157 55.7648 43.0903 56.006 42.821C56.2471 42.5517 56.2213 42.1398 55.9486 41.9017ZM24.5184 40.9167C24.1646 41.2017 23.8227 41.4841 23.4943 41.7612C23.2176 41.9949 23.185 42.4063 23.4215 42.6795C23.6581 42.9527 24.0749 42.985 24.3516 42.7513C24.6727 42.4804 25.0067 42.2044 25.3526 41.9258C25.6347 41.6986 25.6768 41.2879 25.4466 41.0095C25.2163 40.731 24.8004 40.6894 24.5184 40.9167ZM71.3118 40.5675C71.0776 40.9415 70.8483 41.3181 70.6241 41.6951C70.4393 42.005 70.5432 42.4044 70.8582 42.5867C71.1716 42.7689 71.5757 42.6653 71.7604 42.3555C71.9814 41.9864 72.2057 41.618 72.4349 41.2518C72.6262 40.946 72.5289 40.5444 72.2189 40.3555C71.9105 40.1666 71.5031 40.2616 71.3118 40.5675ZM53.5026 39.8669C53.1542 39.5919 52.8031 39.3211 52.4498 39.0558C52.1599 38.8382 51.7458 38.8938 51.5253 39.1798C51.3049 39.4659 51.3612 39.8749 51.651 40.0926C51.9958 40.3514 52.3385 40.6157 52.6784 40.884C52.9628 41.1085 53.3782 41.0629 53.6056 40.7822C53.8331 40.5016 53.7869 40.0914 53.5026 39.8669ZM27.0618 38.989C26.6955 39.249 26.3368 39.5111 25.9867 39.7739C25.6969 39.9916 25.6405 40.4004 25.8609 40.6867C26.0812 40.9727 26.4955 41.0284 26.7853 40.8109C27.1262 40.5549 27.4753 40.2997 27.8319 40.0468C28.1274 39.8369 28.195 39.4297 27.9824 39.1378C27.77 38.8459 27.3574 38.7793 27.0618 38.989ZM15.4919 39.5421C15.2437 39.1816 14.9913 38.8205 14.737 38.4623C14.5279 38.1681 14.1161 38.0968 13.8181 38.3032C13.52 38.5097 13.4476 38.9161 13.6568 39.2103C13.9076 39.5632 14.1562 39.9192 14.4009 40.2744C14.6056 40.5717 15.0162 40.6489 15.3172 40.4468C15.6184 40.2448 15.6967 39.8394 15.4919 39.5421ZM73.0814 37.9245C72.8242 38.2809 72.5702 38.6445 72.3211 39.0133C72.1199 39.3124 72.2007 39.7169 72.5042 39.9166C72.8077 40.116 73.2167 40.0352 73.4195 39.7362C73.6603 39.3783 73.9061 39.0255 74.1551 38.6795C74.3662 38.3866 74.2969 37.9796 74.0001 37.7713C73.7048 37.5629 73.2925 37.6316 73.0814 37.9245ZM50.9377 37.9647C50.5686 37.7096 50.1981 37.462 49.8269 37.223C49.5219 37.0266 49.1128 37.1116 48.9139 37.4126C48.715 37.7137 48.8011 38.1175 49.106 38.3138C49.4652 38.5452 49.8237 38.7848 50.1808 39.0317C50.479 39.2378 50.8908 39.1662 51.0996 38.8718C51.3084 38.5774 51.2358 38.1709 50.9377 37.9647ZM29.7397 37.2314C29.3566 37.4618 28.9784 37.6985 28.6062 37.94C28.3019 38.1373 28.2171 38.5414 28.417 38.842C28.6169 39.1424 29.0263 39.2261 29.3305 39.0287C29.6906 38.7953 30.056 38.5663 30.4263 38.3436C30.7372 38.1565 30.8358 37.7554 30.6463 37.4485C30.4568 37.1416 30.0506 37.0444 29.7397 37.2314ZM13.647 36.9688C13.3757 36.6078 13.1049 36.2563 12.8371 35.919C12.6125 35.636 12.1975 35.5864 11.9109 35.8081C11.6244 36.0297 11.5741 36.4395 11.7986 36.7223C12.0595 37.051 12.3232 37.3933 12.5874 37.7449C12.8044 38.0336 13.2179 38.094 13.5103 37.8799C13.8027 37.6656 13.8639 37.2575 13.647 36.9688ZM32.5748 35.702C32.1709 35.8936 31.7699 36.0956 31.3726 36.3063C31.0519 36.4765 30.9315 36.8716 31.1038 37.1883C31.2762 37.5048 31.6764 37.6238 31.9972 37.4537C32.3769 37.2523 32.7601 37.0592 33.1462 36.876C33.4744 36.7202 33.6128 36.3309 33.4551 36.0069C33.2975 35.6829 32.903 35.5463 32.5748 35.702ZM75.0688 35.4125C74.7801 35.7417 74.4915 36.0844 74.2079 36.4384C73.9819 36.7202 74.0314 37.1302 74.3167 37.3532C74.602 37.5764 75.0176 37.5287 75.2419 37.2469C75.5141 36.9089 75.7878 36.5816 76.0649 36.2672C76.3041 35.996 76.2744 35.5842 76.0006 35.3485C75.7252 35.1126 75.3079 35.1412 75.0688 35.4125ZM48.2228 36.2488C47.8273 36.0237 47.432 35.8102 47.0375 35.6098C46.7138 35.4452 46.3156 35.5711 46.1491 35.8907C45.9823 36.2103 46.1098 36.6033 46.4336 36.7677C46.8097 36.9589 47.1868 37.1626 47.5638 37.3773C47.8793 37.5567 48.283 37.4498 48.4648 37.1383C48.6467 36.827 48.5383 36.4284 48.2228 36.2488ZM35.5935 34.5009C35.1652 34.6365 34.7378 34.7877 34.3119 34.9525C33.973 35.0837 33.8056 35.462 33.9385 35.7965C34.0715 36.1311 34.4546 36.2964 34.7935 36.1652C35.1933 36.0105 35.5945 35.8685 35.9966 35.7412C36.3433 35.6315 36.5344 35.2643 36.4233 34.9221C36.3121 34.5798 35.9402 34.3911 35.5935 34.5009ZM45.3139 34.8174C44.8838 34.6415 44.4558 34.4838 44.0314 34.346C43.6854 34.2339 43.3124 34.42 43.1986 34.7614C43.0849 35.1028 43.2734 35.4712 43.6193 35.5834C44.0131 35.7112 44.4099 35.8576 44.8092 36.0209C45.1455 36.1583 45.5317 36.0004 45.6711 35.6682C45.8103 35.3361 45.6503 34.955 45.3139 34.8174ZM11.6358 34.4846C11.3107 34.1207 10.9954 33.7902 10.6945 33.5018C10.4333 33.2514 10.0154 33.2575 9.76173 33.5154C9.50808 33.7733 9.51418 34.1858 9.77542 34.4362C10.0538 34.7031 10.3454 35.0093 10.6462 35.3462C10.887 35.6157 11.3043 35.6415 11.5774 35.4038C11.8505 35.1661 11.8767 34.7542 11.6358 34.4846ZM38.8083 33.8006C38.3557 33.8509 37.9013 33.9235 37.4463 34.0163C37.0897 34.0891 36.86 34.434 36.9337 34.786C37.0075 35.138 37.3568 35.3646 37.7133 35.2918C38.1284 35.2072 38.5429 35.1409 38.9559 35.095C39.3177 35.0548 39.5783 34.7321 39.5376 34.3749C39.4968 34.0178 39.1701 33.7604 38.8083 33.8006ZM42.1478 33.8711C41.6875 33.7939 41.2221 33.747 40.7532 33.728C40.3894 33.7132 40.082 33.9927 40.067 34.3519C40.052 34.7111 40.3351 35.0145 40.699 35.0294C41.1119 35.0461 41.5218 35.0873 41.9272 35.1552C42.2862 35.2153 42.6271 34.9764 42.688 34.622C42.7488 34.2676 42.5067 33.9312 42.1478 33.8711ZM9.12991 32.306C8.74728 32.0673 8.37207 31.8353 8.00825 31.6117C7.69902 31.4219 7.29199 31.5155 7.09952 31.8206C6.90722 32.1259 7.00205 32.5279 7.31111 32.7177C7.67263 32.9398 8.04537 33.1702 8.42535 33.4071C8.7331 33.599 9.14096 33.5082 9.33541 33.2044C9.52985 32.9004 9.43782 32.4978 9.12991 32.306Z" fill="#FFD500"/>
<path d="M76.967 34.4145C77.4259 34.3022 77.8751 34.2096 78.3131 34.1394C78.6729 34.0822 79.011 34.3257 79.0684 34.6833C79.1259 35.041 78.8808 35.3779 78.521 35.4351C78.1171 35.4993 77.7044 35.5849 77.283 35.6886C76.929 35.7751 76.5719 35.5608 76.4843 35.2089C76.3981 34.858 76.613 34.5011 76.967 34.4145Z" fill="#FFD500"/>
<path d="M80.4872 34.6198C80.9326 34.7767 81.3591 34.9447 81.7639 35.1253C82.0962 35.274 82.244 35.6622 82.0944 35.9924C81.9447 36.3226 81.5537 36.4702 81.2214 36.3214C80.8485 36.1544 80.4564 36.0005 80.0471 35.8569C79.7034 35.7358 79.5235 35.3617 79.6448 35.0198C79.7667 34.6795 80.1435 34.4987 80.4872 34.6198Z" fill="#FFD500"/>
<path d="M83.5447 36.2489C83.8985 36.5603 84.2306 36.875 84.5377 37.1933C84.7897 37.455 84.7804 37.8699 84.5172 38.1203C84.2539 38.3707 83.8358 38.3617 83.5838 38.1C83.3011 37.8062 82.9956 37.5174 82.6703 37.2317C82.3973 36.9913 82.3716 36.5774 82.6129 36.3057C82.8543 36.0357 83.2718 36.0085 83.5447 36.2489Z" fill="#FFD500"/>
<path d="M85.7174 38.5405C86.0128 38.9071 86.2862 39.2734 86.5345 39.6389C86.738 39.9394 86.6579 40.3468 86.3557 40.549C86.0535 40.7512 85.6429 40.6718 85.4394 40.3713C85.2111 40.0339 84.9594 39.6977 84.6876 39.3612C84.4598 39.0782 84.5052 38.666 84.7895 38.439C85.0735 38.2137 85.4896 38.2575 85.7174 38.5405Z" fill="#FFD500"/>
<path d="M87.764 41.4543C87.9987 41.862 88.2117 42.266 88.4 42.6654C88.5543 42.9936 88.4117 43.3837 88.0816 43.5369C87.7515 43.6902 87.3583 43.5484 87.2041 43.2202C87.031 42.8517 86.8347 42.4808 86.6187 42.1065C86.4377 41.7918 86.5468 41.3916 86.863 41.2112C87.1788 41.0323 87.583 41.1396 87.764 41.4543Z" fill="#FFD500"/>
<path d="M89.4426 44.4336C89.6917 44.8327 89.9191 45.2289 90.1216 45.6213C90.2875 45.9439 90.159 46.3388 89.8346 46.5036C89.5103 46.6685 89.1122 46.5408 88.9463 46.2182C88.7602 45.8561 88.5507 45.4924 88.3214 45.126C88.1292 44.8179 88.2239 44.414 88.5335 44.2225C88.8426 44.0326 89.2504 44.1255 89.4426 44.4336Z" fill="#FFD500"/>
<path d="M19.8388 40.9529H15.4979V48.0532C15.4979 49.0117 15.2133 49.7927 14.644 50.3963C14.0391 50.9998 13.2563 51.2838 12.2956 51.2838C11.3349 51.2838 10.5521 50.9998 9.9828 50.3963C9.37791 49.8282 9.09326 49.0472 9.09326 48.0532V29.06C9.09326 28.1014 9.37791 27.3204 9.9828 26.7169C10.5521 26.1489 11.3349 25.8649 12.2956 25.8649C13.2563 25.8649 14.0391 26.1489 14.644 26.7169C15.2133 27.3204 15.4979 28.1014 15.4979 29.06V35.7697H23.1479L19.8388 40.9529Z" fill="#531FBB"/>
<path d="M75.7781 26.0135V48.1788C75.7781 49.1809 75.4798 49.9737 74.883 50.5572C74.288 51.1407 73.477 51.4324 72.4516 51.4324C71.4511 51.4324 70.6582 51.1407 70.0746 50.5572C69.4911 49.9737 69.1993 49.1809 69.1993 48.1788V29.0524C69.1993 28.0753 69.4614 27.3245 69.9856 26.8C70.5098 26.2757 71.2598 26.0135 72.2373 26.0135H75.7781Z" fill="#531FBB"/>
<path d="M94.2426 46.1543C94.8426 45.7926 95.2397 45.203 95.434 44.3854C95.434 44.3854 98.749 31.8238 99.2422 29.4449C99.7355 27.0661 99.3646 26.0237 96.8429 25.6234C94.3211 25.2231 93.5311 27.4632 93.5311 27.4632L90.0667 43.1247C89.8724 43.9422 89.9567 44.645 90.3197 45.2328C90.6826 45.8207 91.2729 46.2107 92.0893 46.4024C92.9258 46.5989 93.644 46.5163 94.2426 46.1543Z" fill="#531FBB"/>
<path fill-rule="evenodd" clip-rule="evenodd" d="M55.4803 45.1729C58.0549 43.8453 59.8224 41.1189 59.8224 37.9741C59.8224 33.5263 56.2868 29.9154 51.9325 29.9154C49.5841 29.9154 47.4742 30.9656 46.0283 32.631L40.1929 26.545C43.148 23.3793 47.3163 21.4054 51.9325 21.4054C60.8853 21.4054 68.1527 28.8296 68.1527 37.9741C68.1527 44.68 64.2446 50.4599 58.6302 53.0676" fill="#531FBB"/>
<path fill-rule="evenodd" clip-rule="evenodd" d="M61.0019 30.7726C57.1399 25.5968 49.287 24.5161 44.0852 28.3608L44.0837 28.3578C38.886 32.2002 38.2968 39.5226 42.16 44.6998C46.0087 49.8576 53.3238 50.9527 58.5187 47.1629C58.5317 47.1162 58.5743 47.1162 58.5743 47.1162C63.7762 43.2714 64.864 35.9487 61.0019 30.7726ZM59.9517 48.959C66.1756 44.3575 67.4766 35.5965 62.8551 29.4028C58.2339 23.2095 49.4296 21.9157 43.2045 26.5165L43.2027 26.5129C36.9821 31.1105 35.685 39.8731 40.3079 46.0686C44.9314 52.2647 53.7343 53.5611 59.955 48.9634L59.9517 48.959Z" fill="url(#paint0_linear_3_501)"/>
<path d="M19.4485 22.803C18.5511 22.803 17.846 22.5478 17.3011 22.0054C16.7563 21.495 16.4678 20.7932 16.4678 19.9319V4.90689H11.9488C11.0193 4.90689 10.3142 4.71549 9.8655 4.30079C9.38475 3.91798 9.1604 3.31188 9.1604 2.51437C9.1604 1.71686 9.38475 1.11076 9.8655 0.727953C10.3142 0.34515 11.0193 0.153748 11.9488 0.153748H26.9482C27.8776 0.153748 28.5827 0.34515 29.0635 0.727953C29.5122 1.11076 29.7365 1.71686 29.7365 2.51437C29.7365 3.31188 29.5122 3.91798 29.0635 4.30079C28.5827 4.71549 27.8776 4.90689 26.9482 4.90689H22.4291V19.9319C22.4291 20.7932 22.1727 21.495 21.6279 22.0054C21.083 22.5478 20.3459 22.803 19.4485 22.803Z" fill="#531FBB"/>
<path d="M26.9482 4.90689H11.9488C11.0193 4.90689 10.3142 4.71549 9.8655 4.30079C9.38475 3.91798 9.1604 3.31188 9.1604 2.51437C9.1604 1.71686 9.38475 1.11076 9.8655 0.727953C10.3142 0.34515 11.0193 0.153748 11.9488 0.153748H26.9482C27.8776 0.153748 28.5827 0.34515 29.0635 0.727953C29.5122 1.11076 29.7365 1.71686 29.7365 2.51437C29.7365 3.31188 29.5122 3.91798 29.0635 4.30079C28.5827 4.71549 27.8776 4.90689 26.9482 4.90689Z" fill="#7B40ED"/>
<path d="M38.8723 17.6111C39.3531 17.6111 39.7697 17.8025 40.0902 18.1853C40.3787 18.5681 40.5389 19.0785 40.5389 19.6846C40.5389 20.5459 40.1223 21.1839 39.289 21.6306C38.5518 21.9815 37.7185 22.3005 36.725 22.5238C35.7314 22.779 34.802 22.9066 33.9687 22.9066C32.2059 22.9066 30.6996 22.5876 29.3855 21.9177C28.0715 21.2477 27.0779 20.3226 26.3728 19.0785C25.6677 17.8344 25.3152 16.3989 25.3152 14.7401C25.3152 13.177 25.6677 11.7734 26.3408 10.4973C27.0138 9.25323 27.9433 8.29623 29.1612 7.59442C30.347 6.92451 31.7252 6.57361 33.2315 6.57361C34.7058 6.57361 35.9878 6.89261 37.1096 7.53062C38.2313 8.16862 39.0967 9.06183 39.7056 10.2421C40.3146 11.4225 40.603 12.7942 40.603 14.3573C40.603 14.8358 40.5069 15.2186 40.2825 15.4738C40.0582 15.7609 39.7056 15.8885 39.289 15.8885H30.8278C30.988 16.9093 31.3085 17.643 31.8213 18.0896C32.3341 18.5362 33.1033 18.7595 34.0969 18.7595C34.6417 18.7595 35.1225 18.6957 35.5712 18.5681C36.0199 18.4724 36.5327 18.3129 37.0775 18.0896C37.398 17.962 37.7185 17.8344 38.039 17.7387C38.3275 17.643 38.6159 17.6111 38.8723 17.6111ZM33.3918 10.4016C32.6546 10.4016 32.0457 10.6249 31.597 11.1035C31.1483 11.582 30.8919 12.2838 30.7957 13.2089H35.8276C35.6994 11.3268 34.8981 10.4016 33.3918 10.4016Z" fill="#0EBCC4"/>
<path d="M39.289 15.8885C37.1416 15.8885 35.9237 15.0591 35.8276 13.2089C35.6994 11.3268 34.8981 10.4016 33.3918 10.4016C32.6546 10.4016 32.0457 10.6249 31.597 11.1035C31.1483 11.582 30.8919 12.2838 30.7957 13.2089L30.8278 15.8885C30.8919 16.3032 30.9239 18.4405 30.1547 19.1742C29.0009 20.2269 26.7895 19.8122 26.3728 19.0785C25.6677 17.8344 25.3152 16.3989 25.3152 14.7401C25.3152 13.177 25.6677 11.7734 26.3408 10.4973C27.0138 9.25323 27.9433 8.29622 29.1612 7.59442C30.347 6.92451 31.7252 6.57361 33.2315 6.57361C34.7058 6.57361 35.9878 6.89261 37.1096 7.53062C38.2313 8.16862 39.0967 9.06183 39.7056 10.2421C40.3146 11.4225 40.603 12.7942 40.603 14.3573C40.603 14.8358 40.5069 15.2186 40.2825 15.4738C40.0582 15.7609 39.7056 15.8885 39.289 15.8885Z" fill="#00DAE4"/>
<path d="M74.2342 0C75.0996 0 75.8047 0.223301 76.3495 0.701806C76.8944 1.18031 77.1508 1.81832 77.1508 2.55202V20.2248C77.1508 21.0223 76.8944 21.6603 76.3816 22.1388C75.8688 22.6173 75.1957 22.8406 74.3304 22.8406C72.2151 22.8406 71.7343 22.1069 71.574 21.437C71.574 21.3413 71.574 20.8947 71.574 20.8947C71.574 20.8947 70.5805 22.8087 66.7024 22.9044C65.3563 22.9363 64.1384 22.5535 63.1128 21.8517C62.0231 21.1818 61.2219 20.1929 60.6129 18.9488C60.004 17.7047 59.7155 16.2692 59.7155 14.6422C59.7155 13.0153 60.004 11.6117 60.6129 10.3676C61.1898 9.15539 61.9911 8.23028 63.0808 7.56037C64.1384 6.89047 65.3243 6.60336 66.7024 6.57146C68.8498 6.50766 70.5484 7.04997 71.4458 7.52847V2.45632C71.4458 1.72262 71.7022 1.11651 72.215 0.669906C72.6958 0.223301 73.3689 0 74.2342 0ZM68.4011 18.6617C69.3946 18.6617 70.1638 18.3108 70.7087 17.6409C71.2535 16.971 71.51 15.9821 71.51 14.706C71.51 13.4619 71.2535 12.473 70.7087 11.8031C70.1638 11.1332 69.3946 10.8142 68.4011 10.8142C67.4075 10.8142 66.6704 11.1332 66.1255 11.8031C65.5807 12.473 65.3243 13.3981 65.3243 14.6422C65.3243 15.9183 65.5807 16.9072 66.1255 17.609C66.6704 18.3108 67.4396 18.6617 68.4011 18.6617Z" fill="#E79A14"/>
<path d="M74.2398 0C75.1051 0 75.8102 0.223301 76.3551 0.701805C76.8999 1.18031 77.1563 1.81832 77.1563 2.55202V20.2248C77.1563 21.0223 76.8999 21.6603 76.3871 22.1388C75.8743 22.6173 75.2013 22.8406 74.3359 22.8406C72.2206 22.8406 71.7399 22.1069 71.5796 21.437C71.5796 21.3413 71.4514 7.52847 71.4514 7.52847V2.45632C71.4514 1.72262 71.7078 1.11651 72.2206 0.669905C72.7014 0.223301 73.3744 0 74.2398 0Z" fill="#FFA100"/>
<path d="M91.3448 5.22828C91.5691 4.68597 91.8896 4.30317 92.3063 4.04797C92.7229 3.79276 93.1716 3.66516 93.6524 3.66516C94.3575 3.66516 94.9985 3.88846 95.5433 4.36697C96.0882 4.84547 96.3766 5.38778 96.3766 6.05769C96.3766 6.40859 96.2805 6.75949 96.1202 7.1104L86.1206 27.0481C85.8642 27.5904 85.5437 27.9732 85.1271 28.2284C84.7104 28.4836 84.2297 28.6112 83.7489 28.6112C83.0438 28.6112 82.4349 28.3879 81.89 27.9413C81.3452 27.4628 81.0567 26.9205 81.0567 26.2506C81.0567 25.8997 81.1529 25.5169 81.3452 25.1341L83.4284 20.9551L77.9799 10.109C77.8197 9.72622 77.7235 9.37532 77.7235 9.08822C77.7235 8.41831 78.012 7.8441 78.6209 7.3337C79.2299 6.85519 79.9029 6.63189 80.6401 6.63189C81.1529 6.63189 81.6336 6.75949 82.0823 7.01469C82.499 7.3018 82.8515 7.6846 83.0759 8.22691L86.4732 15.564L91.3448 5.22828Z" fill="#0EBCC4"/>
<path d="M91.3847 5.22828C91.6091 4.68597 91.9296 4.30317 92.3462 4.04797C92.7629 3.79276 93.2116 3.66516 93.6923 3.66516C94.3974 3.66516 95.0384 3.88846 95.5833 4.36697C96.1281 4.84547 96.4166 5.38778 96.4166 6.05769C96.4166 6.40859 96.3204 6.75949 96.1602 7.1104L86.1606 27.0481C85.9042 27.5904 85.5837 27.9732 85.167 28.2284C84.7504 28.4836 84.2696 28.6112 83.7889 28.6112C83.0838 28.6112 82.4748 28.3879 81.93 27.9413C81.3851 27.4628 81.0966 26.9205 81.0966 26.2506C81.0966 25.8997 81.1928 25.5169 81.3851 25.1341L83.4684 20.9551L86.5131 15.564L91.3847 5.22828Z" fill="#00DAE4"/>
<path d="M56.131 0C56.9963 0 57.7014 0.223301 58.2463 0.701806C58.7911 1.18031 59.0475 1.81832 59.0475 2.55202V20.2248C59.0475 21.0223 58.7911 21.6603 58.2783 22.1388C57.7655 22.6173 57.0925 22.8406 56.2271 22.8406C54.1118 22.8406 53.6311 22.1069 53.4708 21.437C53.4708 21.3413 53.4708 20.8947 53.4708 20.8947C53.4708 20.8947 52.4773 22.8087 48.5992 22.9044C47.2531 22.9363 46.0352 22.5535 45.0096 21.8517C43.9199 21.1818 43.1187 20.1929 42.5097 18.9488C41.9008 17.7047 41.6123 16.2692 41.6123 14.6422C41.6123 13.0153 41.9008 11.6117 42.5097 10.3676C43.0866 9.15539 43.8879 8.23028 44.9776 7.56037C46.0352 6.89047 47.2211 6.60336 48.5992 6.57146C50.7466 6.50766 52.4452 7.04997 53.3426 7.52847V2.45632C53.3426 1.72262 53.599 1.11651 54.1118 0.669906C54.5926 0.223301 55.2656 0 56.131 0ZM49.4325 18.6617C50.4581 18.6617 51.2273 18.3108 51.7401 17.6409C52.285 16.971 52.5414 15.9821 52.5414 14.706C52.5414 13.4619 52.285 12.473 51.7401 11.8031C51.2273 11.1332 50.4581 10.8142 49.4325 10.8142C48.471 10.8142 47.7018 11.1332 47.157 11.8031C46.6442 12.473 46.3557 13.3981 46.3557 14.6422C46.3557 15.9183 46.6442 16.9072 47.189 17.609C47.7339 18.3108 48.471 18.6617 49.4325 18.6617Z" fill="#DC5709"/>
<path d="M53.4708 20.8902C53.4708 20.8902 52.4773 22.8042 48.5992 22.8999C47.2531 22.9318 46.0352 22.549 45.0096 21.8472C43.9199 21.1773 43.1187 20.1884 42.5097 18.9443C41.9008 17.7002 41.6123 16.2647 41.6123 14.6377C41.6123 13.0108 41.9008 11.6072 42.5097 10.3631C43.0866 9.15089 43.8879 8.22578 44.9776 7.55588C46.0352 6.88597 47.2211 6.59887 48.5992 6.56697C50.7466 6.50317 52.4452 7.04547 53.3426 7.52398C53.3426 7.52398 55.7784 8.89569 54.881 11.033C54.1439 12.9151 52.0286 12.1495 51.7401 11.7986C51.2273 11.1287 50.4581 10.8097 49.4325 10.8097C48.471 10.8097 47.7018 11.1287 47.157 11.7986C46.6442 12.4685 46.3557 13.3936 46.3557 14.6377C46.3557 15.9138 46.6442 16.9027 47.189 17.6045C47.7339 18.3063 48.471 18.6572 49.4325 18.6572C50.4581 18.6572 51.2273 18.3063 51.7401 17.6364C52.0606 17.2536 53.3106 16.8708 53.8875 17.8278C54.9772 19.6461 53.4708 20.8902 53.4708 20.8902Z" fill="#FF5E00"/>
<ellipse cx="91.4775" cy="49.3514" rx="2.5418" ry="2.52703" fill="#531FBB"/>
<defs>
<linearGradient id="paint0_linear_3_501" x1="59.5636" y1="53.1023" x2="40.019" y2="30.43" gradientUnits="userSpaceOnUse">
<stop stop-color="#7B40ED"/>
<stop offset="1" stop-color="#7B40ED" stop-opacity="0"/>
</linearGradient>
</defs>
</svg>
