<svg width="341" height="216" viewBox="0 0 341 216" fill="none" xmlns="http://www.w3.org/2000/svg">
<rect width="341" height="215" rx="16" fill="#FFFEFA"/>
<path d="M133.365 112H139.695V110.725H134.715V102.385H133.365V112ZM143.953 112.18C146.023 112.18 147.628 110.485 147.628 108.4C147.628 106.315 146.023 104.635 143.953 104.635C141.898 104.635 140.293 106.315 140.293 108.4C140.293 110.485 141.898 112.18 143.953 112.18ZM143.968 110.935C142.618 110.935 141.628 109.795 141.628 108.4C141.628 106.99 142.618 105.88 143.968 105.88C145.318 105.88 146.293 106.99 146.293 108.4C146.293 109.795 145.318 110.935 143.968 110.935ZM150.94 107.86C150.94 106.66 151.48 105.91 152.35 105.91C152.695 105.91 153.04 106.03 153.28 106.195L153.835 104.95C153.58 104.74 153.19 104.635 152.74 104.635C151.945 104.635 151.33 105.055 150.94 105.715V104.815H149.605V112H150.94V107.86ZM157.999 112.18C159.154 112.18 160.174 111.745 160.759 111.115L160.054 110.2C159.574 110.68 158.854 110.995 158.044 110.995C156.679 110.995 155.734 110.035 155.584 108.745H161.284C161.314 108.64 161.329 108.445 161.329 108.265C161.329 106.24 159.799 104.635 157.789 104.635C155.749 104.635 154.234 106.315 154.234 108.4C154.234 110.485 155.809 112.18 157.999 112.18ZM157.804 105.775C158.929 105.775 159.754 106.525 159.964 107.86H155.614C155.809 106.66 156.634 105.775 157.804 105.775ZM164.501 107.815C164.501 106.63 165.146 105.88 166.226 105.88C167.291 105.88 167.951 106.63 167.951 107.815V112H169.271V107.815C169.271 106.63 169.931 105.88 171.011 105.88C172.076 105.88 172.721 106.63 172.721 107.815V112H174.056V107.605C174.056 105.76 172.976 104.635 171.311 104.635C170.156 104.635 169.361 105.25 168.971 106.09C168.536 105.175 167.696 104.635 166.571 104.635C165.656 104.635 164.936 105.055 164.501 105.715V104.815H163.166V112H164.501V107.815ZM181.109 104.815H179.774V112H181.109V104.815ZM180.434 103.57C180.884 103.57 181.259 103.195 181.259 102.745C181.259 102.295 180.884 101.92 180.434 101.92C179.984 101.92 179.609 102.295 179.609 102.745C179.609 103.195 179.984 103.57 180.434 103.57ZM183.595 104.815V114.94H184.93V110.95C185.485 111.715 186.355 112.18 187.435 112.18C189.445 112.18 190.93 110.545 190.93 108.415C190.93 106.24 189.385 104.635 187.435 104.635C186.355 104.635 185.485 105.13 184.93 105.91V104.815H183.595ZM187.27 105.88C188.62 105.88 189.595 107.02 189.595 108.415C189.595 109.825 188.62 110.935 187.27 110.935C185.905 110.935 184.93 109.825 184.93 108.415C184.93 107.02 185.905 105.88 187.27 105.88ZM193.662 106.63C193.662 106.105 194.172 105.715 194.982 105.715C195.762 105.715 196.347 105.94 196.827 106.54L197.622 105.745C197.127 105.04 196.182 104.635 194.952 104.635C193.272 104.635 192.357 105.58 192.357 106.63C192.357 109.18 196.422 108.43 196.422 110.065C196.422 110.68 195.927 111.1 195.027 111.1C194.082 111.1 193.332 110.74 192.837 110.14L192.057 111.01C192.627 111.715 193.617 112.18 194.937 112.18C196.737 112.18 197.742 111.25 197.742 110.035C197.742 107.38 193.662 108.175 193.662 106.63ZM200.817 104.815H199.482V108.895C199.482 110.845 200.742 112.135 202.662 112.135C204.597 112.135 205.872 110.845 205.872 108.895V104.815H204.537V108.79C204.537 110.05 203.802 110.89 202.662 110.89C201.552 110.89 200.817 110.05 200.817 108.79V104.815ZM209.593 107.815C209.593 106.63 210.238 105.88 211.318 105.88C212.383 105.88 213.043 106.63 213.043 107.815V112H214.363V107.815C214.363 106.63 215.023 105.88 216.103 105.88C217.168 105.88 217.813 106.63 217.813 107.815V112H219.148V107.605C219.148 105.76 218.068 104.635 216.403 104.635C215.248 104.635 214.453 105.25 214.063 106.09C213.628 105.175 212.788 104.635 211.663 104.635C210.748 104.635 210.028 105.055 209.593 105.715V104.815H208.258V112H209.593V107.815ZM228.016 110.935C226.666 110.935 225.676 109.795 225.676 108.4C225.676 106.99 226.666 105.88 228.016 105.88C229.366 105.88 230.341 106.99 230.341 108.4C230.341 109.795 229.366 110.935 228.016 110.935ZM230.341 101.68V105.895C229.786 105.115 228.916 104.635 227.821 104.635C225.811 104.635 224.341 106.27 224.341 108.4C224.341 110.575 225.871 112.18 227.821 112.18C228.916 112.18 229.786 111.67 230.341 110.875V112H231.676V101.68H230.341ZM237.315 112.18C239.385 112.18 240.99 110.485 240.99 108.4C240.99 106.315 239.385 104.635 237.315 104.635C235.26 104.635 233.655 106.315 233.655 108.4C233.655 110.485 235.26 112.18 237.315 112.18ZM237.33 110.935C235.98 110.935 234.99 109.795 234.99 108.4C234.99 106.99 235.98 105.88 237.33 105.88C238.68 105.88 239.655 106.99 239.655 108.4C239.655 109.795 238.68 110.935 237.33 110.935ZM242.968 112H244.303V101.68H242.968V112ZM249.924 112.18C251.994 112.18 253.599 110.485 253.599 108.4C253.599 106.315 251.994 104.635 249.924 104.635C247.869 104.635 246.264 106.315 246.264 108.4C246.264 110.485 247.869 112.18 249.924 112.18ZM249.939 110.935C248.589 110.935 247.599 109.795 247.599 108.4C247.599 106.99 248.589 105.88 249.939 105.88C251.289 105.88 252.264 106.99 252.264 108.4C252.264 109.795 251.289 110.935 249.939 110.935ZM256.911 107.86C256.911 106.66 257.451 105.91 258.321 105.91C258.666 105.91 259.011 106.03 259.251 106.195L259.806 104.95C259.551 104.74 259.161 104.635 258.711 104.635C257.916 104.635 257.301 105.055 256.911 105.715V104.815H255.576V112H256.911V107.86ZM265.509 106.63C265.509 106.105 266.019 105.715 266.829 105.715C267.609 105.715 268.194 105.94 268.674 106.54L269.469 105.745C268.974 105.04 268.029 104.635 266.799 104.635C265.119 104.635 264.204 105.58 264.204 106.63C264.204 109.18 268.269 108.43 268.269 110.065C268.269 110.68 267.774 111.1 266.874 111.1C265.929 111.1 265.179 110.74 264.684 110.14L263.904 111.01C264.474 111.715 265.464 112.18 266.784 112.18C268.584 112.18 269.589 111.25 269.589 110.035C269.589 107.38 265.509 108.175 265.509 106.63ZM272.785 104.815H271.45V112H272.785V104.815ZM272.11 103.57C272.56 103.57 272.935 103.195 272.935 102.745C272.935 102.295 272.56 101.92 272.11 101.92C271.66 101.92 271.285 102.295 271.285 102.745C271.285 103.195 271.66 103.57 272.11 103.57ZM274.461 106H275.646V109.84C275.646 111.385 276.456 112.18 277.806 112.18C278.601 112.18 279.201 111.895 279.531 111.565L278.916 110.56C278.706 110.8 278.346 110.935 277.986 110.935C277.341 110.935 276.996 110.56 276.996 109.795V106H279.021V104.815H276.981V103.03H275.661V104.815H274.461V106ZM289.869 112H291.204V104.815H289.869V105.895C289.314 105.115 288.444 104.635 287.349 104.635C285.339 104.635 283.869 106.27 283.869 108.4C283.869 110.575 285.399 112.18 287.349 112.18C288.444 112.18 289.314 111.67 289.869 110.875V112ZM287.544 110.935C286.194 110.935 285.204 109.795 285.204 108.4C285.204 106.99 286.194 105.88 287.544 105.88C288.894 105.88 289.869 106.99 289.869 108.4C289.869 109.795 288.894 110.935 287.544 110.935ZM295.044 107.815C295.044 106.63 295.689 105.88 296.769 105.88C297.834 105.88 298.494 106.63 298.494 107.815V112H299.814V107.815C299.814 106.63 300.474 105.88 301.554 105.88C302.619 105.88 303.264 106.63 303.264 107.815V112H304.599V107.605C304.599 105.76 303.519 104.635 301.854 104.635C300.699 104.635 299.904 105.25 299.514 106.09C299.079 105.175 298.239 104.635 297.114 104.635C296.199 104.635 295.479 105.055 295.044 105.715V104.815H293.709V112H295.044V107.815ZM310.218 112.18C311.373 112.18 312.393 111.745 312.978 111.115L312.273 110.2C311.793 110.68 311.073 110.995 310.263 110.995C308.898 110.995 307.953 110.035 307.803 108.745H313.503C313.533 108.64 313.548 108.445 313.548 108.265C313.548 106.24 312.018 104.635 310.008 104.635C307.968 104.635 306.453 106.315 306.453 108.4C306.453 110.485 308.028 112.18 310.218 112.18ZM310.023 105.775C311.148 105.775 311.973 106.525 312.183 107.86H307.833C308.028 106.66 308.853 105.775 310.023 105.775ZM314.575 106H315.76V109.84C315.76 111.385 316.57 112.18 317.92 112.18C318.715 112.18 319.315 111.895 319.645 111.565L319.03 110.56C318.82 110.8 318.46 110.935 318.1 110.935C317.455 110.935 317.11 110.56 317.11 109.795V106H319.135V104.815H317.095V103.03H315.775V104.815H314.575V106ZM322.129 110.38H320.629L319.834 113.785H320.944L322.129 110.38ZM138.405 122.585L139.17 121.64C138.57 121.025 137.625 120.635 136.47 120.635C134.37 120.635 132.765 122.315 132.765 124.4C132.765 126.485 134.355 128.18 136.455 128.18C137.55 128.18 138.555 127.79 139.125 127.175L138.435 126.2C137.955 126.68 137.28 126.935 136.5 126.935C135.09 126.935 134.1 125.795 134.1 124.4C134.1 122.99 135.09 121.88 136.515 121.88C137.295 121.88 137.925 122.135 138.405 122.585ZM143.645 128.18C145.715 128.18 147.32 126.485 147.32 124.4C147.32 122.315 145.715 120.635 143.645 120.635C141.59 120.635 139.985 122.315 139.985 124.4C139.985 126.485 141.59 128.18 143.645 128.18ZM143.66 126.935C142.31 126.935 141.32 125.795 141.32 124.4C141.32 122.99 142.31 121.88 143.66 121.88C145.01 121.88 145.985 122.99 145.985 124.4C145.985 125.795 145.01 126.935 143.66 126.935ZM150.632 123.815C150.632 122.63 151.307 121.88 152.432 121.88C153.557 121.88 154.247 122.63 154.247 123.815V128H155.582V123.605C155.582 121.79 154.487 120.635 152.792 120.635C151.847 120.635 151.082 121.025 150.632 121.7V120.815H149.297V128H150.632V123.815ZM158.793 122.63C158.793 122.105 159.303 121.715 160.113 121.715C160.893 121.715 161.478 121.94 161.958 122.54L162.753 121.745C162.258 121.04 161.313 120.635 160.083 120.635C158.403 120.635 157.488 121.58 157.488 122.63C157.488 125.18 161.553 124.43 161.553 126.065C161.553 126.68 161.058 127.1 160.158 127.1C159.213 127.1 158.463 126.74 157.968 126.14L157.188 127.01C157.758 127.715 158.748 128.18 160.068 128.18C161.868 128.18 162.873 127.25 162.873 126.035C162.873 123.38 158.793 124.175 158.793 122.63ZM167.973 128.18C169.128 128.18 170.148 127.745 170.733 127.115L170.028 126.2C169.548 126.68 168.828 126.995 168.018 126.995C166.653 126.995 165.708 126.035 165.558 124.745H171.258C171.288 124.64 171.303 124.445 171.303 124.265C171.303 122.24 169.773 120.635 167.763 120.635C165.723 120.635 164.208 122.315 164.208 124.4C164.208 126.485 165.783 128.18 167.973 128.18ZM167.778 121.775C168.903 121.775 169.728 122.525 169.938 123.86H165.588C165.783 122.66 166.608 121.775 167.778 121.775ZM178.255 122.585L179.02 121.64C178.42 121.025 177.475 120.635 176.32 120.635C174.22 120.635 172.615 122.315 172.615 124.4C172.615 126.485 174.205 128.18 176.305 128.18C177.4 128.18 178.405 127.79 178.975 127.175L178.285 126.2C177.805 126.68 177.13 126.935 176.35 126.935C174.94 126.935 173.95 125.795 173.95 124.4C173.95 122.99 174.94 121.88 176.365 121.88C177.145 121.88 177.775 122.135 178.255 122.585ZM179.755 122H180.94V125.84C180.94 127.385 181.75 128.18 183.1 128.18C183.895 128.18 184.495 127.895 184.825 127.565L184.21 126.56C184 126.8 183.64 126.935 183.28 126.935C182.635 126.935 182.29 126.56 182.29 125.795V122H184.315V120.815H182.275V119.03H180.955V120.815H179.755V122ZM189.193 128.18C190.348 128.18 191.368 127.745 191.953 127.115L191.248 126.2C190.768 126.68 190.048 126.995 189.238 126.995C187.873 126.995 186.928 126.035 186.778 124.745H192.478C192.508 124.64 192.523 124.445 192.523 124.265C192.523 122.24 190.993 120.635 188.983 120.635C186.943 120.635 185.428 122.315 185.428 124.4C185.428 126.485 187.003 128.18 189.193 128.18ZM188.998 121.775C190.123 121.775 190.948 122.525 191.158 123.86H186.808C187.003 122.66 187.828 121.775 188.998 121.775ZM193.55 122H194.735V125.84C194.735 127.385 195.545 128.18 196.895 128.18C197.69 128.18 198.29 127.895 198.62 127.565L198.005 126.56C197.795 126.8 197.435 126.935 197.075 126.935C196.43 126.935 196.085 126.56 196.085 125.795V122H198.11V120.815H196.07V119.03H194.75V120.815H193.55V122ZM201.359 120.815H200.024V124.895C200.024 126.845 201.284 128.135 203.204 128.135C205.139 128.135 206.414 126.845 206.414 124.895V120.815H205.079V124.79C205.079 126.05 204.344 126.89 203.204 126.89C202.094 126.89 201.359 126.05 201.359 124.79V120.815ZM210.135 123.86C210.135 122.66 210.675 121.91 211.545 121.91C211.89 121.91 212.235 122.03 212.475 122.195L213.03 120.95C212.775 120.74 212.385 120.635 211.935 120.635C211.14 120.635 210.525 121.055 210.135 121.715V120.815H208.8V128H210.135V123.86ZM223.368 128H224.703V120.815H223.368V121.895C222.813 121.115 221.943 120.635 220.848 120.635C218.838 120.635 217.368 122.27 217.368 124.4C217.368 126.575 218.898 128.18 220.848 128.18C221.943 128.18 222.813 127.67 223.368 126.875V128ZM221.043 126.935C219.693 126.935 218.703 125.795 218.703 124.4C218.703 122.99 219.693 121.88 221.043 121.88C222.393 121.88 223.368 122.99 223.368 124.4C223.368 125.795 222.393 126.935 221.043 126.935ZM230.358 126.935C229.008 126.935 228.018 125.795 228.018 124.4C228.018 122.99 229.008 121.88 230.358 121.88C231.708 121.88 232.683 122.99 232.683 124.4C232.683 125.795 231.708 126.935 230.358 126.935ZM232.683 117.68V121.895C232.128 121.115 231.258 120.635 230.163 120.635C228.153 120.635 226.683 122.27 226.683 124.4C226.683 126.575 228.213 128.18 230.163 128.18C231.258 128.18 232.128 127.67 232.683 126.875V128H234.018V117.68H232.683ZM237.857 120.815H236.522V128H237.857V120.815ZM237.182 119.57C237.632 119.57 238.007 119.195 238.007 118.745C238.007 118.295 237.632 117.92 237.182 117.92C236.732 117.92 236.357 118.295 236.357 118.745C236.357 119.195 236.732 119.57 237.182 119.57ZM240.344 120.815V130.94H241.679V126.95C242.234 127.715 243.104 128.18 244.184 128.18C246.194 128.18 247.679 126.545 247.679 124.415C247.679 122.24 246.134 120.635 244.184 120.635C243.104 120.635 242.234 121.13 241.679 121.91V120.815H240.344ZM244.019 121.88C245.369 121.88 246.344 123.02 246.344 124.415C246.344 125.825 245.369 126.935 244.019 126.935C242.654 126.935 241.679 125.825 241.679 124.415C241.679 123.02 242.654 121.88 244.019 121.88ZM250.993 120.815H249.658V128H250.993V120.815ZM250.318 119.57C250.768 119.57 251.143 119.195 251.143 118.745C251.143 118.295 250.768 117.92 250.318 117.92C249.868 117.92 249.493 118.295 249.493 118.745C249.493 119.195 249.868 119.57 250.318 119.57ZM254.32 122.63C254.32 122.105 254.83 121.715 255.64 121.715C256.42 121.715 257.005 121.94 257.485 122.54L258.28 121.745C257.785 121.04 256.84 120.635 255.61 120.635C253.93 120.635 253.015 121.58 253.015 122.63C253.015 125.18 257.08 124.43 257.08 126.065C257.08 126.68 256.585 127.1 255.685 127.1C254.74 127.1 253.99 126.74 253.495 126.14L252.715 127.01C253.285 127.715 254.275 128.18 255.595 128.18C257.395 128.18 258.4 127.25 258.4 126.035C258.4 123.38 254.32 124.175 254.32 122.63ZM265.375 122.585L266.14 121.64C265.54 121.025 264.595 120.635 263.44 120.635C261.34 120.635 259.735 122.315 259.735 124.4C259.735 126.485 261.325 128.18 263.425 128.18C264.52 128.18 265.525 127.79 266.095 127.175L265.405 126.2C264.925 126.68 264.25 126.935 263.47 126.935C262.06 126.935 261.07 125.795 261.07 124.4C261.07 122.99 262.06 121.88 263.485 121.88C264.265 121.88 264.895 122.135 265.375 122.585ZM269.02 120.815H267.685V128H269.02V120.815ZM268.345 119.57C268.795 119.57 269.17 119.195 269.17 118.745C269.17 118.295 268.795 117.92 268.345 117.92C267.895 117.92 267.52 118.295 267.52 118.745C267.52 119.195 267.895 119.57 268.345 119.57ZM272.842 123.815C272.842 122.63 273.517 121.88 274.642 121.88C275.767 121.88 276.457 122.63 276.457 123.815V128H277.792V123.605C277.792 121.79 276.697 120.635 275.002 120.635C274.057 120.635 273.292 121.025 272.842 121.7V120.815H271.507V128H272.842V123.815ZM280.882 129.155L280.207 130.205C280.897 130.79 281.947 131.12 283.267 131.12C285.217 131.12 286.897 130.145 286.897 127.49V120.815H285.577V121.88C285.022 121.13 284.152 120.665 283.057 120.665C281.137 120.665 279.637 122.225 279.637 124.31C279.637 126.425 281.137 127.985 283.057 127.985C284.152 127.985 285.022 127.49 285.577 126.71V127.565C285.577 129.095 284.707 129.905 283.192 129.905C282.157 129.905 281.362 129.515 280.882 129.155ZM283.282 126.74C281.947 126.74 280.972 125.645 280.972 124.295C280.972 122.96 281.947 121.88 283.282 121.88C284.617 121.88 285.577 122.96 285.577 124.295C285.577 125.645 284.617 126.74 283.282 126.74ZM295.982 128.18C297.137 128.18 298.157 127.745 298.742 127.115L298.037 126.2C297.557 126.68 296.837 126.995 296.027 126.995C294.662 126.995 293.717 126.035 293.567 124.745H299.267C299.297 124.64 299.312 124.445 299.312 124.265C299.312 122.24 297.782 120.635 295.772 120.635C293.732 120.635 292.217 122.315 292.217 124.4C292.217 126.485 293.792 128.18 295.982 128.18ZM295.787 121.775C296.912 121.775 297.737 122.525 297.947 123.86H293.597C293.792 122.66 294.617 121.775 295.787 121.775ZM301.148 128H302.483V117.68H301.148V128ZM306.305 120.815H304.97V128H306.305V120.815ZM305.63 119.57C306.08 119.57 306.455 119.195 306.455 118.745C306.455 118.295 306.08 117.92 305.63 117.92C305.18 117.92 304.805 118.295 304.805 118.745C304.805 119.195 305.18 119.57 305.63 119.57ZM307.981 122H309.166V125.84C309.166 127.385 309.976 128.18 311.326 128.18C312.121 128.18 312.721 127.895 313.051 127.565L312.436 126.56C312.226 126.8 311.866 126.935 311.506 126.935C310.861 126.935 310.516 126.56 310.516 125.795V122H312.541V120.815H310.501V119.03H309.181V120.815H307.981V122ZM315.536 126.38H314.036L313.241 129.785H314.351L315.536 126.38ZM134.13 138.63C134.13 138.105 134.64 137.715 135.45 137.715C136.23 137.715 136.815 137.94 137.295 138.54L138.09 137.745C137.595 137.04 136.65 136.635 135.42 136.635C133.74 136.635 132.825 137.58 132.825 138.63C132.825 141.18 136.89 140.43 136.89 142.065C136.89 142.68 136.395 143.1 135.495 143.1C134.55 143.1 133.8 142.74 133.305 142.14L132.525 143.01C133.095 143.715 134.085 144.18 135.405 144.18C137.205 144.18 138.21 143.25 138.21 142.035C138.21 139.38 134.13 140.175 134.13 138.63ZM143.31 144.18C144.465 144.18 145.485 143.745 146.07 143.115L145.365 142.2C144.885 142.68 144.165 142.995 143.355 142.995C141.99 142.995 141.045 142.035 140.895 140.745H146.595C146.625 140.64 146.64 140.445 146.64 140.265C146.64 138.24 145.11 136.635 143.1 136.635C141.06 136.635 139.545 138.315 139.545 140.4C139.545 142.485 141.12 144.18 143.31 144.18ZM143.115 137.775C144.24 137.775 145.065 138.525 145.275 139.86H140.925C141.12 138.66 141.945 137.775 143.115 137.775ZM151.627 142.935C150.277 142.935 149.287 141.795 149.287 140.4C149.287 138.99 150.277 137.88 151.627 137.88C152.977 137.88 153.952 138.99 153.952 140.4C153.952 141.795 152.977 142.935 151.627 142.935ZM153.952 133.68V137.895C153.397 137.115 152.527 136.635 151.432 136.635C149.422 136.635 147.952 138.27 147.952 140.4C147.952 142.575 149.482 144.18 151.432 144.18C152.527 144.18 153.397 143.67 153.952 142.875V144H155.287V133.68H153.952ZM164.28 142.935C162.93 142.935 161.94 141.795 161.94 140.4C161.94 138.99 162.93 137.88 164.28 137.88C165.63 137.88 166.605 138.99 166.605 140.4C166.605 141.795 165.63 142.935 164.28 142.935ZM166.605 133.68V137.895C166.05 137.115 165.18 136.635 164.085 136.635C162.075 136.635 160.605 138.27 160.605 140.4C160.605 142.575 162.135 144.18 164.085 144.18C165.18 144.18 166.05 143.67 166.605 142.875V144H167.94V133.68H166.605ZM173.579 144.18C175.649 144.18 177.254 142.485 177.254 140.4C177.254 138.315 175.649 136.635 173.579 136.635C171.524 136.635 169.919 138.315 169.919 140.4C169.919 142.485 171.524 144.18 173.579 144.18ZM173.594 142.935C172.244 142.935 171.254 141.795 171.254 140.4C171.254 138.99 172.244 137.88 173.594 137.88C174.944 137.88 175.919 138.99 175.919 140.4C175.919 141.795 174.944 142.935 173.594 142.935ZM185.81 144.18C186.965 144.18 187.985 143.745 188.57 143.115L187.865 142.2C187.385 142.68 186.665 142.995 185.855 142.995C184.49 142.995 183.545 142.035 183.395 140.745H189.095C189.125 140.64 189.14 140.445 189.14 140.265C189.14 138.24 187.61 136.635 185.6 136.635C183.56 136.635 182.045 138.315 182.045 140.4C182.045 142.485 183.62 144.18 185.81 144.18ZM185.615 137.775C186.74 137.775 187.565 138.525 187.775 139.86H183.425C183.62 138.66 184.445 137.775 185.615 137.775ZM192.311 136.815H190.976V144H192.311V136.815ZM191.636 135.57C192.086 135.57 192.461 135.195 192.461 134.745C192.461 134.295 192.086 133.92 191.636 133.92C191.186 133.92 190.811 134.295 190.811 134.745C190.811 135.195 191.186 135.57 191.636 135.57ZM196.013 136.815H194.678V140.895C194.678 142.845 195.938 144.135 197.858 144.135C199.793 144.135 201.068 142.845 201.068 140.895V136.815H199.733V140.79C199.733 142.05 198.998 142.89 197.858 142.89C196.748 142.89 196.013 142.05 196.013 140.79V136.815ZM204.293 138.63C204.293 138.105 204.803 137.715 205.613 137.715C206.393 137.715 206.978 137.94 207.458 138.54L208.253 137.745C207.758 137.04 206.813 136.635 205.583 136.635C203.903 136.635 202.988 137.58 202.988 138.63C202.988 141.18 207.053 140.43 207.053 142.065C207.053 142.68 206.558 143.1 205.658 143.1C204.713 143.1 203.963 142.74 203.468 142.14L202.688 143.01C203.258 143.715 204.248 144.18 205.568 144.18C207.368 144.18 208.373 143.25 208.373 142.035C208.373 139.38 204.293 140.175 204.293 138.63ZM211.569 139.815C211.569 138.63 212.214 137.88 213.294 137.88C214.359 137.88 215.019 138.63 215.019 139.815V144H216.339V139.815C216.339 138.63 216.999 137.88 218.079 137.88C219.144 137.88 219.789 138.63 219.789 139.815V144H221.124V139.605C221.124 137.76 220.044 136.635 218.379 136.635C217.224 136.635 216.429 137.25 216.039 138.09C215.604 137.175 214.764 136.635 213.639 136.635C212.724 136.635 212.004 137.055 211.569 137.715V136.815H210.234V144H211.569V139.815ZM226.638 144.18C228.708 144.18 230.313 142.485 230.313 140.4C230.313 138.315 228.708 136.635 226.638 136.635C224.583 136.635 222.978 138.315 222.978 140.4C222.978 142.485 224.583 144.18 226.638 144.18ZM226.653 142.935C225.303 142.935 224.313 141.795 224.313 140.4C224.313 138.99 225.303 137.88 226.653 137.88C228.003 137.88 228.978 138.99 228.978 140.4C228.978 141.795 228.003 142.935 226.653 142.935ZM235.441 142.935C234.091 142.935 233.101 141.795 233.101 140.4C233.101 138.99 234.091 137.88 235.441 137.88C236.791 137.88 237.766 138.99 237.766 140.4C237.766 141.795 236.791 142.935 235.441 142.935ZM237.766 133.68V137.895C237.211 137.115 236.341 136.635 235.246 136.635C233.236 136.635 231.766 138.27 231.766 140.4C231.766 142.575 233.296 144.18 235.246 144.18C236.341 144.18 237.211 143.67 237.766 142.875V144H239.101V133.68H237.766ZM244.133 138H245.318V141.84C245.318 143.385 246.128 144.18 247.478 144.18C248.273 144.18 248.873 143.895 249.203 143.565L248.588 142.56C248.378 142.8 248.018 142.935 247.658 142.935C247.013 142.935 246.668 142.56 246.668 141.795V138H248.693V136.815H246.653V135.03H245.333V136.815H244.133V138ZM253.572 144.18C254.727 144.18 255.747 143.745 256.332 143.115L255.627 142.2C255.147 142.68 254.427 142.995 253.617 142.995C252.252 142.995 251.307 142.035 251.157 140.745H256.857C256.887 140.64 256.902 140.445 256.902 140.265C256.902 138.24 255.372 136.635 253.362 136.635C251.322 136.635 249.807 138.315 249.807 140.4C249.807 142.485 251.382 144.18 253.572 144.18ZM253.377 137.775C254.502 137.775 255.327 138.525 255.537 139.86H251.187C251.382 138.66 252.207 137.775 253.377 137.775ZM260.074 139.815C260.074 138.63 260.719 137.88 261.799 137.88C262.864 137.88 263.524 138.63 263.524 139.815V144H264.844V139.815C264.844 138.63 265.504 137.88 266.584 137.88C267.649 137.88 268.294 138.63 268.294 139.815V144H269.629V139.605C269.629 137.76 268.549 136.635 266.884 136.635C265.729 136.635 264.934 137.25 264.544 138.09C264.109 137.175 263.269 136.635 262.144 136.635C261.229 136.635 260.509 137.055 260.074 137.715V136.815H258.739V144H260.074V139.815ZM272.008 136.815V146.94H273.343V142.95C273.898 143.715 274.768 144.18 275.848 144.18C277.858 144.18 279.343 142.545 279.343 140.415C279.343 138.24 277.798 136.635 275.848 136.635C274.768 136.635 273.898 137.13 273.343 137.91V136.815H272.008ZM275.683 137.88C277.033 137.88 278.008 139.02 278.008 140.415C278.008 141.825 277.033 142.935 275.683 142.935C274.318 142.935 273.343 141.825 273.343 140.415C273.343 139.02 274.318 137.88 275.683 137.88ZM284.458 144.18C286.528 144.18 288.133 142.485 288.133 140.4C288.133 138.315 286.528 136.635 284.458 136.635C282.403 136.635 280.798 138.315 280.798 140.4C280.798 142.485 282.403 144.18 284.458 144.18ZM284.473 142.935C283.123 142.935 282.133 141.795 282.133 140.4C282.133 138.99 283.123 137.88 284.473 137.88C285.823 137.88 286.798 138.99 286.798 140.4C286.798 141.795 285.823 142.935 284.473 142.935ZM291.445 139.86C291.445 138.66 291.985 137.91 292.855 137.91C293.2 137.91 293.545 138.03 293.785 138.195L294.34 136.95C294.085 136.74 293.695 136.635 293.245 136.635C292.45 136.635 291.835 137.055 291.445 137.715V136.815H290.11V144H291.445V139.86ZM295.371 144.135C295.896 144.135 296.316 143.73 296.316 143.22C296.316 142.71 295.896 142.275 295.371 142.275C294.876 142.275 294.456 142.71 294.456 143.22C294.456 143.73 294.876 144.135 295.371 144.135Z" fill="#3F4246"/>
<path d="M37.7348 142.773C40.2331 142.773 42.2583 142.126 42.2583 141.329C42.2583 140.532 40.2331 139.885 37.7348 139.885C35.2365 139.885 33.2112 140.532 33.2112 141.329C33.2112 142.126 35.2365 142.773 37.7348 142.773Z" fill="#FFD500"/>
<path d="M94.7781 120.013H101.079C103.858 120.013 106.019 120.728 107.563 122.156C109.107 123.584 109.879 125.57 109.879 128.115C109.879 130.635 109.101 132.616 107.545 134.056C105.99 135.496 103.833 136.216 101.079 136.216H94.7781V120.013ZM94.8192 125.441V131.922H100.318C102.879 131.922 103.263 130.156 103.201 128.635C103.116 126.519 102.219 125.49 99.6071 125.414C96.9955 125.338 94.8192 125.441 94.8192 125.441Z" fill="#531FBB"/>
<path fill-rule="evenodd" clip-rule="evenodd" d="M77.7331 147.043C75.7008 147.993 73.3759 148.554 70.9999 148.554C62.0904 148.554 54.8569 141.108 54.8569 131.938C54.8569 127.496 56.5714 123.442 59.3341 120.459C59.3341 120.459 59.3391 120.451 65.1464 126.554C63.9174 127.981 63.1483 129.883 63.1483 131.938C63.1483 136.398 66.6664 140.019 70.9999 140.019C72.2695 140.019 73.4752 139.711 74.5368 139.159L77.7331 147.043Z" fill="#531FBB"/>
<path d="M40.4567 129.873H46.7855V123.147C46.7855 122.186 47.0716 121.403 47.6794 120.798C48.2515 120.228 49.0381 119.944 50.0036 119.944C50.969 119.944 51.7556 120.228 52.3635 120.798C52.9356 121.403 53.2216 122.186 53.2216 123.147V142.187C53.2216 143.148 52.9356 143.931 52.3635 144.536C51.7556 145.141 50.969 145.425 50.0036 145.425C49.0381 145.425 48.2515 145.141 47.6794 144.536C47.0716 143.966 46.7855 143.183 46.7855 142.187V135.069H37.775L40.4567 129.873Z" fill="#531FBB"/>
<path d="M84.4231 148.962C86.9214 148.962 88.9466 148.316 88.9466 147.518C88.9466 146.721 86.9214 146.075 84.4231 146.075C81.9248 146.075 79.8995 146.721 79.8995 147.518C79.8995 148.316 81.9248 148.962 84.4231 148.962Z" fill="#FFD500"/>
<g opacity="0.4">
<path d="M109.02 147.428C111.519 147.428 113.544 146.781 113.544 145.984C113.544 145.187 111.519 144.541 109.02 144.541C106.522 144.541 104.497 145.187 104.497 145.984C104.497 146.781 106.522 147.428 109.02 147.428Z" fill="#6A3FD1"/>
</g>
<path fill-rule="evenodd" clip-rule="evenodd" d="M84.4124 146.077C84.3151 146.098 84.2211 146.142 84.1387 146.209C83.8566 146.437 83.8154 146.847 84.0463 147.124C84.1766 147.28 84.2442 147.365 84.2442 147.365L85.3723 147.197C85.3723 147.197 85.5026 146.87 85.7467 146.3C85.8885 145.968 85.7318 145.585 85.3954 145.447C85.0606 145.307 84.673 145.462 84.5312 145.794L84.4124 146.077ZM83.8665 144.892C83.6076 144.595 83.3157 144.263 82.9941 143.905C82.7516 143.635 82.3344 143.61 82.0623 143.848C81.7901 144.086 81.7637 144.498 82.0045 144.768C82.3228 145.121 82.6115 145.449 82.8671 145.742C83.1046 146.013 83.5218 146.044 83.7973 145.81C84.0727 145.576 84.104 145.165 83.8665 144.892ZM85.8225 142.915C85.6246 143.34 85.4399 143.739 85.2733 144.109C85.1249 144.437 85.2733 144.822 85.6065 144.968C85.9396 145.115 86.3289 144.968 86.4773 144.639C86.6422 144.276 86.8236 143.882 87.0199 143.462C87.1733 143.137 87.0298 142.749 86.6983 142.598C86.3684 142.446 85.9759 142.59 85.8225 142.915ZM81.7505 142.541C81.4619 142.231 81.1618 141.911 80.8468 141.58C80.5977 141.318 80.1788 141.306 79.9133 141.552C79.6478 141.798 79.6362 142.21 79.8853 142.472C80.1953 142.798 80.4938 143.115 80.7775 143.421C81.0232 143.685 81.4405 143.703 81.7093 143.461C81.9781 143.218 81.9963 142.806 81.7505 142.541ZM87.2112 140.081C87.005 140.483 86.8088 140.875 86.6208 141.256C86.4608 141.579 86.5977 141.969 86.9259 142.127C87.2524 142.283 87.6482 142.15 87.8066 141.826C87.9929 141.45 88.1859 141.063 88.3888 140.667C88.552 140.346 88.4217 139.954 88.0968 139.792C87.7719 139.631 87.3745 139.76 87.2112 140.081ZM79.5603 140.254C79.2585 139.948 78.9468 139.637 78.6269 139.322C78.3696 139.068 77.9507 139.068 77.6934 139.323C77.4361 139.577 77.4378 139.99 77.695 140.244C78.0101 140.554 78.3168 140.861 78.617 141.164C78.871 141.421 79.2882 141.426 79.5488 141.175C79.8094 140.924 79.8143 140.512 79.5603 140.254ZM38.7817 139.166C38.3069 139.64 37.9876 139.977 37.8526 140.122C37.6055 140.386 37.6221 140.799 37.8898 141.042C38.1573 141.286 38.5749 141.27 38.822 141.006C38.9526 140.866 39.2612 140.54 39.72 140.082C39.976 139.826 39.9735 139.414 39.7145 139.161C39.4556 138.908 39.0377 138.911 38.7817 139.166ZM37.9317 138.829C37.7275 138.499 37.4937 138.124 37.2359 137.715C37.0434 137.41 36.6362 137.317 36.3272 137.507C36.0181 137.697 35.9234 138.099 36.1161 138.404C36.3715 138.809 36.6032 139.18 36.8056 139.508C36.9953 139.814 37.4016 139.911 37.7124 139.724C38.0231 139.537 38.1214 139.136 37.9317 138.829ZM88.7005 137.294C88.4828 137.682 88.2717 138.068 88.0655 138.449C87.8956 138.766 88.0177 139.161 88.3393 139.33C88.6609 139.498 89.06 139.378 89.2315 139.06C89.4327 138.685 89.6405 138.306 89.8549 137.925C90.0314 137.61 89.9143 137.214 89.596 137.039C89.2777 136.866 88.8769 136.98 88.7005 137.294ZM77.2959 138.037C76.9799 137.738 76.6573 137.437 76.3291 137.137C76.0623 136.892 75.6445 136.908 75.3968 137.171C75.1493 137.435 75.1648 137.847 75.4316 138.091C75.7545 138.387 76.0722 138.683 76.3839 138.978C76.647 139.227 77.065 139.218 77.3174 138.958C77.5681 138.699 77.5598 138.286 77.2959 138.037ZM41.0938 136.98C40.7443 137.294 40.4179 137.594 40.1166 137.876C39.8526 138.124 39.8415 138.536 40.0922 138.797C40.3427 139.058 40.7607 139.068 41.0249 138.821C41.3196 138.545 41.6392 138.251 41.9813 137.944C42.2506 137.702 42.2705 137.29 42.0256 137.024C41.7807 136.758 41.3633 136.739 41.0938 136.98ZM36.2447 136.167C36.0135 135.811 35.7722 135.443 35.5233 135.068C35.3238 134.767 34.9144 134.683 34.61 134.88C34.3053 135.078 34.2202 135.482 34.42 135.782C34.6664 136.153 34.905 136.517 35.1339 136.87C35.3304 137.172 35.7387 137.26 36.0453 137.066C36.3517 136.872 36.4411 136.469 36.2447 136.167ZM74.9486 135.902C74.6172 135.613 74.2816 135.325 73.9424 135.04C73.665 134.807 73.2484 134.841 73.0125 135.114C72.7765 135.388 72.8103 135.8 73.0876 136.032C73.4204 136.312 73.7497 136.594 74.0748 136.878C74.3476 137.116 74.7648 137.09 75.006 136.821C75.2471 136.552 75.2213 136.14 74.9486 135.902ZM43.5184 134.917C43.1646 135.202 42.8227 135.484 42.4943 135.761C42.2176 135.995 42.185 136.406 42.4215 136.68C42.6581 136.953 43.0749 136.985 43.3516 136.751C43.6727 136.48 44.0067 136.204 44.3526 135.926C44.6347 135.699 44.6768 135.288 44.4466 135.01C44.2163 134.731 43.8004 134.689 43.5184 134.917ZM90.3118 134.567C90.0776 134.941 89.8483 135.318 89.624 135.695C89.4393 136.005 89.5432 136.404 89.8583 136.587C90.1716 136.769 90.5757 136.665 90.7604 136.356C90.9814 135.986 91.2057 135.618 91.4349 135.252C91.6262 134.946 91.5289 134.544 91.2189 134.356C90.9105 134.167 90.5031 134.262 90.3118 134.567ZM72.5026 133.867C72.1542 133.592 71.8031 133.321 71.4498 133.056C71.1599 132.838 70.7458 132.894 70.5253 133.18C70.3049 133.466 70.3612 133.875 70.651 134.093C70.9958 134.351 71.3385 134.616 71.6784 134.884C71.9628 135.109 72.3782 135.063 72.6056 134.782C72.8331 134.502 72.7869 134.091 72.5026 133.867ZM46.0618 132.989C45.6955 133.249 45.3368 133.511 44.9867 133.774C44.6969 133.992 44.6405 134.4 44.8609 134.687C45.0812 134.973 45.4955 135.028 45.7853 134.811C46.1262 134.555 46.4753 134.3 46.8319 134.047C47.1274 133.837 47.195 133.43 46.9824 133.138C46.77 132.846 46.3574 132.779 46.0618 132.989ZM34.4919 133.542C34.2437 133.182 33.9913 132.82 33.737 132.462C33.5279 132.168 33.1161 132.097 32.8181 132.303C32.52 132.51 32.4476 132.916 32.6568 133.21C32.9076 133.563 33.1562 133.919 33.4009 134.274C33.6056 134.572 34.0162 134.649 34.3172 134.447C34.6184 134.245 34.6967 133.839 34.4919 133.542ZM92.0814 131.925C91.8241 132.281 91.5702 132.644 91.3211 133.013C91.1199 133.312 91.2007 133.717 91.5042 133.917C91.8077 134.116 92.2167 134.035 92.4195 133.736C92.6603 133.378 92.9061 133.025 93.1551 132.679C93.3662 132.387 93.2969 131.98 93.0001 131.771C92.7048 131.563 92.2925 131.632 92.0814 131.925ZM69.9377 131.965C69.5686 131.71 69.1981 131.462 68.8269 131.223C68.5219 131.027 68.1128 131.112 67.9139 131.413C67.715 131.714 67.8011 132.117 68.106 132.314C68.4652 132.545 68.8237 132.785 69.1808 133.032C69.479 133.238 69.8908 133.166 70.0996 132.872C70.3084 132.577 70.2358 132.171 69.9377 131.965ZM48.7397 131.231C48.3566 131.462 47.9784 131.699 47.6062 131.94C47.3019 132.137 47.2171 132.541 47.417 132.842C47.6169 133.142 48.0263 133.226 48.3305 133.029C48.6906 132.795 49.056 132.566 49.4263 132.344C49.7372 132.157 49.8358 131.755 49.6463 131.448C49.4568 131.142 49.0506 131.044 48.7397 131.231ZM32.647 130.969C32.3757 130.608 32.1049 130.256 31.8371 129.919C31.6125 129.636 31.1975 129.586 30.9109 129.808C30.6244 130.03 30.5741 130.439 30.7986 130.722C31.0595 131.051 31.3232 131.393 31.5874 131.745C31.8044 132.034 32.2179 132.094 32.5103 131.88C32.8027 131.666 32.8639 131.257 32.647 130.969ZM51.5748 129.702C51.1709 129.894 50.7699 130.096 50.3726 130.306C50.0519 130.476 49.9315 130.872 50.1038 131.188C50.2762 131.505 50.6764 131.624 50.9972 131.454C51.3769 131.252 51.7601 131.059 52.1462 130.876C52.4744 130.72 52.6128 130.331 52.4551 130.007C52.2975 129.683 51.903 129.546 51.5748 129.702ZM94.0688 129.412C93.7801 129.742 93.4915 130.084 93.2079 130.438C92.9819 130.72 93.0314 131.13 93.3167 131.353C93.602 131.576 94.0176 131.529 94.2419 131.247C94.5141 130.909 94.7878 130.582 95.0649 130.267C95.3041 129.996 95.2744 129.584 95.0006 129.348C94.7252 129.113 94.3079 129.141 94.0688 129.412ZM67.2228 130.249C66.8273 130.024 66.432 129.81 66.0375 129.61C65.7138 129.445 65.3156 129.571 65.1491 129.891C64.9823 130.21 65.1098 130.603 65.4336 130.768C65.8097 130.959 66.1868 131.163 66.5638 131.377C66.8793 131.557 67.283 131.45 67.4648 131.138C67.6467 130.827 67.5383 130.428 67.2228 130.249ZM54.5935 128.501C54.1652 128.636 53.7378 128.788 53.3119 128.953C52.973 129.084 52.8056 129.462 52.9385 129.797C53.0715 130.131 53.4546 130.296 53.7935 130.165C54.1933 130.01 54.5945 129.869 54.9966 129.741C55.3433 129.631 55.5344 129.264 55.4233 128.922C55.3121 128.58 54.9402 128.391 54.5935 128.501ZM64.3139 128.817C63.8838 128.642 63.4558 128.484 63.0314 128.346C62.6854 128.234 62.3124 128.42 62.1986 128.761C62.0849 129.103 62.2734 129.471 62.6193 129.583C63.0131 129.711 63.4099 129.858 63.8092 130.021C64.1455 130.158 64.5317 130 64.6711 129.668C64.8103 129.336 64.6503 128.955 64.3139 128.817ZM30.6358 128.485C30.3107 128.121 29.9954 127.79 29.6945 127.502C29.4333 127.251 29.0154 127.257 28.7617 127.515C28.5081 127.773 28.5142 128.186 28.7754 128.436C29.0538 128.703 29.3454 129.009 29.6462 129.346C29.887 129.616 30.3043 129.642 30.5774 129.404C30.8505 129.166 30.8767 128.754 30.6358 128.485ZM57.8083 127.801C57.3557 127.851 56.9013 127.924 56.4463 128.016C56.0897 128.089 55.86 128.434 55.9337 128.786C56.0075 129.138 56.3568 129.365 56.7133 129.292C57.1284 129.207 57.5429 129.141 57.9559 129.095C58.3177 129.055 58.5783 128.732 58.5376 128.375C58.4968 128.018 58.1701 127.76 57.8083 127.801ZM61.1478 127.871C60.6875 127.794 60.2221 127.747 59.7532 127.728C59.3894 127.713 59.082 127.993 59.067 128.352C59.052 128.711 59.3351 129.015 59.699 129.029C60.1119 129.046 60.5218 129.087 60.9272 129.155C61.2862 129.215 61.6271 128.976 61.6879 128.622C61.7488 128.268 61.5067 127.931 61.1478 127.871ZM28.1299 126.306C27.7473 126.067 27.3721 125.835 27.0082 125.612C26.699 125.422 26.292 125.516 26.0995 125.821C25.9072 126.126 26.002 126.528 26.3111 126.718C26.6726 126.94 27.0454 127.17 27.4254 127.407C27.7331 127.599 28.141 127.508 28.3354 127.204C28.5299 126.9 28.4378 126.498 28.1299 126.306Z" fill="#FFD500"/>
<path d="M95.967 128.415C96.4259 128.302 96.8751 128.21 97.3131 128.139C97.6729 128.082 98.011 128.326 98.0684 128.683C98.1259 129.041 97.8808 129.378 97.521 129.435C97.1171 129.499 96.7044 129.585 96.283 129.689C95.929 129.775 95.5719 129.561 95.4843 129.209C95.3981 128.858 95.613 128.501 95.967 128.415Z" fill="#FFD500"/>
<path d="M99.4872 128.62C99.9326 128.777 100.359 128.945 100.764 129.125C101.096 129.274 101.244 129.662 101.094 129.992C100.945 130.323 100.554 130.47 100.221 130.321C99.8485 130.154 99.4564 130 99.0471 129.857C98.7034 129.736 98.5235 129.362 98.6448 129.02C98.7667 128.679 99.1435 128.499 99.4872 128.62Z" fill="#FFD500"/>
<path d="M102.545 130.249C102.899 130.56 103.231 130.875 103.538 131.193C103.79 131.455 103.78 131.87 103.517 132.12C103.254 132.371 102.836 132.362 102.584 132.1C102.301 131.806 101.996 131.517 101.67 131.232C101.397 130.991 101.372 130.577 101.613 130.306C101.854 130.036 102.272 130.008 102.545 130.249Z" fill="#FFD500"/>
<path d="M104.717 132.54C105.013 132.907 105.286 133.273 105.534 133.639C105.738 133.939 105.658 134.347 105.356 134.549C105.053 134.751 104.643 134.672 104.439 134.371C104.211 134.034 103.959 133.698 103.688 133.361C103.46 133.078 103.505 132.666 103.789 132.439C104.073 132.214 104.49 132.257 104.717 132.54Z" fill="#FFD500"/>
<path d="M106.764 135.454C106.999 135.862 107.212 136.266 107.4 136.665C107.554 136.994 107.412 137.384 107.082 137.537C106.752 137.69 106.358 137.548 106.204 137.22C106.031 136.852 105.835 136.481 105.619 136.107C105.438 135.792 105.547 135.392 105.863 135.211C106.179 135.032 106.583 135.14 106.764 135.454Z" fill="#FFD500"/>
<path d="M108.443 138.434C108.692 138.833 108.919 139.229 109.122 139.621C109.288 139.944 109.159 140.339 108.835 140.504C108.51 140.668 108.112 140.541 107.946 140.218C107.76 139.856 107.551 139.492 107.321 139.126C107.129 138.818 107.224 138.414 107.533 138.223C107.843 138.033 108.25 138.125 108.443 138.434Z" fill="#FFD500"/>
<path d="M38.8388 134.953H34.4979V142.053C34.4979 143.012 34.2133 143.793 33.644 144.396C33.0391 145 32.2563 145.284 31.2956 145.284C30.3349 145.284 29.5521 145 28.9828 144.396C28.3779 143.828 28.0933 143.047 28.0933 142.053V123.06C28.0933 122.101 28.3779 121.32 28.9828 120.717C29.5521 120.149 30.3349 119.865 31.2956 119.865C32.2563 119.865 33.0391 120.149 33.644 120.717C34.2133 121.32 34.4979 122.101 34.4979 123.06V129.77H42.1479L38.8388 134.953Z" fill="#531FBB"/>
<path d="M94.7781 120.013V142.179C94.7781 143.181 94.4798 143.974 93.8831 144.557C93.288 145.141 92.477 145.432 91.4516 145.432C90.4511 145.432 89.6582 145.141 89.0746 144.557C88.4911 143.974 88.1993 143.181 88.1993 142.179V123.052C88.1993 122.075 88.4614 121.325 88.9856 120.8C89.5098 120.276 90.2598 120.013 91.2373 120.013H94.7781Z" fill="#531FBB"/>
<path d="M113.243 140.154C113.843 139.793 114.24 139.203 114.434 138.385C114.434 138.385 117.749 125.824 118.242 123.445C118.736 121.066 118.365 120.024 115.843 119.623C113.321 119.223 112.531 121.463 112.531 121.463L109.067 137.125C108.872 137.942 108.957 138.645 109.32 139.233C109.683 139.821 110.273 140.211 111.089 140.402C111.926 140.599 112.644 140.516 113.243 140.154Z" fill="#531FBB"/>
<path fill-rule="evenodd" clip-rule="evenodd" d="M74.4803 139.173C77.0549 137.845 78.8224 135.119 78.8224 131.974C78.8224 127.526 75.2868 123.915 70.9325 123.915C68.5841 123.915 66.4742 124.966 65.0283 126.631L59.1929 120.545C62.148 117.379 66.3163 115.405 70.9325 115.405C79.8853 115.405 87.1527 122.83 87.1527 131.974C87.1527 138.68 83.2446 144.46 77.6302 147.068" fill="#531FBB"/>
<path fill-rule="evenodd" clip-rule="evenodd" d="M80.0019 124.773C76.1399 119.597 68.287 118.516 63.0852 122.361L63.0837 122.358C57.886 126.2 57.2968 133.523 61.16 138.7C65.0087 143.858 72.3238 144.953 77.5187 141.163C77.5317 141.116 77.5743 141.116 77.5743 141.116C82.7762 137.271 83.864 129.949 80.0019 124.773ZM78.9517 142.959C85.1756 138.358 86.4766 129.597 81.8551 123.403C77.2339 117.209 68.4296 115.916 62.2045 120.516L62.2027 120.513C55.9821 125.111 54.685 133.873 59.3079 140.069C63.9314 146.265 72.7343 147.561 78.955 142.963L78.9517 142.959Z" fill="url(#paint0_linear_3_496)"/>
<path d="M38.4485 116.803C37.5511 116.803 36.846 116.548 36.3011 116.005C35.7563 115.495 35.4678 114.793 35.4678 113.932V98.9069H30.9488C30.0193 98.9069 29.3142 98.7155 28.8655 98.3008C28.3848 97.918 28.1604 97.3119 28.1604 96.5144C28.1604 95.7169 28.3848 95.1108 28.8655 94.728C29.3142 94.3451 30.0193 94.1537 30.9488 94.1537H45.9482C46.8776 94.1537 47.5827 94.3451 48.0635 94.728C48.5122 95.1108 48.7365 95.7169 48.7365 96.5144C48.7365 97.3119 48.5122 97.918 48.0635 98.3008C47.5827 98.7155 46.8776 98.9069 45.9482 98.9069H41.4291V113.932C41.4291 114.793 41.1727 115.495 40.6279 116.005C40.083 116.548 39.3459 116.803 38.4485 116.803Z" fill="#531FBB"/>
<path d="M45.9482 98.9069H30.9488C30.0193 98.9069 29.3142 98.7155 28.8655 98.3008C28.3848 97.918 28.1604 97.3119 28.1604 96.5144C28.1604 95.7169 28.3848 95.1108 28.8655 94.728C29.3142 94.3451 30.0193 94.1537 30.9488 94.1537H45.9482C46.8776 94.1537 47.5827 94.3451 48.0635 94.728C48.5122 95.1108 48.7365 95.7169 48.7365 96.5144C48.7365 97.3119 48.5122 97.918 48.0635 98.3008C47.5827 98.7155 46.8776 98.9069 45.9482 98.9069Z" fill="#7B40ED"/>
<path d="M57.8723 111.611C58.3531 111.611 58.7697 111.803 59.0902 112.185C59.3787 112.568 59.5389 113.079 59.5389 113.685C59.5389 114.546 59.1223 115.184 58.289 115.631C57.5518 115.981 56.7185 116.3 55.725 116.524C54.7314 116.779 53.802 116.907 52.9687 116.907C51.2059 116.907 49.6996 116.588 48.3855 115.918C47.0715 115.248 46.0779 114.323 45.3728 113.079C44.6677 111.834 44.3152 110.399 44.3152 108.74C44.3152 107.177 44.6677 105.773 45.3408 104.497C46.0138 103.253 46.9433 102.296 48.1612 101.594C49.347 100.925 50.7252 100.574 52.2315 100.574C53.7058 100.574 54.9878 100.893 56.1096 101.531C57.2313 102.169 58.0967 103.062 58.7056 104.242C59.3146 105.422 59.603 106.794 59.603 108.357C59.603 108.836 59.5069 109.219 59.2825 109.474C59.0582 109.761 58.7056 109.888 58.289 109.888H49.8278C49.988 110.909 50.3085 111.643 50.8213 112.09C51.3341 112.536 52.1033 112.76 53.0969 112.76C53.6417 112.76 54.1225 112.696 54.5712 112.568C55.0199 112.472 55.5327 112.313 56.0775 112.09C56.398 111.962 56.7185 111.834 57.039 111.739C57.3275 111.643 57.6159 111.611 57.8723 111.611ZM52.3918 104.402C51.6546 104.402 51.0457 104.625 50.597 105.103C50.1483 105.582 49.8919 106.284 49.7957 107.209H54.8276C54.6994 105.327 53.8981 104.402 52.3918 104.402Z" fill="#0EBCC4"/>
<path d="M58.289 109.888C56.1416 109.888 54.9237 109.059 54.8276 107.209C54.6994 105.327 53.8981 104.402 52.3918 104.402C51.6546 104.402 51.0457 104.625 50.597 105.103C50.1483 105.582 49.8919 106.284 49.7957 107.209L49.8278 109.888C49.8919 110.303 49.9239 112.441 49.1547 113.174C48.0009 114.227 45.7895 113.812 45.3728 113.079C44.6677 111.834 44.3152 110.399 44.3152 108.74C44.3152 107.177 44.6677 105.773 45.3408 104.497C46.0138 103.253 46.9433 102.296 48.1612 101.594C49.347 100.925 50.7252 100.574 52.2315 100.574C53.7058 100.574 54.9878 100.893 56.1096 101.531C57.2313 102.169 58.0967 103.062 58.7056 104.242C59.3146 105.422 59.603 106.794 59.603 108.357C59.603 108.836 59.5069 109.219 59.2825 109.474C59.0582 109.761 58.7056 109.888 58.289 109.888Z" fill="#00DAE4"/>
<path d="M93.2342 94C94.0996 94 94.8047 94.2233 95.3495 94.7018C95.8944 95.1803 96.1508 95.8183 96.1508 96.552V114.225C96.1508 115.022 95.8944 115.66 95.3816 116.139C94.8688 116.617 94.1957 116.841 93.3304 116.841C91.2151 116.841 90.7343 116.107 90.574 115.437C90.574 115.341 90.574 114.895 90.574 114.895C90.574 114.895 89.5805 116.809 85.7024 116.904C84.3563 116.936 83.1384 116.554 82.1128 115.852C81.0231 115.182 80.2219 114.193 79.6129 112.949C79.004 111.705 78.7155 110.269 78.7155 108.642C78.7155 107.015 79.004 105.612 79.6129 104.368C80.1898 103.155 80.9911 102.23 82.0808 101.56C83.1384 100.89 84.3243 100.603 85.7024 100.571C87.8498 100.508 89.5484 101.05 90.4458 101.528V96.4563C90.4458 95.7226 90.7022 95.1165 91.215 94.6699C91.6958 94.2233 92.3689 94 93.2342 94ZM87.4011 112.662C88.3946 112.662 89.1638 112.311 89.7087 111.641C90.2535 110.971 90.51 109.982 90.51 108.706C90.51 107.462 90.2535 106.473 89.7087 105.803C89.1638 105.133 88.3946 104.814 87.4011 104.814C86.4075 104.814 85.6704 105.133 85.1255 105.803C84.5807 106.473 84.3243 107.398 84.3243 108.642C84.3243 109.918 84.5807 110.907 85.1255 111.609C85.6704 112.311 86.4396 112.662 87.4011 112.662Z" fill="#E79A14"/>
<path d="M93.2398 94C94.1051 94 94.8102 94.2233 95.3551 94.7018C95.8999 95.1803 96.1563 95.8183 96.1563 96.552V114.225C96.1563 115.022 95.8999 115.66 95.3871 116.139C94.8743 116.617 94.2013 116.841 93.3359 116.841C91.2206 116.841 90.7399 116.107 90.5796 115.437C90.5796 115.341 90.4514 101.528 90.4514 101.528V96.4563C90.4514 95.7226 90.7078 95.1165 91.2206 94.6699C91.7014 94.2233 92.3744 94 93.2398 94Z" fill="#FFA100"/>
<path d="M110.345 99.2283C110.569 98.686 110.89 98.3032 111.306 98.048C111.723 97.7928 112.172 97.6652 112.652 97.6652C113.357 97.6652 113.998 97.8885 114.543 98.367C115.088 98.8455 115.377 99.3878 115.377 100.058C115.377 100.409 115.28 100.759 115.12 101.11L105.121 121.048C104.864 121.59 104.544 121.973 104.127 122.228C103.71 122.484 103.23 122.611 102.749 122.611C102.044 122.611 101.435 122.388 100.89 121.941C100.345 121.463 100.057 120.92 100.057 120.251C100.057 119.9 100.153 119.517 100.345 119.134L102.428 114.955L96.9799 104.109C96.8197 103.726 96.7235 103.375 96.7235 103.088C96.7235 102.418 97.012 101.844 97.6209 101.334C98.2299 100.855 98.9029 100.632 99.6401 100.632C100.153 100.632 100.634 100.759 101.082 101.015C101.499 101.302 101.852 101.685 102.076 102.227L105.473 109.564L110.345 99.2283Z" fill="#0EBCC4"/>
<path d="M110.385 99.2283C110.609 98.686 110.93 98.3032 111.346 98.048C111.763 97.7928 112.212 97.6652 112.692 97.6652C113.397 97.6652 114.038 97.8885 114.583 98.367C115.128 98.8455 115.417 99.3878 115.417 100.058C115.417 100.409 115.32 100.759 115.16 101.11L105.161 121.048C104.904 121.59 104.584 121.973 104.167 122.228C103.75 122.484 103.27 122.611 102.789 122.611C102.084 122.611 101.475 122.388 100.93 121.941C100.385 121.463 100.097 120.92 100.097 120.251C100.097 119.9 100.193 119.517 100.385 119.134L102.468 114.955L105.513 109.564L110.385 99.2283Z" fill="#00DAE4"/>
<path d="M75.131 94C75.9963 94 76.7014 94.2233 77.2463 94.7018C77.7911 95.1803 78.0475 95.8183 78.0475 96.552V114.225C78.0475 115.022 77.7911 115.66 77.2783 116.139C76.7655 116.617 76.0925 116.841 75.2271 116.841C73.1118 116.841 72.6311 116.107 72.4708 115.437C72.4708 115.341 72.4708 114.895 72.4708 114.895C72.4708 114.895 71.4773 116.809 67.5992 116.904C66.2531 116.936 65.0352 116.554 64.0096 115.852C62.9199 115.182 62.1187 114.193 61.5097 112.949C60.9008 111.705 60.6123 110.269 60.6123 108.642C60.6123 107.015 60.9008 105.612 61.5097 104.368C62.0866 103.155 62.8879 102.23 63.9776 101.56C65.0352 100.89 66.2211 100.603 67.5992 100.571C69.7466 100.508 71.4452 101.05 72.3426 101.528V96.4563C72.3426 95.7226 72.599 95.1165 73.1118 94.6699C73.5926 94.2233 74.2656 94 75.131 94ZM68.4325 112.662C69.4581 112.662 70.2273 112.311 70.7401 111.641C71.285 110.971 71.5414 109.982 71.5414 108.706C71.5414 107.462 71.285 106.473 70.7401 105.803C70.2273 105.133 69.4581 104.814 68.4325 104.814C67.471 104.814 66.7018 105.133 66.157 105.803C65.6442 106.473 65.3557 107.398 65.3557 108.642C65.3557 109.918 65.6442 110.907 66.189 111.609C66.7339 112.311 67.471 112.662 68.4325 112.662Z" fill="#DC5709"/>
<path d="M72.4708 114.89C72.4708 114.89 71.4773 116.804 67.5992 116.9C66.2531 116.932 65.0352 116.549 64.0096 115.847C62.9199 115.177 62.1187 114.188 61.5097 112.944C60.9008 111.7 60.6123 110.265 60.6123 108.638C60.6123 107.011 60.9008 105.607 61.5097 104.363C62.0866 103.151 62.8879 102.226 63.9776 101.556C65.0352 100.886 66.2211 100.599 67.5992 100.567C69.7466 100.503 71.4452 101.045 72.3426 101.524C72.3426 101.524 74.7784 102.896 73.881 105.033C73.1439 106.915 71.0286 106.15 70.7401 105.799C70.2273 105.129 69.4581 104.81 68.4325 104.81C67.471 104.81 66.7018 105.129 66.157 105.799C65.6442 106.469 65.3557 107.394 65.3557 108.638C65.3557 109.914 65.6442 110.903 66.189 111.604C66.7339 112.306 67.471 112.657 68.4325 112.657C69.4581 112.657 70.2273 112.306 70.7401 111.636C71.0606 111.254 72.3106 110.871 72.8875 111.828C73.9772 113.646 72.4708 114.89 72.4708 114.89Z" fill="#FF5E00"/>
<ellipse cx="110.477" cy="143.351" rx="2.5418" ry="2.52703" fill="#531FBB"/>
<path d="M199 190C199 181.163 206.163 174 215 174H341V200C341 208.837 333.837 216 325 216H199V190Z" fill="#FF960A"/>
<g clip-path="url(#clip0_3_496)">
<path d="M233.661 195.232C235.08 195.984 235.08 198.016 233.661 198.768L222.936 204.446C221.604 205.151 220 204.185 220 202.678L220 191.322C220 189.815 221.604 188.849 222.936 189.554L233.661 195.232Z" fill="#3620A5"/>
<path d="M245.08 201.5H248.05V198.008H249.256C252.208 198.008 254.152 196.406 254.152 193.958C254.152 191.546 252.208 189.962 249.274 189.962H245.08V201.5ZM249.508 192.572C250.408 192.572 251.002 193.13 251.002 193.958C251.002 194.822 250.408 195.398 249.508 195.398H248.05V192.572H249.508ZM255.682 201.5H258.58V189.116H255.682V201.5ZM266.526 201.5H269.424V192.878H266.526V193.598C266.022 192.968 265.284 192.608 264.33 192.608C261.972 192.608 260.244 194.552 260.244 197.198C260.244 199.97 262.134 201.77 264.33 201.77C265.284 201.77 266.004 201.356 266.526 200.69V201.5ZM264.834 199.052C263.862 199.052 263.142 198.242 263.142 197.198C263.142 196.136 263.862 195.326 264.834 195.326C265.806 195.326 266.526 196.136 266.526 197.198C266.526 198.242 265.806 199.052 264.834 199.052ZM273.849 192.878H270.645L274.623 201.644C274.335 202.31 273.975 202.58 273.453 202.58C272.985 202.58 272.481 202.4 272.049 201.986L270.771 204.254C271.365 204.812 272.355 205.298 273.471 205.298C275.037 205.298 276.369 204.506 277.161 202.238L280.455 192.878H277.539L275.883 197.864L273.849 192.878ZM292.871 201.5H296.057V189.962H293.087V196.64L288.857 189.962H285.671V201.5H288.641V194.93L292.871 201.5ZM302.398 201.77C304.918 201.77 306.988 199.718 306.988 197.198C306.988 194.66 304.918 192.608 302.398 192.608C299.878 192.608 297.808 194.66 297.808 197.198C297.808 199.718 299.878 201.77 302.398 201.77ZM302.398 199.052C301.426 199.052 300.706 198.242 300.706 197.198C300.706 196.136 301.426 195.326 302.398 195.326C303.37 195.326 304.09 196.136 304.09 197.198C304.09 198.242 303.37 199.052 302.398 199.052ZM318.617 192.878L317.429 198.404L316.097 192.878H312.983L311.705 198.35L310.571 192.878H307.475L310.013 201.5H313.271L314.387 196.496L315.557 201.5H319.175L321.713 192.878H318.617Z" fill="#3620A5"/>
</g>
<defs>
<linearGradient id="paint0_linear_3_496" x1="78.5636" y1="147.102" x2="59.019" y2="124.43" gradientUnits="userSpaceOnUse">
<stop stop-color="#7B40ED"/>
<stop offset="1" stop-color="#7B40ED" stop-opacity="0"/>
</linearGradient>
<clipPath id="clip0_3_496">
<rect width="116" height="30" fill="white" transform="translate(220 182)"/>
</clipPath>
</defs>
</svg>
