<svg width="108" height="56" viewBox="0 0 108 56" fill="none" xmlns="http://www.w3.org/2000/svg">
<path d="M12.6474 28.1287C11.5442 28.1287 10.6774 27.814 10.0076 27.1451C9.33779 26.5156 8.98319 25.65 8.98319 24.5877V6.05643H3.4278C2.2852 6.05643 1.4184 5.82036 0.866799 5.30888C0.2758 4.83675 0 4.0892 0 3.10559C0 2.12197 0.2758 1.37443 0.866799 0.902294C1.4184 0.430159 2.2852 0.194092 3.4278 0.194092H21.867C23.0096 0.194092 23.8764 0.430159 24.4674 0.902294C25.019 1.37443 25.2948 2.12197 25.2948 3.10559C25.2948 4.0892 25.019 4.83675 24.4674 5.30888C23.8764 5.82036 23.0096 6.05643 21.867 6.05643H16.3116V24.5877C16.3116 25.65 15.9964 26.5156 15.3266 27.1451C14.6568 27.814 13.7506 28.1287 12.6474 28.1287Z" fill="#531FBB"/>
<path d="M21.867 6.05642H3.4278C2.2852 6.05642 1.4184 5.82036 0.866799 5.30888C0.2758 4.83674 0 4.0892 0 3.10559C0 2.12197 0.2758 1.37443 0.866799 0.902293C1.4184 0.430159 2.2852 0.194092 3.4278 0.194092H21.867C23.0096 0.194092 23.8764 0.430159 24.4674 0.902293C25.019 1.37443 25.2948 2.12197 25.2948 3.10559C25.2948 4.0892 25.019 4.83674 24.4674 5.30888C23.8764 5.82036 23.0096 6.05642 21.867 6.05642Z" fill="#7B40ED"/>
<path d="M36.5445 21.7225C37.1355 21.7225 37.6477 21.9585 38.0417 22.4307C38.3963 22.9028 38.5933 23.5323 38.5933 24.2799C38.5933 25.3422 38.0811 26.1291 37.0567 26.6799C36.1505 27.1127 35.1261 27.5061 33.9047 27.7815C32.6833 28.0963 31.5407 28.2537 30.5163 28.2537C28.3493 28.2537 26.4975 27.8602 24.8821 27.034C23.2667 26.2078 22.0453 25.0668 21.1785 23.5323C20.3117 21.9979 19.8783 20.2274 19.8783 18.1815C19.8783 16.2536 20.3117 14.5224 21.1391 12.9486C21.9665 11.4142 23.1091 10.2339 24.6063 9.36828C26.0641 8.54204 27.7583 8.10925 29.6101 8.10925C31.4225 8.10925 32.9985 8.5027 34.3775 9.28959C35.7565 10.0765 36.8203 11.1781 37.5689 12.6339C38.3175 14.0896 38.6721 15.7814 38.6721 17.7093C38.6721 18.2995 38.5539 18.7716 38.2781 19.0864C38.0023 19.4405 37.5689 19.5979 37.0567 19.5979H26.6551C26.8521 20.8569 27.2461 21.7618 27.8765 22.3126C28.5069 22.8635 29.4525 23.1389 30.6739 23.1389C31.3437 23.1389 31.9347 23.0602 32.4863 22.9028C33.0379 22.7848 33.6683 22.5881 34.3381 22.3126C34.7321 22.1553 35.1261 21.9979 35.5201 21.8799C35.8747 21.7618 36.2293 21.7225 36.5445 21.7225ZM29.8071 12.8306C28.9009 12.8306 28.1523 13.106 27.6007 13.6962C27.0491 14.2864 26.7339 15.1519 26.6157 16.2929H32.8015C32.6439 13.9716 31.6589 12.8306 29.8071 12.8306Z" fill="#0EBCC4"/>
<path d="M37.0567 19.5979C34.4169 19.5979 32.9197 18.5749 32.8015 16.2929C32.6439 13.9716 31.6589 12.8306 29.8071 12.8306C28.9009 12.8306 28.1523 13.106 27.6007 13.6962C27.0491 14.2863 26.7339 15.1519 26.6157 16.2929L26.6551 19.5979C26.7339 20.1093 26.7733 22.7454 25.8277 23.6504C24.4093 24.9487 21.6907 24.4372 21.1785 23.5323C20.3117 21.9979 19.8783 20.2274 19.8783 18.1815C19.8783 16.2536 20.3117 14.5224 21.1391 12.9486C21.9665 11.4142 23.1091 10.2339 24.6063 9.36828C26.0641 8.54204 27.7583 8.10925 29.6101 8.10925C31.4225 8.10925 32.9985 8.5027 34.3775 9.28959C35.7565 10.0765 36.8203 11.1781 37.5689 12.6339C38.3175 14.0896 38.6721 15.7814 38.6721 17.7093C38.6721 18.2995 38.5539 18.7716 38.2781 19.0864C38.0023 19.4405 37.5689 19.5979 37.0567 19.5979Z" fill="#00DAE4"/>
<path d="M57.7159 0C58.7797 0 59.6465 0.27541 60.3163 0.865579C60.9861 1.45575 61.3013 2.24264 61.3013 3.14756V24.9445C61.3013 25.9281 60.9861 26.715 60.3557 27.3051C59.7253 27.8953 58.8979 28.1707 57.8341 28.1707C55.2337 28.1707 54.6427 27.2658 54.4457 26.4395C54.4457 26.3215 54.4457 25.7707 54.4457 25.7707C54.4457 25.7707 53.2243 28.1314 48.4569 28.2494C46.8021 28.2887 45.3049 27.8166 44.0441 26.951C42.7045 26.1248 41.7195 24.9051 40.9709 23.3707C40.2223 21.8362 39.8677 20.0657 39.8677 18.0592C39.8677 16.0526 40.2223 14.3214 40.9709 12.787C41.6801 11.2919 42.6651 10.1509 44.0047 9.32466C45.3049 8.49842 46.7627 8.14432 48.4569 8.10498C51.0967 8.02629 53.1849 8.69515 54.2881 9.28531V3.02953C54.2881 2.1246 54.6033 1.37706 55.2337 0.826234C55.8247 0.275411 56.6521 0 57.7159 0ZM49.4813 23.0166C50.7421 23.0166 51.6877 22.5838 52.3181 21.7575C52.9879 20.9313 53.3031 19.7116 53.3031 18.1378C53.3031 16.6034 52.9879 15.3837 52.3181 14.5575C51.6877 13.7312 50.7421 13.3378 49.4813 13.3378C48.2993 13.3378 47.3537 13.7312 46.6839 14.5575C46.0535 15.3837 45.6989 16.5247 45.6989 18.0592C45.6989 19.6329 46.0535 20.8526 46.7233 21.7182C47.3931 22.5838 48.2993 23.0166 49.4813 23.0166Z" fill="#E35603"/>
<path d="M54.4457 25.7675C54.4457 25.7675 53.2243 28.1281 48.4569 28.2462C46.8021 28.2855 45.3049 27.8134 44.0441 26.9478C42.7045 26.1216 41.7195 24.9019 40.9709 23.3675C40.2223 21.833 39.8677 20.0625 39.8677 18.0559C39.8677 16.0494 40.2223 14.3182 40.9709 12.7838C41.6801 11.2887 42.6651 10.1477 44.0047 9.32145C45.3049 8.49521 46.7627 8.14111 48.4569 8.10177C51.0967 8.02308 53.1849 8.69194 54.2881 9.2821C54.2881 9.2821 57.2825 10.9739 56.1793 13.61C55.2731 15.9313 52.6727 14.9871 52.3181 14.5543C51.6877 13.728 50.7421 13.3346 49.4813 13.3346C48.2993 13.3346 47.3537 13.728 46.6839 14.5543C46.0535 15.3805 45.6989 16.5215 45.6989 18.0559C45.6989 19.6297 46.0535 20.8494 46.7233 21.715C47.3931 22.5806 48.2993 23.0133 49.4813 23.0133C50.7421 23.0133 51.6877 22.5806 52.3181 21.7543C52.7121 21.2822 54.2487 20.8101 54.9579 21.9904C56.2975 24.233 54.4457 25.7675 54.4457 25.7675Z" fill="#FF5E00"/>
<path d="M80.0373 0C81.1011 0 81.9679 0.27541 82.6377 0.865579C83.3075 1.45575 83.6227 2.24264 83.6227 3.14756V24.9445C83.6227 25.9281 83.3075 26.715 82.6771 27.3051C82.0467 27.8953 81.2193 28.1707 80.1555 28.1707C77.5551 28.1707 76.9641 27.2658 76.7671 26.4395C76.7671 26.3215 76.7671 25.7707 76.7671 25.7707C76.7671 25.7707 75.5457 28.1314 70.7783 28.2494C69.1235 28.2887 67.6263 27.8166 66.3655 26.951C65.0259 26.1248 64.0409 24.9051 63.2923 23.3707C62.5437 21.8362 62.1891 20.0657 62.1891 18.0592C62.1891 16.0526 62.5437 14.3214 63.2923 12.787C64.0015 11.2919 64.9865 10.1509 66.3261 9.32466C67.6263 8.49842 69.0841 8.14432 70.7783 8.10498C73.4181 8.02629 75.5063 8.69515 76.6095 9.28531V3.02953C76.6095 2.1246 76.9247 1.37706 77.5551 0.826234C78.1461 0.275411 78.9735 0 80.0373 0ZM72.8665 23.0166C74.0879 23.0166 75.0335 22.5838 75.7033 21.7575C76.3731 20.9313 76.6883 19.7116 76.6883 18.1378C76.6883 16.6034 76.3731 15.3837 75.7033 14.5575C75.0335 13.7312 74.0879 13.3378 72.8665 13.3378C71.6451 13.3378 70.7389 13.7312 70.0691 14.5575C69.3993 15.3837 69.0841 16.5247 69.0841 18.0592C69.0841 19.6329 69.3993 20.8526 70.0691 21.7182C70.7389 22.5838 71.6845 23.0166 72.8665 23.0166Z" fill="#E89D1A"/>
<path d="M80.0537 0C81.1175 0 81.9843 0.27541 82.6541 0.865579C83.3239 1.45575 83.6391 2.24264 83.6391 3.14756V24.9445C83.6391 25.9281 83.3239 26.715 82.6935 27.3051C82.0631 27.8953 81.2357 28.1707 80.1719 28.1707C77.5715 28.1707 76.9805 27.2658 76.7835 26.4395C76.7835 26.3215 76.6259 9.28532 76.6259 9.28532V3.02953C76.6259 2.1246 76.9411 1.37706 77.5715 0.826235C78.1625 0.275411 78.9899 0 80.0537 0Z" fill="#FFA100"/>
<path d="M101.033 6.44687C101.309 5.77801 101.703 5.30587 102.215 4.99112C102.728 4.67636 103.279 4.51898 103.87 4.51898C104.737 4.51898 105.525 4.79439 106.195 5.38456C106.865 5.97473 107.219 6.64359 107.219 7.46983C107.219 7.90262 107.101 8.3354 106.904 8.7682L94.6112 33.3585C94.296 34.0274 93.902 34.4995 93.3898 34.8143C92.8776 35.129 92.2866 35.2864 91.6956 35.2864C90.8288 35.2864 90.0802 35.011 89.4104 34.4602C88.7406 33.87 88.386 33.2012 88.386 32.3749C88.386 31.9421 88.5042 31.47 88.7406 30.9979L91.3016 25.8437L84.6037 12.4666C84.4067 11.9944 84.2885 11.5617 84.2885 11.2076C84.2885 10.3813 84.6431 9.67312 85.3917 9.04361C86.1403 8.45344 86.9676 8.17803 87.8738 8.17803C88.5042 8.17803 89.0952 8.3354 89.6468 8.65016C90.159 9.00426 90.5924 9.4764 90.8682 10.1453L95.0446 19.1945L101.033 6.44687Z" fill="#0EBCC4"/>
<path d="M101.045 6.44687C101.321 5.77801 101.715 5.30587 102.227 4.99112C102.739 4.67636 103.291 4.51898 103.882 4.51898C104.748 4.51898 105.536 4.79439 106.206 5.38456C106.876 5.97473 107.231 6.64359 107.231 7.46983C107.231 7.90262 107.112 8.3354 106.915 8.7682L94.6226 33.3585C94.3074 34.0274 93.9134 34.4995 93.4012 34.8143C92.889 35.129 92.298 35.2864 91.707 35.2864C90.8402 35.2864 90.0916 35.011 89.4218 34.4602C88.752 33.87 88.3974 33.2012 88.3974 32.3749C88.3974 31.9421 88.5156 31.47 88.752 30.9979L91.313 25.8437L95.056 19.1945L101.045 6.44687Z" fill="#00DAE4"/>
<path d="M18.8745 50.3274C19.2208 50.8462 19.394 51.3361 19.394 51.7972C19.394 52.4025 19.1343 52.9212 18.6436 53.3247C18.1242 53.757 17.5181 53.9587 16.8543 53.9587C16.3925 53.9587 15.9596 53.8434 15.5556 53.6417C15.1516 53.44 14.8052 53.1229 14.5166 52.6906L9.00436 44.2465C8.74462 43.8719 8.45602 43.5837 8.16741 43.3819C7.84995 43.209 7.50363 43.1226 7.09959 43.1226H5.22368V48.2813C5.22368 49.0882 4.9928 49.7222 4.53104 50.1833C4.06928 50.6733 3.43435 50.9038 2.62627 50.9038C1.81819 50.9038 1.18326 50.6733 0.721503 50.1833C0.230881 49.7222 0 49.0882 0 48.2813V32.8628C0 32.0847 0.202021 31.4795 0.634923 31.0472C1.06782 30.6149 1.67389 30.4131 2.45311 30.4131H9.697C12.1501 30.4131 14.026 30.9319 15.267 31.9982C16.508 33.0934 17.1141 34.6208 17.1141 36.6382C17.1141 38.1656 16.6811 39.4625 15.8442 40.5288C15.0073 41.5951 13.2179 42.575 13.2179 42.575C13.2179 42.575 14.8918 44.1312 15.3536 44.7941L18.8745 50.3274ZM8.86006 39.1455C10.0433 39.1455 10.8803 38.9725 11.3997 38.5979C11.8904 38.2232 12.1501 37.6468 12.1501 36.8111C12.1501 35.9753 11.8904 35.3413 11.3997 34.9666C10.8803 34.592 10.0433 34.4191 8.86006 34.4191H5.16596V39.1455H8.86006Z" fill="#531FBB"/>
<path d="M24.0528 50.9525C22.712 50.9525 21.5451 50.6503 20.5271 50.0734C19.5091 49.4965 18.7145 48.6998 18.1683 47.6284C17.5972 46.5569 17.3241 45.3207 17.3241 43.8921C17.3241 42.4636 17.5972 41.2273 18.1683 40.1559C18.7145 39.112 19.4842 38.3153 20.5022 37.7384C21.5202 37.1614 22.6872 36.8867 24.0528 36.8867C25.4184 36.8867 26.5854 37.1614 27.6034 37.7384C28.6214 38.3153 29.3911 39.112 29.9622 40.1559C30.5084 41.2273 30.7815 42.4636 30.7815 43.8921C30.7815 45.3207 30.5084 46.5569 29.9622 47.6284C29.3911 48.6998 28.6214 49.4965 27.6034 50.0734C26.5854 50.6503 25.4184 50.9525 24.0528 50.9525ZM24.0528 47.2987C25.617 47.2987 26.4116 46.1723 26.4116 43.8921C26.4116 41.6119 25.617 40.4856 24.0528 40.4856C22.4886 40.4856 21.694 41.6119 21.694 43.8921C21.694 46.1723 22.4886 47.2987 24.0528 47.2987Z" fill="#531FBB"/>
<path d="M43.5121 36.9422C44.2549 36.9422 44.8601 37.1345 45.3003 37.5466C45.7405 37.9587 45.9605 38.5081 45.9605 39.195V48.7004C45.9605 49.3322 45.7405 49.8542 45.2728 50.2663C44.8051 50.6784 44.2274 50.8981 43.4846 50.8981C42.8243 50.8981 42.2741 50.7333 41.8614 50.3487C41.4487 49.9915 41.2287 49.5245 41.2012 48.9201C40.7885 49.5795 40.2383 50.074 39.6055 50.4311C38.9453 50.7882 38.2025 50.9531 37.3496 50.9531C35.6164 50.9531 34.3234 50.4586 33.4706 49.497C32.6177 48.5355 32.2051 47.0795 32.2051 45.129V39.195C32.2051 38.5081 32.4252 37.9587 32.8653 37.5466C33.3055 37.1345 33.9108 36.9422 34.6536 36.9422C35.3963 36.9422 36.0016 37.1345 36.4418 37.5466C36.8819 37.9587 37.102 38.5081 37.102 39.195V45.2388C37.102 46.5575 37.6798 47.2168 38.8077 47.2168C39.468 47.2168 40.0182 46.9696 40.4308 46.5026C40.8435 46.0355 41.0636 45.4037 41.0636 44.6345V39.195C41.0636 38.5081 41.2837 37.9587 41.7239 37.5466C42.164 37.1345 42.7693 36.9422 43.5121 36.9422Z" fill="#531FBB"/>
<path d="M56.6333 36.8101C58.0089 36.9474 59.1093 37.3595 59.9071 38.3211C60.705 39.2826 61.0901 40.7661 61.0901 42.7166V48.6506C61.0901 49.3374 60.87 49.8869 60.4298 50.2989C59.9897 50.711 59.3844 50.9033 58.6416 50.9033C57.8988 50.9033 57.2936 50.711 56.8534 50.2989C56.4133 49.8869 56.1932 49.3374 56.1932 48.6506V42.9364C56.1932 42.1397 56.0556 41.5353 55.7805 41.1782C55.4779 40.821 55.0652 40.6287 54.4875 40.6287C53.7447 40.6287 53.167 40.8485 52.7543 41.3155C52.3141 41.7826 52.0941 42.4144 52.0941 43.2111V48.6506C52.0941 49.3374 51.874 49.8869 51.4338 50.2989C50.9936 50.711 50.3884 50.9033 49.6456 50.9033C48.9028 50.9033 48.2975 50.711 47.8574 50.2989C47.4172 49.8869 47.1971 49.3374 47.1971 48.6506V39.1452C47.1971 38.5134 47.4172 37.9914 47.8849 37.5518C48.3526 37.1398 48.9303 36.9474 49.6731 36.9474C50.3609 36.9474 50.8286 37.0848 51.2412 37.4694C51.7639 38.0189 51.7364 38.4309 51.7364 38.4309C51.7364 38.4309 52.0665 37.6343 53.112 37.2222C54.2674 36.7551 55.7255 36.7002 56.6333 36.8101Z" fill="#531FBB"/>
<path d="M74.2074 31.231C74.9502 31.231 75.5554 31.4233 76.0231 31.8354C76.4908 32.2475 76.7109 32.7969 76.7109 33.4288V48.6484C76.7109 49.3352 76.4908 49.8847 76.0506 50.2968C75.6104 50.7088 75.0327 50.9011 74.2899 50.9011C73.6021 50.9011 73.0519 50.7363 72.6393 50.3517C72.1991 49.9946 71.9515 49.5275 71.8965 48.8957C71.5113 49.5275 70.9611 50.0495 70.2183 50.4066C69.4755 50.7638 68.6502 50.9561 67.7423 50.9561C66.5869 50.9561 65.5414 50.6539 64.6611 50.0495C63.7257 49.4726 63.0379 48.6209 62.5152 47.5495C61.9925 46.4781 61.7449 45.2419 61.7449 43.8408C61.7449 42.4397 61.9925 41.2309 62.5152 40.1595C63.0104 39.1156 63.6982 38.3189 64.6336 37.7419C65.5414 37.165 66.5593 36.8903 67.7423 36.8903C68.5952 36.8903 69.393 37.0551 70.1358 37.4123C70.8511 37.7694 71.4013 38.2364 71.8139 38.8134V33.3464C71.8139 32.7145 72.034 32.1925 72.4742 31.8079C72.8869 31.4233 73.4646 31.231 74.2074 31.231ZM68.155 47.3023C69.0353 47.3023 69.6956 47.0001 70.1358 46.4232C70.6035 45.8462 70.8235 44.9946 70.8235 43.8957C70.8235 42.8243 70.6035 41.9727 70.1358 41.3957C69.6956 40.8188 69.0353 40.5441 68.155 40.5441C67.3297 40.5441 66.6694 40.8188 66.2017 41.3957C65.7615 41.9727 65.5139 42.7694 65.5139 43.8408C65.5139 44.9397 65.7615 45.7913 66.2292 46.3957C66.6969 47.0001 67.3297 47.3023 68.155 47.3023Z" fill="#531FBB"/>
<path d="M89.1544 36.9422C89.8972 36.9422 90.5025 37.1345 90.9426 37.5466C91.3828 37.9587 91.6029 38.5081 91.6029 39.195V48.7004C91.6029 49.3322 91.3828 49.8542 90.9151 50.2663C90.4474 50.6784 89.8697 50.8981 89.1269 50.8981C88.4666 50.8981 87.9164 50.7333 87.5038 50.3487C87.0911 49.9915 86.871 49.5245 86.8435 48.9201C86.4308 49.5795 85.8806 50.074 85.2479 50.4311C84.5876 50.7882 83.8448 50.9531 82.992 50.9531C81.2588 50.9531 79.9658 50.4586 79.1129 49.497C78.2601 48.5355 77.8474 47.0795 77.8474 45.129V39.195C77.8474 38.5081 78.0675 37.9587 78.5077 37.5466C78.9479 37.1345 79.5531 36.9422 80.2959 36.9422C81.0387 36.9422 81.6439 37.1345 82.0841 37.5466C82.5243 37.9587 82.7444 38.5081 82.7444 39.195V45.2388C82.7444 46.5575 83.3221 47.2168 84.4501 47.2168C85.1103 47.2168 85.6605 46.9696 86.0732 46.5026C86.4859 46.0355 86.706 45.4037 86.706 44.6345V39.195C86.706 38.5081 86.926 37.9587 87.3662 37.5466C87.8064 37.1345 88.4116 36.9422 89.1544 36.9422Z" fill="#531FBB"/>
<path d="M102.03 36.8867C103.186 36.8867 104.231 37.1889 105.139 37.7658C106.047 38.3702 106.734 39.2219 107.257 40.2933C107.752 41.3647 108 42.6009 108 44.002C108 44.5789 107.945 45.1009 107.862 45.6229C107.752 46.3646 107.532 47.0514 107.257 47.6558C106.734 48.7272 106.047 49.5239 105.139 50.1009C104.231 50.6778 103.213 50.9525 102.03 50.9525C101.177 50.9525 100.379 50.7877 99.6642 50.4305C98.9214 50.0734 98.3712 49.6064 97.9585 49.0294V53.6997C97.9585 54.3316 97.7384 54.8536 97.2982 55.2382C96.8581 55.6228 96.2803 55.8151 95.565 55.8151C94.8223 55.8151 94.217 55.6228 93.7493 55.2107C93.2816 54.7986 93.0616 54.2492 93.0616 53.6173V39.1944C93.0616 38.5076 93.2816 37.9856 93.7218 37.5461C94.1345 37.134 94.7122 36.9417 95.455 36.9417C95.8126 36.9417 96.638 36.9142 97.1607 37.2439C97.6559 37.5735 97.8209 38.2603 97.8485 38.5625C98.2336 37.9307 98.8113 37.601 99.4441 37.3263C100.214 36.9966 101.122 36.8867 102.03 36.8867ZM101.617 47.2987C102.443 47.2987 103.103 47.024 103.543 46.4471C104.011 45.8701 104.231 45.0734 104.231 44.002C104.231 42.8757 103.983 42.024 103.543 41.4196C103.076 40.8427 102.415 40.5405 101.59 40.5405C100.737 40.5405 100.077 40.8427 99.6367 41.4196C99.169 41.9966 98.9489 42.8482 98.9489 43.9471C98.9489 45.0185 99.169 45.8427 99.6367 46.4196C100.077 47.024 100.737 47.2987 101.617 47.2987Z" fill="#531FBB"/>
</svg>
