<svg width="29" height="24" viewBox="0 0 29 24" fill="none" xmlns="http://www.w3.org/2000/svg">
<path d="M28.5263 3.36821C27.4752 3.82925 26.3553 4.13485 25.1877 4.28323C26.3889 3.56605 27.3056 2.43906 27.7367 1.08067C26.6167 1.74839 25.3802 2.22003 24.0625 2.48323C22.9991 1.35094 21.4834 0.649658 19.8301 0.649658C16.6222 0.649658 14.0397 3.25339 14.0397 6.44535C14.0397 6.90463 14.0785 7.34624 14.1739 7.76665C9.35683 7.53172 5.0944 5.22298 2.231 1.70599C1.7311 2.57331 1.43787 3.56605 1.43787 4.63475C1.43787 6.64143 2.47124 8.42024 4.01157 9.45007C3.08066 9.43241 2.16741 9.16214 1.39371 8.73643C1.39371 8.75409 1.39371 8.77706 1.39371 8.80002C1.39371 11.6157 3.40215 13.9545 6.03592 14.4933C5.56428 14.6222 5.05024 14.684 4.51678 14.684C4.14582 14.684 3.77134 14.6628 3.41982 14.5851C4.17055 16.8797 6.30088 18.5667 8.83396 18.6214C6.86261 20.1635 4.35956 21.0927 1.64984 21.0927C1.17467 21.0927 0.718926 21.0715 0.263184 21.0132C2.82982 22.6684 5.87164 23.6134 9.15192 23.6134C19.8142 23.6134 25.6434 14.7812 25.6434 7.12543C25.6434 6.8693 25.6346 6.622 25.6222 6.37646C26.7722 5.56037 27.7384 4.54113 28.5263 3.36821Z" fill="#FF960A"/>
</svg>
