<svg width="121" height="46" viewBox="0 0 121 46" fill="none" xmlns="http://www.w3.org/2000/svg">
<g clip-path="url(#clip0_2_818)">
<path d="M112.968 30.2199C112.488 30.0628 112.127 29.7522 111.91 29.3346C111.658 28.9056 111.595 28.3456 111.665 27.7135L113.047 16.1841C113.054 16.0321 113.104 15.856 113.176 15.6097C113.482 14.5538 114.069 13.8212 114.963 13.4584C115.812 13.1194 116.762 13.0831 117.826 13.4306C118.89 13.7784 119.691 14.3866 120.204 15.2093C120.717 16.032 120.816 16.9888 120.51 18.0447C120.439 18.2912 120.388 18.4671 120.313 18.5968L115.337 28.9137C115.095 29.4896 114.747 29.9151 114.346 30.1308C113.911 30.3354 113.449 30.3768 112.968 30.2199ZM110.535 38.6321C109.574 38.3181 108.876 37.7434 108.452 36.8728C107.993 35.9908 107.918 35.0804 108.193 34.1302C108.468 33.1798 109.011 32.4712 109.857 32.0156C110.668 31.5487 111.549 31.4899 112.51 31.8038C113.437 32.1066 114.134 32.6811 114.593 33.5631C115.018 34.4337 115.092 35.3442 114.817 36.2944C114.542 37.2446 113.999 37.9533 113.188 38.4202C112.342 38.8761 111.461 38.9349 110.535 38.6321Z" fill="#531FBB"/>
<path d="M70.775 33.7168C76.8631 33.8065 81.8682 28.7915 81.9546 22.5154C82.0408 16.2394 77.1751 11.0788 71.0871 10.989C64.999 10.8993 59.9939 15.9143 59.9075 22.1903C59.8215 28.4664 64.6872 33.6271 70.775 33.7168Z" fill="#531FBB"/>
<path d="M71.0581 32.2279C76.1251 32.3026 80.2932 27.9594 80.3679 22.5272C80.4423 17.0949 76.3952 12.6305 71.3282 12.5558C66.2611 12.4812 62.093 16.8243 62.0183 22.2566C61.9438 27.689 65.991 32.1532 71.0581 32.2279Z" fill="black"/>
<path fill-rule="evenodd" clip-rule="evenodd" d="M71.4476 11.5231C65.8282 11.4401 61.1697 16.2364 61.0868 22.2606C61.0041 28.2867 65.5307 33.2196 71.1517 33.3025C76.7711 33.3853 81.4297 28.5892 81.5125 22.5649C81.5952 16.5389 77.0687 11.606 71.4476 11.5231ZM71.4401 12.1792C76.7084 12.2569 80.9218 16.9053 80.8444 22.5535C80.767 28.2016 76.4275 32.7238 71.1591 32.6462C65.8906 32.5686 61.6763 27.92 61.7542 22.272C61.8317 16.6238 66.1719 12.1014 71.4401 12.1792Z" fill="url(#paint0_linear_2_818)"/>
<path d="M36.9654 10.9306L36.8742 29.4942C36.863 31.761 35.3686 33.7568 33.1853 34.4206L32.8783 34.5139C30.536 35.2261 28.0094 34.2248 26.8042 32.1069L20.0461 20.2314L21.1555 33.8245C21.3533 36.2487 19.8259 38.4824 17.4837 39.1946C15.3005 39.8584 12.9355 39.0359 11.6461 37.1645L1.08649 21.839C-0.155032 20.0371 0.719106 17.5575 2.82124 16.9184L3.16703 16.8133C4.58462 16.3824 6.11684 16.9552 6.8963 18.2076L15.4164 31.8989L14.3043 17.6395C14.1168 15.2344 15.6349 13.0227 17.9582 12.3162C20.2814 11.6099 22.788 12.598 23.991 14.6944L31.1232 27.1234L30.448 11.0472C30.3863 9.57657 31.3319 8.25041 32.7493 7.81935C34.8516 7.18012 36.9761 8.74798 36.9654 10.9306Z" fill="url(#paint1_linear_2_818)"/>
<path d="M87.556 8.19193C89.3659 8.3259 90.7239 9.89096 90.5891 11.6876L89.0486 32.2075C88.9136 34.0041 87.337 35.3521 85.527 35.2183C83.7171 35.0843 82.3591 33.5193 82.4939 31.7226L84.0344 11.2028C84.1692 9.40595 85.7459 8.05812 87.556 8.19193Z" fill="#00DAE4"/>
<path d="M91.08 27.0739C90.2562 22.158 93.3482 17.5626 98.2655 16.7507C103.183 15.9387 107.584 18.9383 108.407 23.8544C108.408 23.8613 108.41 23.8682 108.411 23.8754C108.57 24.8282 107.915 25.7274 106.955 25.8858L97.1791 27.5001C97.8932 28.9587 99.362 29.7555 101.224 29.448C101.942 29.3294 102.546 29.0674 103.058 28.7166C104.028 28.051 105.335 28.1527 106.189 28.9602C107.31 30.0206 107.207 31.8452 105.948 32.741C104.865 33.5115 103.472 34.1287 101.837 34.3988C96.4982 35.2802 91.8979 31.955 91.08 27.0739ZM96.7122 24.0658L102.332 23.1379C101.624 21.7141 100.46 21.2256 99.1598 21.4402C97.7901 21.6665 96.9467 22.6656 96.7122 24.0658Z" fill="#FFA100"/>
<path fill-rule="evenodd" clip-rule="evenodd" d="M75.6673 15.3435C76.6849 17.3868 77.854 18.4335 79.1334 18.7649C77.3278 19.2311 76.1667 20.3641 75.6455 22.1641C75.0834 20.6854 73.9966 19.506 72.1824 18.7431C74.0609 18.2835 75.1509 17.0839 75.6673 15.3435Z" fill="#F26522"/>
<path fill-rule="evenodd" clip-rule="evenodd" d="M70.6204 22.5038C71.4187 24.107 72.336 24.9283 73.34 25.1883C71.9231 25.5541 71.0119 26.4432 70.6032 27.8556C70.1622 26.6954 69.3093 25.7698 67.8858 25.1712C69.3598 24.8105 70.215 23.8694 70.6204 22.5038Z" fill="#00DAE4"/>
<path fill-rule="evenodd" clip-rule="evenodd" d="M25.9888 5.16471C26.7434 6.78897 27.6381 7.63488 28.6346 7.922C27.2084 8.24922 26.2735 9.11328 25.8266 10.5141C25.4172 9.34241 24.5898 8.39405 23.183 7.75703C24.6662 7.43648 25.5466 6.51889 25.9888 5.16471Z" fill="#00DAE4"/>
<path fill-rule="evenodd" clip-rule="evenodd" d="M91.6504 35.0287C92.4487 36.6319 93.3659 37.4532 94.3699 37.7133C92.9529 38.079 92.0419 38.9681 91.6332 40.3805C91.1922 39.2203 90.3393 38.2948 88.9158 37.6961C90.3898 37.3355 91.245 36.3944 91.6504 35.0287Z" fill="#00DAE4"/>
<path fill-rule="evenodd" clip-rule="evenodd" d="M108.695 12.1761C109.493 13.7793 110.411 14.6007 111.414 14.8607C109.998 15.2264 109.086 16.1155 108.678 17.5279C108.237 16.3678 107.384 15.4422 105.96 14.8435C107.434 14.4829 108.29 13.5418 108.695 12.1761Z" fill="#F26523"/>
<path fill-rule="evenodd" clip-rule="evenodd" d="M67.134 19.441C67.5917 20.3595 68.117 20.83 68.692 20.979C67.8804 21.1886 67.3587 21.6979 67.1242 22.5069C66.8717 21.8423 66.3831 21.312 65.5675 20.9691C66.4119 20.7626 66.9022 20.2234 67.134 19.441Z" fill="#FFD500"/>
<path opacity="0.2" d="M1.73633 21.0681C1.59043 21.0642 1.45912 20.9644 1.42233 20.817C1.01242 19.1725 1.6313 18.0583 3.21192 17.5948C3.38812 17.5432 3.57337 17.6431 3.62556 17.818C3.67775 17.993 3.57704 18.1768 3.40084 18.2286C2.16876 18.59 1.74545 19.362 2.06856 20.6587C2.11271 20.8357 2.0038 21.0149 1.82532 21.0587C1.79549 21.0658 1.7656 21.0689 1.73633 21.0681Z" fill="white"/>
<path opacity="0.2" d="M15.6872 16.9949C15.5413 16.9909 15.41 16.8912 15.3732 16.7438C14.9633 15.0993 15.5822 13.985 17.1628 13.5215C17.339 13.47 17.5242 13.5698 17.5764 13.7448C17.6286 13.9197 17.5279 14.1035 17.3517 14.1553C16.1196 14.5167 15.6963 15.2887 16.0194 16.5854C16.0636 16.7625 15.9547 16.9416 15.7762 16.9854C15.7465 16.9925 15.7165 16.9957 15.6872 16.9949Z" fill="white"/>
<path opacity="0.2" d="M31.3652 11.8035C31.2231 11.7697 31.1155 11.6454 31.1101 11.4935C31.0504 9.80067 31.8875 8.83695 33.5306 8.70698C33.7138 8.69262 33.8743 8.82834 33.889 9.01003C33.9037 9.19188 33.7671 9.35111 33.5839 9.36565C32.3031 9.4671 31.7284 10.1358 31.7755 11.4707C31.7818 11.653 31.6382 11.8059 31.4544 11.8122C31.4237 11.8135 31.3937 11.8104 31.3652 11.8035Z" fill="white"/>
<path opacity="0.2" d="M84.9055 12.2016C84.7626 12.1717 84.6516 12.0503 84.6421 11.8986C84.5366 10.208 85.3472 9.22199 86.9863 9.04754C87.169 9.02821 87.3331 9.15954 87.3527 9.34076C87.3723 9.52215 87.24 9.68503 87.0573 9.70452C85.7797 9.84064 85.2234 10.5247 85.3066 11.8578C85.3179 12.0399 85.1785 12.1967 84.9949 12.2079C84.9641 12.21 84.9342 12.2077 84.9055 12.2016Z" fill="white"/>
<path opacity="0.2" d="M114.125 17.2556C113.982 17.2257 113.871 17.1043 113.861 16.9527C113.756 15.2621 114.566 14.276 116.205 14.1016C116.388 14.0822 116.552 14.2136 116.572 14.3948C116.591 14.5762 116.459 14.739 116.276 14.7585C114.999 14.8947 114.442 15.5787 114.526 16.9119C114.537 17.0939 114.398 17.2507 114.214 17.2619C114.183 17.2639 114.153 17.2616 114.125 17.2556Z" fill="white"/>
<path d="M52.5581 22.9461H44.8835V30.2749C44.8835 31.894 43.5613 33.2065 41.9303 33.2065C40.2992 33.2065 38.9771 31.894 38.9771 30.2749V11.0194C38.9771 9.4003 40.2992 8.08783 41.9303 8.08783C43.5613 8.08783 44.8835 9.4003 44.8835 11.0194V17.4382H52.5581V11.0193C52.5581 9.40024 53.8802 8.08777 55.5113 8.08777C57.1423 8.08777 58.4645 9.40024 58.4645 11.0193V30.2749C58.4645 31.894 57.1423 33.2065 55.5113 33.2065C53.8802 33.2065 52.5581 31.894 52.5581 30.2749V22.9461Z" fill="#F26523"/>
<path opacity="0.2" d="M40.0066 12.6182C39.8637 12.5883 39.7527 12.4669 39.7432 12.3152C39.6377 10.6246 40.4483 9.63858 42.0873 9.46414C42.27 9.44481 42.4341 9.57614 42.4538 9.75736C42.4734 9.93874 42.3411 10.1016 42.1584 10.1211C40.8808 10.2572 40.3245 10.9413 40.4077 12.2744C40.419 12.4565 40.2795 12.6132 40.096 12.6245C40.0654 12.6265 40.0354 12.6241 40.0066 12.6182Z" fill="white"/>
<path opacity="0.2" d="M53.8919 12.309C53.749 12.2791 53.638 12.1577 53.6285 12.006C53.523 10.3154 54.3336 9.32938 55.9726 9.15493C56.1554 9.13561 56.3194 9.26693 56.3391 9.44815C56.3587 9.62954 56.2264 9.79242 56.0437 9.81191C54.7661 9.94803 54.2098 10.6321 54.293 11.9652C54.3043 12.1473 54.1648 12.304 53.9813 12.3153C53.9505 12.3174 53.9205 12.3151 53.8919 12.309Z" fill="white"/>
</g>
<defs>
<linearGradient id="paint0_linear_2_818" x1="65.7154" y1="20.1975" x2="81.4197" y2="26.5286" gradientUnits="userSpaceOnUse">
<stop stop-color="#764FC5"/>
<stop offset="1" stop-color="#764FC5" stop-opacity="0"/>
</linearGradient>
<linearGradient id="paint1_linear_2_818" x1="0.762141" y1="24.7917" x2="37.6003" y2="22.85" gradientUnits="userSpaceOnUse">
<stop stop-color="#4C33B7"/>
<stop offset="1" stop-color="#7352E8"/>
</linearGradient>
<clipPath id="clip0_2_818">
<rect width="121" height="45.424" fill="white"/>
</clipPath>
</defs>
</svg>
