<svg width="29" height="29" viewBox="0 0 29 29" fill="none" xmlns="http://www.w3.org/2000/svg">
<g clip-path="url(#clip0_7_122770)">
<path d="M27.0619 6.28857C26.2953 4.92487 25.4633 4.67404 23.7692 4.57865C22.077 4.46383 17.8216 4.41614 14.1351 4.41614C10.4414 4.41614 6.18431 4.46383 4.49383 4.57688C2.80334 4.67404 1.96958 4.92311 1.19588 6.28857C0.406282 7.65049 0 9.99633 0 14.1263C0 14.1298 0 14.1316 0 14.1316C0 14.1351 0 14.1369 0 14.1369V14.1404C0 18.2527 0.406282 20.6162 1.19588 21.964C1.96958 23.3277 2.80158 23.575 4.49206 23.6898C6.18431 23.7887 10.4414 23.847 14.1351 23.847C17.8216 23.847 22.077 23.7887 23.771 23.6916C25.465 23.5767 26.297 23.3294 27.0637 21.9657C27.8603 20.6179 28.2631 18.2544 28.2631 14.1422C28.2631 14.1422 28.2631 14.1369 28.2631 14.1333C28.2631 14.1333 28.2631 14.1298 28.2631 14.128C28.2631 9.99633 27.8603 7.65049 27.0619 6.28857ZM10.5987 19.4309V8.83224L19.4309 14.1316L10.5987 19.4309Z" fill="#FF960A"/>
</g>
<defs>
<clipPath id="clip0_7_122770">
<rect width="28.2631" height="28.2631" fill="white"/>
</clipPath>
</defs>
</svg>
