<svg width="135" height="96" viewBox="0 0 135 96" fill="none" xmlns="http://www.w3.org/2000/svg">
<path d="M0 -80H135V88C135 92.4183 131.418 96 127 96H8C3.58172 96 0 92.4183 0 88V-80Z" fill="#3620A5"/>
<path d="M42.2593 20V56.0181L60.2488 38.0073L42.2593 20Z" fill="#FF4C00"/>
<path d="M42.2593 56.0181H78.2384L60.2488 38.0073L42.2593 56.0181Z" fill="#FFDF58"/>
<path d="M60.249 38.0073L66.2455 44.0133V32.0049L60.249 38.0073Z" fill="#2AD4DD"/>
<path d="M78.233 20L66.24 32.0049H78.233V20Z" fill="#2AD4DD"/>
<path d="M66.24 44.0132L78.233 56.0181V44.0132H66.24Z" fill="#2AD4DD"/>
<path d="M102.228 32.0049H90.2319V20H78.2389V32.0049H66.2458V44.0132H78.2389V56.0181H90.2319V44.0132H102.228V32.0049Z" fill="#FFFEFA"/>
<path d="M56.7236 67.678H58.3037V65.3718H60.5694V67.678H62.9846V69.6847H60.5867V76.6138C60.5867 77.4499 60.9383 77.8609 61.6099 77.8609C62.0171 77.8609 62.4278 77.6763 62.6505 77.415L63.6737 79.1081C63.1726 79.5924 62.3373 79.9999 61.241 79.9999C59.4382 79.9999 58.2863 78.8643 58.2863 76.6904V69.6847H56.7271V67.678H56.7236Z" fill="#FFFEFA"/>
<path d="M34.3248 70.2767V78.5401H32V66.6118H34.6589L38.4524 72.5306L42.2459 66.6118H44.6264V78.5401H42.3016V70.2418L38.3063 76.2896L34.3248 70.2767Z" fill="#FFFEFA"/>
<path d="M53.2121 77.5718C52.5613 78.3348 51.6494 78.8016 50.4975 78.8016C48.1378 78.8016 46.2202 76.8646 46.2202 74.0951C46.2202 71.3987 48.023 69.3677 50.4975 69.3677C51.6668 69.3677 52.5787 69.7962 53.2121 70.5208V69.629H55.4986V78.5403H53.2121V77.5718ZM53.2121 74.0742C53.2121 72.6424 52.2272 71.5067 50.8699 71.5067C49.4951 71.5067 48.4894 72.6424 48.4894 74.0742C48.4894 75.506 49.4917 76.6591 50.8699 76.6591C52.2272 76.6591 53.2121 75.506 53.2121 74.0742Z" fill="#FFFEFA"/>
<path d="M66.4859 76.436H64.2168V65.7375H66.4859V70.4998C67.0428 69.7752 67.8989 69.3641 68.9952 69.3641C71.059 69.3641 72.378 70.8168 72.378 73.1404V78.5367H70.1089V73.4784C70.1089 72.2695 69.4024 71.5066 68.3061 71.5066C67.1715 71.5066 66.4859 72.2695 66.4859 73.4784V76.436Z" fill="#FFFEFA"/>
<path d="M77.2296 68.7891V78.5401H74.9048V68.7891H71.3723V66.6118H80.7795V68.7891H77.2296Z" fill="#FFFEFA"/>
<path d="M86.2817 77.5718C85.6309 78.3348 84.719 78.8016 83.5671 78.8016C81.2074 78.8016 79.2898 76.8646 79.2898 74.0951C79.2898 71.3987 81.0926 69.3677 83.5671 69.3677C84.7364 69.3677 85.6483 69.7962 86.2817 70.5208V69.629H88.5682V78.5403H86.2817V77.5718ZM86.2817 74.0742C86.2817 72.6424 85.2967 71.5067 83.9394 71.5067C82.5647 71.5067 81.5589 72.6424 81.5589 74.0742C81.5589 75.506 82.5613 76.6591 83.9394 76.6591C85.2967 76.6591 86.2817 75.506 86.2817 74.0742Z" fill="#FFFEFA"/>
<path d="M90.6707 65.7375H92.9398V78.5402H90.6707V65.7375Z" fill="#FFFEFA"/>
<path d="M95.3376 65.7375H97.6068V72.8443H98.6857L100.972 69.6254H103.743L100.711 73.7571L104 78.5402H101.157L98.7205 74.9102H97.6068V78.5402H95.3376V65.7375Z" fill="#FFFEFA"/>
</svg>
