<svg width="56" height="56" viewBox="0 0 56 56" fill="none" xmlns="http://www.w3.org/2000/svg">
<circle cx="28" cy="28" r="28" fill="#FFFEFA"/>
<path d="M40.1972 20.2305H15.8028C14.8072 20.2305 14 19.4233 14 18.4278C14 17.4322 14.8072 16.625 15.8028 16.625H40.1972C41.1928 16.625 42 17.4322 42 18.4278C42 19.4233 41.1928 20.2305 40.1972 20.2305Z" fill="#F46234"/>
<path d="M40.1972 29.2781H15.8028C14.8072 29.2781 14 28.4709 14 27.4754C14 26.4795 14.8072 25.6726 15.8028 25.6726H40.1972C41.1928 25.6726 42 26.4795 42 27.4754C42 28.4709 41.1928 29.2781 40.1972 29.2781Z" fill="#F46234"/>
<path d="M40.1972 38.6299H15.8028C14.8072 38.6299 14 37.8227 14 36.8272C14 35.8316 14.8072 35.0244 15.8028 35.0244H40.1972C41.1928 35.0244 42 35.8316 42 36.8272C42 37.8227 41.1928 38.6299 40.1972 38.6299Z" fill="#F46234"/>
</svg>
